<?xml version="1.0" encoding="utf-8"?>
<!-- Generator: Adobe Illustrator 19.2.0, SVG Export Plug-In . SVG Version: 6.00 Build 0)  -->
<svg version="1.1" id="Layer_1" xmlns="http://www.w3.org/2000/svg" xmlns:xlink="http://www.w3.org/1999/xlink" x="0px" y="0px"
	 viewBox="0 0 430 460" style="enable-background:new 0 0 430 460;" xml:space="preserve">
<style type="text/css">
	.st0{fill:#A98EFF;}
	.st1{fill:#785CDB;}
	.st2{fill:#8D76E2;}
	.st3{fill:none;stroke:#785CDB;stroke-width:2;stroke-miterlimit:10;stroke-dasharray:3,4;}
	.st4{fill:none;stroke:#8D76E2;stroke-width:2;stroke-miterlimit:10;stroke-dasharray:3,4;}
	.st5{fill:#7460CC;}
	.st6{fill:#6ED4F3;}
	.st7{fill:#3AA7BD;}
	.st8{fill:#52C0DF;}
	.st9{fill:none;stroke:#3AA7BD;stroke-width:2;stroke-miterlimit:10;stroke-dasharray:3,4;}
	.st10{fill:none;stroke:#52C0DF;stroke-width:2;stroke-miterlimit:10;stroke-dasharray:3,4;}
	.st11{fill:#FC6269;}
	.st12{fill:#FFFFFF;}
</style>
<polygon id="XMLID_284_" class="st0" points="109.1,134.1 37,98.1 109.1,62 181.2,98.1 "/>
<polygon id="XMLID_283_" class="st1" points="109.1,170.2 37,134.1 37,98.1 109.1,134.1 "/>
<polygon id="XMLID_282_" class="st2" points="109.1,170.2 181.2,134.1 181.2,98.1 109.1,134.1 "/>
<polygon id="XMLID_281_" class="st0" points="109.1,375.1 37,339.1 109.1,303 181.2,339.1 "/>
<polygon id="XMLID_280_" class="st1" points="109.1,303 181.2,339.1 181.2,375.1 109.1,339.1 "/>
<polygon id="XMLID_279_" class="st2" points="109.1,303 37,339.1 37,375.1 109.1,339.1 "/>
<polygon id="XMLID_278_" class="st1" points="109.1,411.2 37,375.1 37,339.1 109.1,375.1 "/>
<polygon id="XMLID_277_" class="st2" points="109.1,411.2 181.2,375.1 181.2,339.1 109.1,375.1 "/>
<g id="XMLID_252_">
	<g id="XMLID_302_">
		<line id="XMLID_304_" class="st3" x1="38" y1="337" x2="38" y2="136"/>
	</g>
</g>
<g id="XMLID_237_">
	<g id="XMLID_295_">
		<line id="XMLID_298_" class="st4" x1="180" y1="138" x2="180" y2="337"/>
	</g>
</g>
<path id="XMLID_233_" class="st0" d="M109.1,303L37,339.1l72.1,36.1l72.1-36.1L109.1,303z M53,339.1l56-28l56,28l-56,28L53,339.1z"
	/>
<g id="XMLID_376_">
	<g id="XMLID_1506_">
		<path id="XMLID_1608_" class="st5" d="M59.4,195h-0.7c-0.2,0-0.3,0-0.4-0.1s-0.1-0.2-0.1-0.4l0.1-1.6c-0.2,0.3-0.4,0.6-0.6,0.9
			s-0.5,0.5-0.7,0.7s-0.5,0.3-0.8,0.4c-0.3,0.1-0.6,0.2-0.8,0.2c-0.3,0-0.6-0.1-0.9-0.2c-0.3-0.1-0.5-0.3-0.7-0.6
			c-0.2-0.2-0.3-0.5-0.4-0.9s-0.2-0.8-0.2-1.2c0-0.5,0.1-0.9,0.2-1.4c0.1-0.5,0.3-0.9,0.5-1.3c0.2-0.4,0.5-0.8,0.8-1.1
			s0.7-0.6,1-0.9c0.4-0.2,0.8-0.4,1.2-0.6c0.4-0.1,0.9-0.2,1.4-0.2c0.3,0,0.7,0,1,0.1s0.7,0.2,1,0.3L59.4,195z M55.9,193.9
			c0.3,0,0.5-0.1,0.8-0.2c0.3-0.2,0.5-0.4,0.7-0.7s0.4-0.6,0.6-1c0.2-0.4,0.4-0.8,0.5-1.3l0.3-2.7c-0.1-0.1-0.2-0.1-0.3-0.1
			s-0.2,0-0.3,0c-0.3,0-0.6,0.1-0.9,0.2c-0.3,0.1-0.6,0.2-0.8,0.4c-0.3,0.2-0.5,0.4-0.7,0.7s-0.4,0.5-0.5,0.8
			c-0.2,0.3-0.3,0.6-0.4,1c-0.1,0.3-0.1,0.7-0.1,1.1C54.7,193.3,55.1,193.9,55.9,193.9z"/>
		<path id="XMLID_1605_" class="st5" d="M61.2,197.7l1.3-10.9h0.7c0.3,0,0.5,0.2,0.5,0.5l-0.1,1.7c0.2-0.4,0.4-0.7,0.7-1
			c0.2-0.3,0.5-0.5,0.8-0.7s0.5-0.4,0.8-0.5s0.6-0.2,0.9-0.2c0.7,0,1.2,0.3,1.6,0.8s0.6,1.2,0.6,2.2c0,0.4,0,0.9-0.1,1.3
			c-0.1,0.4-0.2,0.9-0.4,1.3s-0.4,0.8-0.6,1.1s-0.5,0.6-0.8,0.9c-0.3,0.3-0.6,0.5-0.9,0.6s-0.7,0.2-1.1,0.2s-0.8-0.1-1.1-0.2
			c-0.3-0.2-0.6-0.4-0.8-0.7l-0.4,3.5L61.2,197.7L61.2,197.7z M66.1,187.9c-0.3,0-0.5,0.1-0.8,0.2c-0.3,0.2-0.5,0.4-0.8,0.7
			c-0.2,0.3-0.5,0.6-0.7,1s-0.4,0.8-0.5,1.3l-0.3,2.1c0.2,0.3,0.4,0.5,0.7,0.6s0.6,0.2,0.9,0.2c0.3,0,0.5-0.1,0.8-0.2
			s0.5-0.3,0.7-0.5s0.4-0.4,0.5-0.7c0.2-0.3,0.3-0.6,0.4-0.9s0.2-0.6,0.3-1s0.1-0.7,0.1-1c0-0.6-0.1-1.1-0.3-1.4
			S66.5,187.9,66.1,187.9z"/>
		<path id="XMLID_1602_" class="st5" d="M69.4,197.7l1.3-10.9h0.7c0.3,0,0.5,0.2,0.5,0.5l-0.1,1.7c0.2-0.4,0.4-0.7,0.7-1
			c0.2-0.3,0.5-0.5,0.8-0.7s0.5-0.4,0.8-0.5s0.6-0.2,0.9-0.2c0.7,0,1.2,0.3,1.6,0.8s0.6,1.2,0.6,2.2c0,0.4,0,0.9-0.1,1.3
			c-0.1,0.4-0.2,0.9-0.4,1.3s-0.4,0.8-0.6,1.1s-0.5,0.6-0.8,0.9c-0.3,0.3-0.6,0.5-0.9,0.6s-0.7,0.2-1.1,0.2s-0.8-0.1-1.1-0.2
			c-0.3-0.2-0.6-0.4-0.8-0.7l-0.4,3.5L69.4,197.7L69.4,197.7z M74.4,187.9c-0.3,0-0.5,0.1-0.8,0.2c-0.3,0.2-0.5,0.4-0.8,0.7
			c-0.2,0.3-0.5,0.6-0.7,1s-0.4,0.8-0.5,1.3l-0.3,2.1c0.2,0.3,0.4,0.5,0.7,0.6c0.3,0.1,0.6,0.2,0.9,0.2s0.5-0.1,0.8-0.2
			s0.5-0.3,0.7-0.5s0.4-0.4,0.5-0.7c0.2-0.3,0.3-0.6,0.4-0.9s0.2-0.6,0.3-1s0.1-0.7,0.1-1c0-0.6-0.1-1.1-0.3-1.4
			S74.8,187.9,74.4,187.9z"/>
		<path id="XMLID_1600_" class="st5" d="M78.2,195.2c-0.1,0.2-0.2,0.3-0.4,0.4c-0.2,0.1-0.3,0.1-0.4,0.1h-0.6l5.8-11.8
			c0.1-0.2,0.2-0.3,0.3-0.4s0.3-0.1,0.5-0.1H84L78.2,195.2z"/>
		<path id="XMLID_1597_" class="st5" d="M53.1,219.3l1.3-10.9h0.7c0.3,0,0.5,0.2,0.5,0.5l-0.1,1.7c0.2-0.4,0.4-0.7,0.7-1
			c0.2-0.3,0.5-0.5,0.8-0.7s0.5-0.4,0.8-0.5s0.6-0.2,0.9-0.2c0.7,0,1.2,0.3,1.6,0.8c0.4,0.5,0.6,1.2,0.6,2.2c0,0.4,0,0.9-0.1,1.3
			c-0.1,0.4-0.2,0.9-0.4,1.3s-0.4,0.8-0.6,1.1c-0.2,0.3-0.5,0.6-0.8,0.9c-0.3,0.3-0.6,0.5-0.9,0.6c-0.3,0.1-0.7,0.2-1.1,0.2
			c-0.4,0-0.8-0.1-1.1-0.2c-0.3-0.2-0.6-0.4-0.8-0.7l-0.4,3.5L53.1,219.3L53.1,219.3z M58,209.5c-0.3,0-0.5,0.1-0.8,0.2
			c-0.3,0.2-0.5,0.4-0.8,0.7c-0.2,0.3-0.5,0.6-0.7,1s-0.4,0.8-0.5,1.3l-0.3,2.1c0.2,0.3,0.4,0.5,0.7,0.6s0.6,0.2,0.9,0.2
			c0.3,0,0.5-0.1,0.8-0.2s0.5-0.3,0.7-0.5s0.4-0.4,0.5-0.7c0.2-0.3,0.3-0.6,0.4-0.9s0.2-0.6,0.3-1s0.1-0.7,0.1-1
			c0-0.6-0.1-1.1-0.3-1.4S58.5,209.5,58,209.5z"/>
		<path id="XMLID_1595_" class="st5" d="M64,208.5l-0.6,5.2c0,0.1,0,0.2,0,0.3s0,0.2,0,0.3c0,0.4,0.1,0.8,0.2,1
			c0.2,0.2,0.4,0.3,0.8,0.3c0.2,0,0.5-0.1,0.8-0.2s0.5-0.3,0.8-0.6c0.2-0.2,0.5-0.5,0.7-0.9s0.4-0.7,0.5-1.2l0.5-4.2H69l-1,8.1h-0.7
			c-0.2,0-0.3,0-0.4-0.1s-0.1-0.2-0.1-0.3v-0.1c0-0.1,0-0.2,0-0.3s0-0.2,0-0.3s0-0.1,0-0.1l0.1-0.6c-0.4,0.7-0.9,1.2-1.4,1.6
			s-1.1,0.5-1.6,0.5c-0.6,0-1.1-0.2-1.4-0.6c-0.3-0.4-0.5-1-0.5-1.8c0-0.1,0-0.2,0-0.3s0-0.2,0-0.4l0.6-5.2L64,208.5L64,208.5z"/>
		<path id="XMLID_1592_" class="st5" d="M70.2,216.6l1.4-11.8H73l-0.7,5.7c0.2-0.3,0.4-0.6,0.7-0.9c0.2-0.3,0.5-0.5,0.7-0.7
			c0.3-0.2,0.5-0.3,0.8-0.4s0.6-0.2,0.8-0.2c0.7,0,1.2,0.3,1.6,0.8s0.6,1.2,0.6,2.2c0,0.4,0,0.9-0.1,1.3s-0.2,0.9-0.4,1.3
			s-0.4,0.8-0.6,1.1s-0.5,0.6-0.8,0.9c-0.3,0.3-0.6,0.5-0.9,0.6s-0.7,0.2-1.1,0.2s-0.8-0.1-1.2-0.3c-0.3-0.2-0.6-0.4-0.9-0.8
			l-0.1,0.5c0,0.1-0.1,0.2-0.2,0.3s-0.2,0.1-0.3,0.1L70.2,216.6L70.2,216.6z M74.8,209.5c-0.3,0-0.5,0.1-0.8,0.2
			c-0.3,0.2-0.5,0.4-0.8,0.7c-0.2,0.3-0.5,0.6-0.7,1s-0.4,0.8-0.6,1.3l-0.3,2.1c0.2,0.3,0.4,0.5,0.7,0.6s0.6,0.2,0.9,0.2
			s0.5-0.1,0.8-0.2c0.2-0.1,0.5-0.3,0.7-0.5s0.4-0.4,0.5-0.7c0.2-0.3,0.3-0.6,0.4-0.9s0.2-0.6,0.3-1c0.1-0.3,0.1-0.7,0.1-1
			c0-0.6-0.1-1.1-0.3-1.4S75.2,209.5,74.8,209.5z"/>
		<path id="XMLID_1590_" class="st5" d="M78.6,216.6l1.4-11.8h1.4L80,216.6H78.6z"/>
		<path id="XMLID_1587_" class="st5" d="M84.9,208.5l-1,8.1h-1.4l1-8.1H84.9z M85.4,206c0,0.1,0,0.3-0.1,0.4
			c-0.1,0.1-0.1,0.2-0.2,0.3s-0.2,0.2-0.3,0.2c-0.1,0.1-0.2,0.1-0.4,0.1c-0.1,0-0.2,0-0.4-0.1c-0.1-0.1-0.2-0.1-0.3-0.2
			s-0.2-0.2-0.2-0.3c-0.1-0.1-0.1-0.2-0.1-0.4s0-0.3,0.1-0.4c0.1-0.1,0.1-0.2,0.2-0.3s0.2-0.2,0.3-0.2c0.1-0.1,0.2-0.1,0.4-0.1
			c0.1,0,0.2,0,0.4,0.1s0.2,0.1,0.3,0.2c0.1,0.1,0.2,0.2,0.2,0.3C85.4,205.7,85.4,205.8,85.4,206z"/>
		<path id="XMLID_1585_" class="st5" d="M91.4,215.9c-0.2,0.2-0.5,0.4-0.7,0.5s-0.5,0.2-0.8,0.3c-0.3,0-0.6,0.1-0.9,0.1
			c-0.5,0-0.9-0.1-1.2-0.2s-0.7-0.4-0.9-0.7c-0.2-0.3-0.4-0.6-0.6-1c-0.1-0.4-0.2-0.9-0.2-1.3c0-0.7,0.1-1.3,0.3-1.9
			s0.5-1.1,0.9-1.6s0.8-0.8,1.3-1.1s1.1-0.4,1.7-0.4c0.5,0,1,0.1,1.3,0.3c0.4,0.2,0.7,0.5,1,0.8l-0.4,0.5l-0.1,0.1c0,0-0.1,0-0.2,0
			s-0.1,0-0.2-0.1s-0.2-0.1-0.3-0.2c-0.1-0.1-0.3-0.2-0.4-0.2c-0.2-0.1-0.4-0.1-0.7-0.1c-0.4,0-0.7,0.1-1,0.3s-0.6,0.5-0.9,0.8
			c-0.2,0.3-0.4,0.8-0.6,1.2c-0.1,0.5-0.2,1-0.2,1.5c0,0.3,0,0.6,0.1,0.9c0.1,0.3,0.2,0.5,0.3,0.7s0.3,0.3,0.5,0.4
			c0.2,0.1,0.5,0.2,0.8,0.2c0.2,0,0.5,0,0.6-0.1s0.4-0.1,0.5-0.2s0.3-0.2,0.4-0.2s0.2-0.2,0.3-0.2s0.2-0.1,0.2-0.2
			c0.1-0.1,0.1-0.1,0.2-0.1s0.2,0,0.3,0.1l0.4,0.4C91.9,215.4,91.6,215.7,91.4,215.9z"/>
		<path id="XMLID_1583_" class="st5" d="M93.3,216.8c-0.1,0.2-0.2,0.3-0.4,0.4c-0.2,0.1-0.3,0.1-0.4,0.1h-0.6l5.8-11.8
			c0.1-0.2,0.2-0.3,0.3-0.4s0.3-0.1,0.5-0.1h0.6L93.3,216.8z"/>
		<path id="XMLID_1581_" class="st5" d="M74.2,230.1l-0.6,5.2c0,0.1,0,0.2,0,0.3s0,0.2,0,0.3c0,0.4,0.1,0.8,0.2,1
			c0.2,0.2,0.4,0.3,0.8,0.3c0.2,0,0.5-0.1,0.8-0.2s0.5-0.3,0.8-0.6c0.2-0.2,0.5-0.5,0.7-0.9s0.4-0.7,0.5-1.2l0.5-4.2h1.4l-1,8.1
			h-0.7c-0.2,0-0.3,0-0.4-0.1s-0.1-0.2-0.1-0.3v-0.1c0-0.1,0-0.2,0-0.3s0-0.2,0-0.3s0-0.1,0-0.1l0.1-0.6c-0.4,0.7-0.9,1.2-1.4,1.6
			s-1.1,0.5-1.6,0.5c-0.6,0-1.1-0.2-1.4-0.6c-0.3-0.4-0.5-1-0.5-1.8c0-0.1,0-0.2,0-0.3s0-0.2,0-0.4l0.6-5.2L74.2,230.1L74.2,230.1z"
			/>
		<path id="XMLID_1578_" class="st5" d="M80,240.9l1.3-10.9H82c0.3,0,0.5,0.2,0.5,0.5l-0.1,1.7c0.2-0.4,0.4-0.7,0.7-1
			c0.2-0.3,0.5-0.5,0.8-0.7s0.5-0.4,0.8-0.5s0.6-0.2,0.9-0.2c0.7,0,1.2,0.3,1.6,0.8s0.6,1.2,0.6,2.2c0,0.4,0,0.9-0.1,1.3
			c-0.1,0.4-0.2,0.9-0.4,1.3s-0.4,0.8-0.6,1.1s-0.5,0.6-0.8,0.9c-0.3,0.3-0.6,0.5-0.9,0.6s-0.7,0.2-1.1,0.2s-0.8-0.1-1.1-0.2
			c-0.3-0.2-0.6-0.4-0.8-0.7l-0.4,3.5L80,240.9L80,240.9z M85,231.1c-0.3,0-0.5,0.1-0.8,0.2c-0.3,0.2-0.5,0.4-0.8,0.7
			c-0.2,0.3-0.5,0.6-0.7,1s-0.4,0.8-0.5,1.3l-0.3,2.1c0.2,0.3,0.4,0.5,0.7,0.6c0.3,0.1,0.6,0.2,0.9,0.2s0.5-0.1,0.8-0.2
			s0.5-0.3,0.7-0.5s0.4-0.4,0.5-0.7c0.2-0.3,0.3-0.6,0.4-0.9s0.2-0.6,0.3-1s0.1-0.7,0.1-1c0-0.6-0.1-1.1-0.3-1.4
			S85.4,231.1,85,231.1z"/>
		<path id="XMLID_1576_" class="st5" d="M88.8,238.2l1.4-11.8h1.4l-1.4,11.8H88.8z"/>
		<path id="XMLID_1573_" class="st5" d="M95.3,238.3c-0.4,0-0.8-0.1-1.2-0.2c-0.4-0.2-0.7-0.4-1-0.7s-0.5-0.6-0.6-1.1
			s-0.2-0.9-0.2-1.4c0-0.7,0.1-1.3,0.3-1.9c0.2-0.6,0.5-1.1,0.9-1.6s0.8-0.8,1.3-1.1s1-0.4,1.6-0.4c0.4,0,0.8,0.1,1.2,0.2
			s0.7,0.4,1,0.7s0.5,0.6,0.6,1.1c0.1,0.4,0.2,0.9,0.2,1.4c0,0.7-0.1,1.3-0.3,1.9c-0.2,0.6-0.5,1.1-0.9,1.6s-0.8,0.8-1.3,1.1
			C96.4,238.2,95.9,238.3,95.3,238.3z M95.4,237.2c0.4,0,0.7-0.1,1.1-0.3c0.3-0.2,0.6-0.5,0.8-0.9c0.2-0.4,0.4-0.8,0.5-1.2
			c0.1-0.5,0.2-0.9,0.2-1.5c0-0.7-0.1-1.3-0.4-1.7s-0.7-0.6-1.3-0.6c-0.4,0-0.8,0.1-1.1,0.3c-0.3,0.2-0.6,0.5-0.8,0.8
			c-0.2,0.4-0.4,0.8-0.5,1.2c-0.1,0.5-0.2,0.9-0.2,1.5c0,0.7,0.1,1.3,0.4,1.7C94.5,237,94.9,237.2,95.4,237.2z"/>
		<path id="XMLID_1570_" class="st5" d="M106.4,238.2h-0.7c-0.2,0-0.3,0-0.4-0.1s-0.1-0.2-0.1-0.4l0.1-1.6c-0.2,0.3-0.4,0.6-0.6,0.9
			s-0.5,0.5-0.7,0.7s-0.5,0.3-0.8,0.4c-0.3,0.1-0.6,0.2-0.8,0.2c-0.3,0-0.6-0.1-0.9-0.2c-0.3-0.1-0.5-0.3-0.7-0.6
			c-0.2-0.2-0.3-0.5-0.4-0.9s-0.2-0.8-0.2-1.2c0-0.5,0.1-0.9,0.2-1.4s0.3-0.9,0.5-1.3c0.2-0.4,0.5-0.8,0.8-1.1s0.7-0.6,1-0.9
			c0.4-0.2,0.8-0.4,1.2-0.6c0.4-0.1,0.9-0.2,1.4-0.2c0.3,0,0.7,0,1,0.1s0.7,0.2,1,0.3L106.4,238.2z M102.9,237.1
			c0.3,0,0.5-0.1,0.8-0.2c0.3-0.2,0.5-0.4,0.7-0.7s0.4-0.6,0.6-1s0.4-0.8,0.5-1.3l0.3-2.7c-0.1-0.1-0.2-0.1-0.3-0.1
			c-0.1,0-0.2,0-0.3,0c-0.3,0-0.6,0.1-0.9,0.2c-0.3,0.1-0.6,0.2-0.8,0.4c-0.3,0.2-0.5,0.4-0.7,0.7s-0.4,0.5-0.5,0.8
			c-0.2,0.3-0.3,0.6-0.4,1c-0.1,0.3-0.1,0.7-0.1,1.1C101.7,236.5,102.1,237.1,102.9,237.1z"/>
		<path id="XMLID_1567_" class="st5" d="M114,238.2c-0.2,0-0.3,0-0.4-0.1s-0.1-0.2-0.1-0.4l0.2-1.7c-0.2,0.3-0.4,0.7-0.7,0.9
			c-0.2,0.3-0.5,0.5-0.8,0.7s-0.5,0.4-0.8,0.5s-0.6,0.2-0.9,0.2c-0.7,0-1.2-0.3-1.6-0.8s-0.6-1.2-0.6-2.2c0-0.4,0-0.9,0.1-1.3
			c0.1-0.4,0.2-0.9,0.4-1.3c0.2-0.4,0.4-0.8,0.6-1.1s0.5-0.6,0.8-0.9c0.3-0.3,0.6-0.4,0.9-0.6c0.3-0.1,0.7-0.2,1.1-0.2
			s0.8,0.1,1.1,0.2c0.3,0.2,0.6,0.4,0.8,0.7l0.6-4.5h1.4l-1.5,11.8H114V238.2z M111.1,237.2c0.3,0,0.5-0.1,0.8-0.2s0.5-0.4,0.8-0.7
			c0.2-0.3,0.5-0.6,0.7-1s0.4-0.8,0.5-1.3l0.3-2.1c-0.2-0.3-0.4-0.5-0.7-0.6c-0.3-0.1-0.6-0.2-0.9-0.2c-0.4,0-0.8,0.1-1.1,0.4
			c-0.3,0.3-0.6,0.6-0.9,1c-0.2,0.4-0.4,0.8-0.5,1.3s-0.2,1-0.2,1.4c0,0.6,0.1,1.1,0.3,1.5C110.4,237,110.7,237.2,111.1,237.2z"/>
		<path id="XMLID_1565_" class="st5" d="M122.2,231.4c0,0.1-0.1,0.1-0.1,0.1s-0.1,0-0.2,0s-0.2,0-0.2-0.1s-0.2-0.1-0.3-0.2
			c-0.1-0.1-0.3-0.1-0.5-0.2c-0.2-0.1-0.4-0.1-0.7-0.1c-0.2,0-0.5,0-0.7,0.1s-0.4,0.2-0.5,0.3s-0.3,0.3-0.3,0.4
			c-0.1,0.2-0.1,0.3-0.1,0.5c0,0.3,0.1,0.5,0.2,0.6c0.2,0.1,0.4,0.3,0.6,0.4c0.2,0.1,0.5,0.2,0.8,0.3s0.6,0.2,0.8,0.4
			c0.2,0.2,0.5,0.4,0.6,0.6c0.2,0.2,0.2,0.6,0.2,0.9c0,0.4-0.1,0.7-0.2,1.1s-0.4,0.6-0.6,0.9c-0.3,0.3-0.6,0.5-1,0.6
			s-0.8,0.2-1.3,0.2s-1-0.1-1.4-0.3s-0.7-0.4-1-0.7l0.4-0.5c0-0.1,0.1-0.1,0.2-0.2c0.1,0,0.1-0.1,0.2-0.1s0.2,0,0.3,0.1
			c0.1,0.1,0.2,0.2,0.3,0.3s0.3,0.2,0.5,0.3s0.4,0.1,0.7,0.1c0.3,0,0.5,0,0.7-0.1s0.4-0.2,0.5-0.3s0.3-0.3,0.3-0.5
			c0.1-0.2,0.1-0.4,0.1-0.6c0-0.3-0.1-0.5-0.2-0.6c-0.2-0.2-0.4-0.3-0.6-0.4c-0.2-0.1-0.5-0.2-0.8-0.3s-0.6-0.2-0.8-0.4
			c-0.3-0.1-0.5-0.3-0.6-0.6c-0.2-0.2-0.2-0.5-0.2-0.9c0-0.3,0.1-0.7,0.2-1s0.3-0.6,0.6-0.8c0.3-0.2,0.6-0.4,0.9-0.6
			s0.8-0.2,1.2-0.2c0.5,0,0.9,0.1,1.3,0.2c0.4,0.2,0.7,0.4,1,0.7L122.2,231.4z"/>
		<path id="XMLID_1563_" class="st5" d="M123.4,238.4c-0.1,0.2-0.2,0.3-0.4,0.4c-0.2,0.1-0.3,0.1-0.4,0.1H122l5.8-11.8
			c0.1-0.2,0.2-0.3,0.3-0.4s0.3-0.1,0.5-0.1h0.6L123.4,238.4z"/>
		<path id="XMLID_1560_" class="st5" d="M92,251.7l-1,8.1h-1.4l1-8.1L92,251.7L92,251.7z M92.5,249.2c0,0.1,0,0.3-0.1,0.4
			c-0.1,0.1-0.1,0.2-0.2,0.3s-0.2,0.2-0.3,0.2c-0.1,0.1-0.2,0.1-0.4,0.1c-0.1,0-0.2,0-0.4-0.1c-0.1-0.1-0.2-0.1-0.3-0.2
			s-0.2-0.2-0.2-0.3c-0.1-0.1-0.1-0.2-0.1-0.4s0-0.3,0.1-0.4c0.1-0.1,0.1-0.2,0.2-0.3s0.2-0.2,0.3-0.2c0.1-0.1,0.2-0.1,0.4-0.1
			c0.1,0,0.2,0,0.4,0.1s0.2,0.1,0.3,0.2c0.1,0.1,0.2,0.2,0.2,0.3C92.5,248.9,92.5,249,92.5,249.2z"/>
		<path id="XMLID_1558_" class="st5" d="M93.3,259.8l1-8.1H95c0.3,0,0.5,0.2,0.5,0.5l-0.1,1.4c0.4-0.7,0.8-1.2,1.3-1.5
			s1-0.5,1.5-0.5s1,0.2,1.2,0.6c0.3,0.4,0.4,0.9,0.4,1.6c0.4-0.7,0.9-1.3,1.4-1.6s1-0.5,1.6-0.5s1,0.2,1.3,0.6
			c0.3,0.4,0.4,0.9,0.4,1.7c0,0.1,0,0.3,0,0.4c0,0.1,0,0.3,0,0.4l-0.6,5.2h-1.4l0.6-5.2c0-0.3,0-0.5,0-0.7c0-0.4-0.1-0.7-0.2-0.9
			s-0.4-0.3-0.7-0.3c-0.2,0-0.5,0.1-0.7,0.2c-0.2,0.1-0.5,0.3-0.7,0.5s-0.4,0.5-0.6,0.8s-0.3,0.7-0.5,1.1l-0.5,4.4h-1.4l0.6-5.2
			c0-0.1,0-0.3,0-0.4s0-0.2,0-0.4c0-0.4-0.1-0.7-0.2-0.8c-0.1-0.2-0.3-0.3-0.7-0.3c-0.3,0-0.5,0.1-0.7,0.2s-0.5,0.3-0.7,0.6
			s-0.4,0.5-0.6,0.9c-0.2,0.3-0.3,0.7-0.5,1.2l-0.5,4.2h-1.2L93.3,259.8L93.3,259.8z"/>
		<path id="XMLID_1555_" class="st5" d="M111.8,259.8h-0.7c-0.2,0-0.3,0-0.4-0.1s-0.1-0.2-0.1-0.4l0.1-1.6c-0.2,0.3-0.4,0.6-0.6,0.9
			s-0.5,0.5-0.7,0.7s-0.5,0.3-0.8,0.4s-0.6,0.2-0.8,0.2c-0.3,0-0.6-0.1-0.9-0.2s-0.5-0.3-0.7-0.6c-0.2-0.2-0.3-0.5-0.4-0.9
			s-0.2-0.8-0.2-1.2c0-0.5,0.1-0.9,0.2-1.4s0.3-0.9,0.5-1.3c0.2-0.4,0.5-0.8,0.8-1.1s0.7-0.6,1-0.9c0.4-0.2,0.8-0.4,1.2-0.6
			c0.4-0.1,0.9-0.2,1.4-0.2c0.3,0,0.7,0,1,0.1s0.7,0.2,1,0.3L111.8,259.8z M108.3,258.7c0.3,0,0.5-0.1,0.8-0.2
			c0.3-0.2,0.5-0.4,0.7-0.7c0.2-0.3,0.4-0.6,0.6-1s0.4-0.8,0.5-1.3l0.3-2.7c-0.1-0.1-0.2-0.1-0.3-0.1c-0.1,0-0.2,0-0.3,0
			c-0.3,0-0.6,0.1-0.9,0.2c-0.3,0.1-0.6,0.2-0.8,0.4c-0.3,0.2-0.5,0.4-0.7,0.7s-0.4,0.5-0.5,0.8c-0.2,0.3-0.3,0.6-0.4,1
			c-0.1,0.3-0.1,0.7-0.1,1.1C107.1,258.1,107.5,258.7,108.3,258.7z"/>
		<path id="XMLID_1551_" class="st5" d="M119.9,253.9c0,0.3,0,0.5-0.1,0.7s-0.1,0.4-0.2,0.6s-0.2,0.4-0.3,0.5
			c-0.1,0.2-0.2,0.3-0.3,0.5c-0.1,0.2-0.2,0.3-0.2,0.5s-0.1,0.4-0.1,0.5c0,0.2,0.1,0.4,0.2,0.6s0.2,0.4,0.4,0.6
			c0.1,0.2,0.3,0.4,0.4,0.6s0.2,0.5,0.2,0.8c0,0.4-0.1,0.7-0.3,1.1c-0.2,0.3-0.4,0.6-0.8,0.9c-0.3,0.3-0.7,0.5-1.2,0.6
			s-1,0.2-1.6,0.2c-0.5,0-0.9,0-1.3-0.1s-0.7-0.2-1-0.4c-0.3-0.2-0.5-0.4-0.6-0.6s-0.2-0.5-0.2-0.8c0-0.4,0.1-0.8,0.3-1.1
			c0.2-0.3,0.5-0.6,0.9-0.8s0.8-0.3,1.2-0.4c0.5-0.1,0.9-0.1,1.4-0.1c0.2,0,0.4,0,0.6,0s0.4,0,0.6,0.1c0-0.1-0.1-0.2-0.1-0.3
			s0-0.2,0-0.4c0-0.2,0-0.3,0.1-0.5s0.1-0.4,0.3-0.6c-0.2,0.1-0.4,0.2-0.7,0.3c-0.3,0.1-0.5,0.1-0.9,0.1c-0.3,0-0.6-0.1-0.9-0.2
			s-0.5-0.3-0.7-0.4c-0.2-0.2-0.4-0.4-0.5-0.7s-0.2-0.6-0.2-1s0.1-0.8,0.2-1.1c0.1-0.4,0.3-0.7,0.6-1c0.3-0.3,0.6-0.5,1-0.7
			s0.9-0.3,1.4-0.3c0.6,0,1.1,0.1,1.5,0.4h2.2l-0.1,0.5c0,0.1,0,0.2-0.1,0.2s-0.1,0.1-0.2,0.1l-1,0.2c0,0.1,0.1,0.3,0.1,0.4
			C119.9,253.6,119.9,253.8,119.9,253.9z M118.4,260c0-0.1,0-0.3,0-0.4s-0.1-0.2-0.1-0.3c-0.3,0-0.6-0.1-0.8-0.1c-0.3,0-0.5,0-0.7,0
			c-0.4,0-0.8,0-1.1,0.1c-0.3,0.1-0.6,0.2-0.8,0.3c-0.2,0.1-0.4,0.3-0.5,0.4c-0.1,0.2-0.2,0.3-0.2,0.5c0,0.4,0.2,0.7,0.5,0.9
			c0.3,0.2,0.8,0.3,1.4,0.3c0.4,0,0.7,0,1-0.1s0.5-0.2,0.7-0.4s0.4-0.3,0.5-0.5C118.3,260.4,118.4,260.2,118.4,260z M116.8,256.1
			c0.3,0,0.5-0.1,0.8-0.2c0.2-0.1,0.4-0.3,0.6-0.5s0.3-0.4,0.3-0.7c0.1-0.3,0.1-0.5,0.1-0.8c0-0.5-0.1-0.8-0.4-1.1
			c-0.2-0.2-0.6-0.4-1-0.4c-0.3,0-0.5,0.1-0.8,0.2c-0.2,0.1-0.4,0.3-0.6,0.5s-0.3,0.4-0.3,0.7c-0.1,0.3-0.1,0.5-0.1,0.8
			c0,0.5,0.1,0.8,0.3,1.1C116.1,256,116.4,256.1,116.8,256.1z"/>
		<path id="XMLID_1548_" class="st5" d="M127.8,253.4c0,0.4-0.1,0.7-0.2,1s-0.4,0.6-0.8,0.8s-0.9,0.4-1.6,0.6
			c-0.7,0.2-1.5,0.3-2.6,0.4c0,0.1,0,0.1,0,0.2s0,0.1,0,0.2c0,0.7,0.2,1.3,0.5,1.6c0.3,0.4,0.8,0.6,1.4,0.6c0.3,0,0.5,0,0.7-0.1
			s0.4-0.1,0.5-0.2c0.2-0.1,0.3-0.2,0.4-0.3s0.2-0.2,0.3-0.3s0.2-0.1,0.3-0.2c0.1-0.1,0.2-0.1,0.3-0.1c0.1,0,0.2,0,0.3,0.1l0.4,0.4
			c-0.3,0.3-0.5,0.5-0.8,0.7s-0.5,0.4-0.8,0.5s-0.6,0.2-0.9,0.3s-0.6,0.1-1,0.1c-0.5,0-0.9-0.1-1.2-0.2c-0.4-0.2-0.7-0.4-0.9-0.7
			c-0.3-0.3-0.5-0.6-0.6-1s-0.2-0.9-0.2-1.4c0-0.4,0-0.8,0.1-1.2s0.2-0.8,0.4-1.2c0.2-0.4,0.4-0.7,0.6-1s0.5-0.6,0.8-0.8
			s0.7-0.4,1-0.5s0.8-0.2,1.2-0.2c0.4,0,0.8,0.1,1.1,0.2s0.5,0.3,0.7,0.4c0.2,0.2,0.3,0.4,0.4,0.6
			C127.8,253,127.8,253.2,127.8,253.4z M125.4,252.6c-0.3,0-0.6,0.1-0.9,0.2c-0.3,0.1-0.5,0.3-0.8,0.6s-0.4,0.5-0.6,0.9
			c-0.2,0.3-0.3,0.7-0.4,1.1c0.8-0.1,1.5-0.2,2-0.3s0.9-0.3,1.1-0.4s0.4-0.3,0.5-0.5s0.1-0.4,0.1-0.6c0-0.1,0-0.2-0.1-0.3
			s-0.1-0.2-0.2-0.3s-0.2-0.2-0.4-0.2S125.6,252.6,125.4,252.6z"/>
		<path id="XMLID_1546_" class="st5" d="M130.1,258.7h2.5l1-8l0.1-0.6l-2.3,1.8c-0.1,0.1-0.2,0.1-0.3,0.1s-0.2,0-0.2-0.1
			c-0.1,0-0.1-0.1-0.1-0.1l-0.4-0.6l3.8-3h1.1l-1.3,10.4h2.3l-0.1,1.1H130L130.1,258.7z"/>
		<path id="XMLID_1544_" class="st5" d="M137.8,258.9c0-0.1,0-0.3,0.1-0.4s0.1-0.2,0.2-0.3c0.1-0.1,0.2-0.2,0.3-0.2
			c0.1-0.1,0.3-0.1,0.4-0.1c0.1,0,0.3,0,0.4,0.1c0.1,0.1,0.2,0.1,0.3,0.2s0.2,0.2,0.2,0.3c0.1,0.1,0.1,0.3,0.1,0.4s0,0.3-0.1,0.4
			s-0.1,0.2-0.2,0.3c-0.1,0.1-0.2,0.2-0.3,0.2s-0.2,0.1-0.4,0.1c-0.1,0-0.3,0-0.4-0.1s-0.2-0.1-0.3-0.2s-0.2-0.2-0.2-0.3
			S137.8,259.1,137.8,258.9z"/>
		<path id="XMLID_1541_" class="st5" d="M141.1,262.5l1.3-10.9h0.7c0.3,0,0.5,0.2,0.5,0.5l-0.1,1.7c0.2-0.4,0.4-0.7,0.7-1
			c0.2-0.3,0.5-0.5,0.8-0.7s0.5-0.4,0.8-0.5s0.6-0.2,0.9-0.2c0.7,0,1.2,0.3,1.6,0.8c0.4,0.5,0.6,1.2,0.6,2.2c0,0.4,0,0.9-0.1,1.3
			c-0.1,0.4-0.2,0.9-0.4,1.3s-0.4,0.8-0.6,1.1c-0.2,0.3-0.5,0.6-0.8,0.9s-0.6,0.5-0.9,0.6c-0.3,0.1-0.7,0.2-1.1,0.2
			c-0.4,0-0.8-0.1-1.1-0.2c-0.3-0.2-0.6-0.4-0.8-0.7l-0.4,3.5h-1.6L141.1,262.5L141.1,262.5z M146,252.7c-0.3,0-0.5,0.1-0.8,0.2
			c-0.3,0.2-0.5,0.4-0.8,0.7c-0.2,0.3-0.5,0.6-0.7,1s-0.4,0.8-0.5,1.3L143,258c0.2,0.3,0.4,0.5,0.7,0.6s0.6,0.2,0.9,0.2
			c0.3,0,0.5-0.1,0.8-0.2s0.5-0.3,0.7-0.5s0.4-0.4,0.5-0.7c0.2-0.3,0.3-0.6,0.4-0.9s0.2-0.6,0.3-1s0.1-0.7,0.1-1
			c0-0.6-0.1-1.1-0.3-1.4S146.5,252.7,146,252.7z"/>
		<path id="XMLID_1539_" class="st5" d="M149.7,259.8l1-8.1h0.7c0.3,0,0.5,0.2,0.5,0.5l-0.1,1.6c0.4-0.7,0.9-1.3,1.5-1.6
			c0.5-0.4,1.1-0.5,1.7-0.5c0.6,0,1.1,0.2,1.4,0.6c0.3,0.4,0.5,1,0.5,1.8c0,0.1,0,0.2,0,0.3s0,0.2,0,0.4l-0.6,5.2h-1.4l0.6-5.2
			c0-0.1,0-0.2,0-0.3s0-0.2,0-0.3c0-0.4-0.1-0.8-0.2-1c-0.2-0.2-0.4-0.3-0.8-0.3c-0.3,0-0.5,0.1-0.8,0.2c-0.3,0.1-0.5,0.3-0.8,0.6
			c-0.2,0.3-0.5,0.6-0.7,0.9c-0.2,0.4-0.4,0.8-0.5,1.2l-0.5,4.1h-1.5L149.7,259.8L149.7,259.8z"/>
		<path id="XMLID_1535_" class="st5" d="M164.1,253.9c0,0.3,0,0.5-0.1,0.7s-0.1,0.4-0.2,0.6s-0.2,0.4-0.3,0.5
			c-0.1,0.2-0.2,0.3-0.3,0.5s-0.2,0.3-0.2,0.5s-0.1,0.4-0.1,0.5c0,0.2,0.1,0.4,0.2,0.6c0.1,0.2,0.2,0.4,0.4,0.6
			c0.1,0.2,0.3,0.4,0.4,0.6s0.2,0.5,0.2,0.8c0,0.4-0.1,0.7-0.3,1.1c-0.2,0.3-0.4,0.6-0.8,0.9c-0.3,0.3-0.7,0.5-1.2,0.6
			s-1,0.2-1.6,0.2c-0.5,0-0.9,0-1.3-0.1c-0.4-0.1-0.7-0.2-1-0.4c-0.3-0.2-0.5-0.4-0.6-0.6s-0.2-0.5-0.2-0.8c0-0.4,0.1-0.8,0.3-1.1
			c0.2-0.3,0.5-0.6,0.9-0.8s0.8-0.3,1.2-0.4c0.5-0.1,0.9-0.1,1.4-0.1c0.2,0,0.4,0,0.6,0c0.2,0,0.4,0,0.6,0.1c0-0.1-0.1-0.2-0.1-0.3
			s0-0.2,0-0.4c0-0.2,0-0.3,0.1-0.5s0.1-0.4,0.3-0.6c-0.2,0.1-0.4,0.2-0.7,0.3c-0.3,0.1-0.5,0.1-0.9,0.1c-0.3,0-0.6-0.1-0.9-0.2
			c-0.3-0.1-0.5-0.3-0.7-0.4c-0.2-0.2-0.4-0.4-0.5-0.7s-0.2-0.6-0.2-1s0.1-0.8,0.2-1.1c0.1-0.4,0.3-0.7,0.6-1s0.6-0.5,1-0.7
			s0.9-0.3,1.4-0.3c0.6,0,1.1,0.1,1.5,0.4h2.2l-0.1,0.5c0,0.1,0,0.2-0.1,0.2s-0.1,0.1-0.2,0.1l-1,0.2c0,0.1,0.1,0.3,0.1,0.4
			C164.1,253.6,164.1,253.8,164.1,253.9z M162.6,260c0-0.1,0-0.3,0-0.4s-0.1-0.2-0.1-0.3c-0.3,0-0.6-0.1-0.8-0.1c-0.3,0-0.5,0-0.7,0
			c-0.4,0-0.8,0-1.1,0.1s-0.6,0.2-0.8,0.3c-0.2,0.1-0.4,0.3-0.5,0.4c-0.1,0.2-0.2,0.3-0.2,0.5c0,0.4,0.2,0.7,0.5,0.9
			c0.3,0.2,0.8,0.3,1.4,0.3c0.4,0,0.7,0,1-0.1s0.5-0.2,0.7-0.4s0.4-0.3,0.5-0.5C162.5,260.4,162.6,260.2,162.6,260z M161,256.1
			c0.3,0,0.5-0.1,0.8-0.2c0.2-0.1,0.4-0.3,0.6-0.5c0.2-0.2,0.3-0.4,0.3-0.7c0.1-0.3,0.1-0.5,0.1-0.8c0-0.5-0.1-0.8-0.4-1.1
			c-0.2-0.2-0.6-0.4-1-0.4c-0.3,0-0.5,0.1-0.8,0.2c-0.2,0.1-0.4,0.3-0.6,0.5s-0.3,0.4-0.3,0.7c-0.1,0.3-0.1,0.5-0.1,0.8
			c0,0.5,0.1,0.8,0.3,1.1C160.3,256,160.6,256.1,161,256.1z"/>
		<path id="XMLID_1532_" class="st5" d="M92,273.3l-1,8.1h-1.4l1-8.1H92z M92.5,270.8c0,0.1,0,0.3-0.1,0.4s-0.1,0.2-0.2,0.3
			c-0.1,0.1-0.2,0.2-0.3,0.2c-0.1,0.1-0.2,0.1-0.4,0.1c-0.1,0-0.2,0-0.4-0.1c-0.1-0.1-0.2-0.1-0.3-0.2c-0.1-0.1-0.2-0.2-0.2-0.3
			c-0.1-0.1-0.1-0.2-0.1-0.4c0-0.1,0-0.3,0.1-0.4s0.1-0.2,0.2-0.3c0.1-0.1,0.2-0.2,0.3-0.2s0.2-0.1,0.4-0.1c0.1,0,0.2,0,0.4,0.1
			c0.1,0.1,0.2,0.1,0.3,0.2c0.1,0.1,0.2,0.2,0.2,0.3C92.5,270.5,92.5,270.6,92.5,270.8z"/>
		<path id="XMLID_1530_" class="st5" d="M93.3,281.4l1-8.1H95c0.3,0,0.5,0.2,0.5,0.5l-0.1,1.4c0.4-0.7,0.8-1.2,1.3-1.5
			s1-0.5,1.5-0.5s1,0.2,1.2,0.6c0.3,0.4,0.4,0.9,0.4,1.6c0.4-0.7,0.9-1.3,1.4-1.6c0.5-0.4,1-0.5,1.6-0.5s1,0.2,1.3,0.6
			s0.4,0.9,0.4,1.7c0,0.1,0,0.3,0,0.4s0,0.3,0,0.4l-0.6,5.2h-1.4l0.6-5.2c0-0.3,0-0.5,0-0.7c0-0.4-0.1-0.7-0.2-0.9
			c-0.1-0.2-0.4-0.3-0.7-0.3c-0.2,0-0.5,0.1-0.7,0.2s-0.5,0.3-0.7,0.5s-0.4,0.5-0.6,0.8s-0.3,0.7-0.5,1.1l-0.5,4.4h-1.4l0.6-5.2
			c0-0.1,0-0.3,0-0.4s0-0.2,0-0.4c0-0.4-0.1-0.7-0.2-0.8c-0.1-0.2-0.3-0.3-0.7-0.3c-0.3,0-0.5,0.1-0.7,0.2s-0.5,0.3-0.7,0.6
			c-0.2,0.2-0.4,0.5-0.6,0.9c-0.2,0.3-0.3,0.7-0.5,1.2l-0.5,4.2h-1.2L93.3,281.4L93.3,281.4z"/>
		<path id="XMLID_1527_" class="st5" d="M111.8,281.4h-0.7c-0.2,0-0.3,0-0.4-0.1s-0.1-0.2-0.1-0.4l0.1-1.6c-0.2,0.3-0.4,0.6-0.6,0.9
			s-0.5,0.5-0.7,0.7s-0.5,0.3-0.8,0.4s-0.6,0.2-0.8,0.2c-0.3,0-0.6-0.1-0.9-0.2s-0.5-0.3-0.7-0.6c-0.2-0.2-0.3-0.5-0.4-0.9
			s-0.2-0.8-0.2-1.2c0-0.5,0.1-0.9,0.2-1.4s0.3-0.9,0.5-1.3s0.5-0.8,0.8-1.1s0.7-0.6,1-0.9c0.4-0.2,0.8-0.4,1.2-0.6
			c0.4-0.1,0.9-0.2,1.4-0.2c0.3,0,0.7,0,1,0.1s0.7,0.2,1,0.3L111.8,281.4z M108.3,280.3c0.3,0,0.5-0.1,0.8-0.2
			c0.3-0.2,0.5-0.4,0.7-0.7c0.2-0.3,0.4-0.6,0.6-1s0.4-0.8,0.5-1.3l0.3-2.7c-0.1-0.1-0.2-0.1-0.3-0.1c-0.1,0-0.2,0-0.3,0
			c-0.3,0-0.6,0.1-0.9,0.2s-0.6,0.2-0.8,0.4c-0.3,0.2-0.5,0.4-0.7,0.7c-0.2,0.3-0.4,0.5-0.5,0.8s-0.3,0.6-0.4,1
			c-0.1,0.3-0.1,0.7-0.1,1.1C107.1,279.7,107.5,280.3,108.3,280.3z"/>
		<path id="XMLID_1523_" class="st5" d="M119.9,275.5c0,0.3,0,0.5-0.1,0.7s-0.1,0.4-0.2,0.6s-0.2,0.4-0.3,0.5
			c-0.1,0.2-0.2,0.3-0.3,0.5c-0.1,0.2-0.2,0.3-0.2,0.5s-0.1,0.4-0.1,0.5c0,0.2,0.1,0.4,0.2,0.6s0.2,0.4,0.4,0.6
			c0.1,0.2,0.3,0.4,0.4,0.6s0.2,0.5,0.2,0.8c0,0.4-0.1,0.7-0.3,1.1s-0.4,0.6-0.8,0.9c-0.3,0.3-0.7,0.5-1.2,0.6
			c-0.5,0.2-1,0.2-1.6,0.2c-0.5,0-0.9,0-1.3-0.1s-0.7-0.2-1-0.4c-0.3-0.2-0.5-0.4-0.6-0.6s-0.2-0.5-0.2-0.8c0-0.4,0.1-0.8,0.3-1.1
			c0.2-0.3,0.5-0.6,0.9-0.8s0.8-0.3,1.2-0.4s0.9-0.1,1.4-0.1c0.2,0,0.4,0,0.6,0s0.4,0,0.6,0.1c0-0.1-0.1-0.2-0.1-0.3
			c0-0.1,0-0.2,0-0.4c0-0.2,0-0.3,0.1-0.5s0.1-0.4,0.3-0.6c-0.2,0.1-0.4,0.2-0.7,0.3c-0.3,0.1-0.5,0.1-0.9,0.1
			c-0.3,0-0.6-0.1-0.9-0.2s-0.5-0.3-0.7-0.4c-0.2-0.2-0.4-0.4-0.5-0.7c-0.1-0.3-0.2-0.6-0.2-1s0.1-0.8,0.2-1.1
			c0.1-0.4,0.3-0.7,0.6-1c0.3-0.3,0.6-0.5,1-0.7s0.9-0.3,1.4-0.3c0.6,0,1.1,0.1,1.5,0.4h2.2l-0.1,0.5c0,0.1,0,0.2-0.1,0.2
			c-0.1,0.1-0.1,0.1-0.2,0.1l-1,0.2c0,0.1,0.1,0.3,0.1,0.4C119.9,275.2,119.9,275.4,119.9,275.5z M118.4,281.6c0-0.1,0-0.3,0-0.4
			s-0.1-0.2-0.1-0.3c-0.3,0-0.6-0.1-0.8-0.1s-0.5,0-0.7,0c-0.4,0-0.8,0-1.1,0.1c-0.3,0.1-0.6,0.2-0.8,0.3s-0.4,0.3-0.5,0.4
			c-0.1,0.2-0.2,0.3-0.2,0.5c0,0.4,0.2,0.7,0.5,0.9c0.3,0.2,0.8,0.3,1.4,0.3c0.4,0,0.7,0,1-0.1s0.5-0.2,0.7-0.4
			c0.2-0.2,0.4-0.3,0.5-0.5C118.3,282,118.4,281.8,118.4,281.6z M116.8,277.7c0.3,0,0.5-0.1,0.8-0.2c0.2-0.1,0.4-0.3,0.6-0.5
			s0.3-0.4,0.3-0.7c0.1-0.3,0.1-0.5,0.1-0.8c0-0.5-0.1-0.8-0.4-1.1s-0.6-0.4-1-0.4c-0.3,0-0.5,0.1-0.8,0.2s-0.4,0.3-0.6,0.5
			s-0.3,0.4-0.3,0.7c-0.1,0.3-0.1,0.5-0.1,0.8c0,0.5,0.1,0.8,0.3,1.1C116.1,277.6,116.4,277.7,116.8,277.7z"/>
		<path id="XMLID_1520_" class="st5" d="M127.8,275c0,0.4-0.1,0.7-0.2,1s-0.4,0.6-0.8,0.8s-0.9,0.4-1.6,0.6s-1.5,0.3-2.6,0.4
			c0,0.1,0,0.1,0,0.2s0,0.1,0,0.2c0,0.7,0.2,1.3,0.5,1.6c0.3,0.4,0.8,0.6,1.4,0.6c0.3,0,0.5,0,0.7-0.1s0.4-0.1,0.5-0.2
			s0.3-0.2,0.4-0.3c0.1-0.1,0.2-0.2,0.3-0.3s0.2-0.1,0.3-0.2c0.1-0.1,0.2-0.1,0.3-0.1c0.1,0,0.2,0,0.3,0.1l0.4,0.4
			c-0.3,0.3-0.5,0.5-0.8,0.7s-0.5,0.4-0.8,0.5s-0.6,0.2-0.9,0.3c-0.3,0.1-0.6,0.1-1,0.1c-0.5,0-0.9-0.1-1.2-0.2s-0.7-0.4-0.9-0.7
			c-0.3-0.3-0.5-0.6-0.6-1s-0.2-0.9-0.2-1.4c0-0.4,0-0.8,0.1-1.2c0.1-0.4,0.2-0.8,0.4-1.2c0.2-0.4,0.4-0.7,0.6-1s0.5-0.6,0.8-0.8
			c0.3-0.2,0.7-0.4,1-0.5c0.4-0.1,0.8-0.2,1.2-0.2c0.4,0,0.8,0.1,1.1,0.2s0.5,0.3,0.7,0.4c0.2,0.2,0.3,0.4,0.4,0.6
			C127.8,274.6,127.8,274.8,127.8,275z M125.4,274.2c-0.3,0-0.6,0.1-0.9,0.2s-0.5,0.3-0.8,0.6c-0.2,0.2-0.4,0.5-0.6,0.9
			c-0.2,0.3-0.3,0.7-0.4,1.1c0.8-0.1,1.5-0.2,2-0.3c0.5-0.1,0.9-0.3,1.1-0.4c0.3-0.2,0.4-0.3,0.5-0.5s0.1-0.4,0.1-0.6
			c0-0.1,0-0.2-0.1-0.3c0-0.1-0.1-0.2-0.2-0.3c-0.1-0.1-0.2-0.2-0.4-0.2C125.8,274.2,125.6,274.2,125.4,274.2z"/>
		<path id="XMLID_1518_" class="st5" d="M133.9,269.8c0.4,0,0.9,0.1,1.2,0.2c0.4,0.1,0.7,0.3,1,0.5s0.5,0.5,0.6,0.9
			c0.2,0.3,0.2,0.7,0.2,1.2s-0.1,0.9-0.2,1.3c-0.2,0.4-0.4,0.8-0.6,1.1c-0.3,0.4-0.6,0.7-0.9,1c-0.3,0.3-0.7,0.7-1.1,1l-3.4,3.1
			c0.2-0.1,0.4-0.1,0.7-0.1s0.4,0,0.6,0h3.9c0.1,0,0.2,0,0.3,0.1s0.1,0.2,0.1,0.3c0,0.1,0,0.1,0,0.2s0,0.2,0,0.2l-0.1,0.4h-7.6
			l0.1-0.5c0-0.1,0-0.2,0.1-0.3c0.1-0.1,0.1-0.2,0.2-0.3l4.1-3.7c0.4-0.3,0.7-0.7,1-1s0.6-0.6,0.8-0.9s0.4-0.6,0.5-0.9
			s0.2-0.7,0.2-1s0-0.5-0.1-0.8s-0.2-0.4-0.4-0.5s-0.4-0.3-0.6-0.3c-0.2-0.1-0.5-0.1-0.7-0.1c-0.6,0-1.1,0.2-1.5,0.5
			s-0.7,0.7-0.9,1.3c-0.1,0.2-0.1,0.3-0.2,0.3c-0.1,0.1-0.2,0.1-0.3,0.1h-0.1h-0.1L130,273c0.1-0.5,0.3-1,0.6-1.4s0.6-0.7,0.9-1
			c0.4-0.3,0.8-0.5,1.2-0.6C132.9,269.9,133.4,269.8,133.9,269.8z"/>
		<path id="XMLID_1516_" class="st5" d="M137.8,280.5c0-0.1,0-0.3,0.1-0.4s0.1-0.2,0.2-0.3c0.1-0.1,0.2-0.2,0.3-0.2
			c0.1-0.1,0.3-0.1,0.4-0.1c0.1,0,0.3,0,0.4,0.1c0.1,0.1,0.2,0.1,0.3,0.2s0.2,0.2,0.2,0.3c0.1,0.1,0.1,0.3,0.1,0.4s0,0.3-0.1,0.4
			s-0.1,0.2-0.2,0.3c-0.1,0.1-0.2,0.2-0.3,0.2s-0.2,0.1-0.4,0.1c-0.1,0-0.3,0-0.4-0.1s-0.2-0.1-0.3-0.2s-0.2-0.2-0.2-0.3
			C137.8,280.8,137.8,280.7,137.8,280.5z"/>
		<path id="XMLID_1513_" class="st5" d="M141.1,284.1l1.3-10.9h0.7c0.3,0,0.5,0.2,0.5,0.5l-0.1,1.7c0.2-0.4,0.4-0.7,0.7-1
			c0.2-0.3,0.5-0.5,0.8-0.7s0.5-0.4,0.8-0.5s0.6-0.2,0.9-0.2c0.7,0,1.2,0.2,1.6,0.8c0.4,0.5,0.6,1.2,0.6,2.2c0,0.4,0,0.9-0.1,1.3
			s-0.2,0.9-0.4,1.3s-0.4,0.8-0.6,1.1c-0.2,0.3-0.5,0.6-0.8,0.9s-0.6,0.5-0.9,0.6c-0.3,0.1-0.7,0.2-1.1,0.2c-0.4,0-0.8-0.1-1.1-0.2
			c-0.3-0.2-0.6-0.4-0.8-0.7l-0.4,3.5h-1.6L141.1,284.1L141.1,284.1z M146,274.3c-0.3,0-0.5,0.1-0.8,0.2s-0.5,0.4-0.8,0.7
			c-0.2,0.3-0.5,0.6-0.7,1s-0.4,0.8-0.5,1.3l-0.3,2.1c0.2,0.3,0.4,0.5,0.7,0.6s0.6,0.2,0.9,0.2c0.3,0,0.5-0.1,0.8-0.2
			s0.5-0.3,0.7-0.5s0.4-0.4,0.5-0.7c0.2-0.3,0.3-0.6,0.4-0.9s0.2-0.6,0.3-1s0.1-0.7,0.1-1c0-0.6-0.1-1.1-0.3-1.4
			S146.5,274.3,146,274.3z"/>
		<path id="XMLID_1511_" class="st5" d="M149.7,281.4l1-8.1h0.7c0.3,0,0.5,0.2,0.5,0.5l-0.1,1.6c0.4-0.7,0.9-1.3,1.5-1.6
			c0.5-0.4,1.1-0.5,1.7-0.5c0.6,0,1.1,0.2,1.4,0.6c0.3,0.4,0.5,1,0.5,1.8c0,0.1,0,0.2,0,0.3c0,0.1,0,0.2,0,0.4l-0.6,5.2h-1.4
			l0.6-5.2c0-0.1,0-0.2,0-0.3s0-0.2,0-0.3c0-0.4-0.1-0.8-0.2-1c-0.2-0.2-0.4-0.3-0.8-0.3c-0.3,0-0.5,0.1-0.8,0.2s-0.5,0.3-0.8,0.6
			c-0.2,0.3-0.5,0.6-0.7,0.9c-0.2,0.4-0.4,0.8-0.5,1.2l-0.5,4.1h-1.5L149.7,281.4L149.7,281.4z"/>
		<path id="XMLID_1507_" class="st5" d="M164.1,275.5c0,0.3,0,0.5-0.1,0.7s-0.1,0.4-0.2,0.6s-0.2,0.4-0.3,0.5
			c-0.1,0.2-0.2,0.3-0.3,0.5s-0.2,0.3-0.2,0.5s-0.1,0.4-0.1,0.5c0,0.2,0.1,0.4,0.2,0.6c0.1,0.2,0.2,0.4,0.4,0.6
			c0.1,0.2,0.3,0.4,0.4,0.6s0.2,0.5,0.2,0.8c0,0.4-0.1,0.7-0.3,1.1s-0.4,0.6-0.8,0.9c-0.3,0.3-0.7,0.5-1.2,0.6
			c-0.5,0.2-1,0.2-1.6,0.2c-0.5,0-0.9,0-1.3-0.1c-0.4-0.1-0.7-0.2-1-0.4c-0.3-0.2-0.5-0.4-0.6-0.6s-0.2-0.5-0.2-0.8
			c0-0.4,0.1-0.8,0.3-1.1c0.2-0.3,0.5-0.6,0.9-0.8s0.8-0.3,1.2-0.4s0.9-0.1,1.4-0.1c0.2,0,0.4,0,0.6,0c0.2,0,0.4,0,0.6,0.1
			c0-0.1-0.1-0.2-0.1-0.3c0-0.1,0-0.2,0-0.4c0-0.2,0-0.3,0.1-0.5s0.1-0.4,0.3-0.6c-0.2,0.1-0.4,0.2-0.7,0.3
			c-0.3,0.1-0.5,0.1-0.9,0.1c-0.3,0-0.6-0.1-0.9-0.2s-0.5-0.3-0.7-0.4c-0.2-0.2-0.4-0.4-0.5-0.7c-0.1-0.3-0.2-0.6-0.2-1
			s0.1-0.8,0.2-1.1c0.1-0.4,0.3-0.7,0.6-1s0.6-0.5,1-0.7s0.9-0.3,1.4-0.3c0.6,0,1.1,0.1,1.5,0.4h2.2l-0.1,0.5c0,0.1,0,0.2-0.1,0.2
			c-0.1,0.1-0.1,0.1-0.2,0.1l-1,0.2c0,0.1,0.1,0.3,0.1,0.4C164.1,275.2,164.1,275.4,164.1,275.5z M162.6,281.6c0-0.1,0-0.3,0-0.4
			s-0.1-0.2-0.1-0.3c-0.3,0-0.6-0.1-0.8-0.1s-0.5,0-0.7,0c-0.4,0-0.8,0-1.1,0.1s-0.6,0.2-0.8,0.3s-0.4,0.3-0.5,0.4
			c-0.1,0.2-0.2,0.3-0.2,0.5c0,0.4,0.2,0.7,0.5,0.9c0.3,0.2,0.8,0.3,1.4,0.3c0.4,0,0.7,0,1-0.1s0.5-0.2,0.7-0.4
			c0.2-0.2,0.4-0.3,0.5-0.5C162.5,282,162.6,281.8,162.6,281.6z M161,277.7c0.3,0,0.5-0.1,0.8-0.2c0.2-0.1,0.4-0.3,0.6-0.5
			s0.3-0.4,0.3-0.7c0.1-0.3,0.1-0.5,0.1-0.8c0-0.5-0.1-0.8-0.4-1.1s-0.6-0.4-1-0.4c-0.3,0-0.5,0.1-0.8,0.2s-0.4,0.3-0.6,0.5
			s-0.3,0.4-0.3,0.7c-0.1,0.3-0.1,0.5-0.1,0.8c0,0.5,0.1,0.8,0.3,1.1C160.3,277.6,160.6,277.7,161,277.7z"/>
	</g>
</g>
<polygon id="XMLID_228_" class="st6" points="314.1,134.1 242,98.1 314.1,62 386.2,98.1 "/>
<polygon id="XMLID_227_" class="st7" points="314.1,170.2 242,134.1 242,98.1 314.1,134.1 "/>
<polygon id="XMLID_225_" class="st8" points="314.1,170.2 386.2,134.1 386.2,98.1 314.1,134.1 "/>
<polygon id="XMLID_224_" class="st6" points="314.1,375.1 242,339.1 314.1,303 386.2,339.1 "/>
<polygon id="XMLID_223_" class="st7" points="314.1,303 386.2,339.1 386.2,375.1 314.1,339.1 "/>
<polygon id="XMLID_222_" class="st8" points="314.1,303 242,339.1 242,375.1 314.1,339.1 "/>
<polygon id="XMLID_219_" class="st7" points="314.1,411.2 242,375.1 242,339.1 314.1,375.1 "/>
<polygon id="XMLID_204_" class="st8" points="314.1,411.2 386.2,375.1 386.2,339.1 314.1,375.1 "/>
<g id="XMLID_198_">
	<g id="XMLID_276_">
		<line id="XMLID_287_" class="st9" x1="243" y1="336" x2="243" y2="138"/>
	</g>
</g>
<g id="XMLID_117_">
	<g id="XMLID_229_">
		<line id="XMLID_239_" class="st10" x1="385" y1="137" x2="385" y2="338"/>
	</g>
</g>
<path id="XMLID_112_" class="st6" d="M314.1,303L242,339.1l72.1,36.1l72.1-36.1L314.1,303z M258,339.1l56-28l56,28l-56,28L258,339.1
	z"/>
<g id="XMLID_270_">
	<g id="XMLID_1064_">
		<path id="XMLID_1110_" class="st7" d="M275.8,195h-0.7c-0.2,0-0.3,0-0.4-0.1s-0.1-0.2-0.1-0.4l0.1-1.6c-0.2,0.3-0.4,0.6-0.6,0.9
			s-0.5,0.5-0.7,0.7s-0.5,0.3-0.8,0.4c-0.3,0.1-0.6,0.2-0.8,0.2c-0.3,0-0.6-0.1-0.9-0.2c-0.3-0.1-0.5-0.3-0.7-0.6
			c-0.2-0.2-0.3-0.5-0.4-0.9s-0.2-0.8-0.2-1.2c0-0.5,0.1-0.9,0.2-1.4s0.3-0.9,0.5-1.3c0.2-0.4,0.5-0.8,0.8-1.1s0.7-0.6,1-0.9
			c0.4-0.2,0.8-0.4,1.2-0.6c0.4-0.1,0.9-0.2,1.4-0.2c0.3,0,0.7,0,1,0.1s0.7,0.2,1,0.3L275.8,195z M272.3,193.9
			c0.3,0,0.5-0.1,0.8-0.2c0.3-0.2,0.5-0.4,0.7-0.7s0.4-0.6,0.6-1s0.4-0.8,0.5-1.3l0.3-2.7c-0.1-0.1-0.2-0.1-0.3-0.1
			c-0.1,0-0.2,0-0.3,0c-0.3,0-0.6,0.1-0.9,0.2c-0.3,0.1-0.6,0.2-0.8,0.4c-0.3,0.2-0.5,0.4-0.7,0.7s-0.4,0.5-0.5,0.8
			c-0.2,0.3-0.3,0.6-0.4,1c-0.1,0.3-0.1,0.7-0.1,1.1C271.1,193.3,271.5,193.9,272.3,193.9z"/>
		<path id="XMLID_1107_" class="st7" d="M277.6,197.7l1.3-10.9h0.7c0.3,0,0.5,0.2,0.5,0.5L280,189c0.2-0.4,0.4-0.7,0.7-1
			c0.2-0.3,0.5-0.5,0.8-0.7s0.5-0.4,0.8-0.5s0.6-0.2,0.9-0.2c0.7,0,1.2,0.3,1.6,0.8s0.6,1.2,0.6,2.2c0,0.4,0,0.9-0.1,1.3
			c-0.1,0.4-0.2,0.9-0.4,1.3s-0.4,0.8-0.6,1.1s-0.5,0.6-0.8,0.9c-0.3,0.3-0.6,0.5-0.9,0.6s-0.7,0.2-1.1,0.2s-0.8-0.1-1.1-0.2
			c-0.3-0.2-0.6-0.4-0.8-0.7l-0.4,3.5L277.6,197.7L277.6,197.7z M282.6,187.9c-0.3,0-0.5,0.1-0.8,0.2c-0.3,0.2-0.5,0.4-0.8,0.7
			c-0.2,0.3-0.5,0.6-0.7,1s-0.4,0.8-0.5,1.3l-0.3,2.1c0.2,0.3,0.4,0.5,0.7,0.6c0.3,0.1,0.6,0.2,0.9,0.2s0.5-0.1,0.8-0.2
			s0.5-0.3,0.7-0.5s0.4-0.4,0.5-0.7c0.2-0.3,0.3-0.6,0.4-0.9s0.2-0.6,0.3-1s0.1-0.7,0.1-1c0-0.6-0.1-1.1-0.3-1.4
			S283,187.9,282.6,187.9z"/>
		<path id="XMLID_1104_" class="st7" d="M285.9,197.7l1.3-10.9h0.7c0.3,0,0.5,0.2,0.5,0.5l-0.1,1.7c0.2-0.4,0.4-0.7,0.7-1
			c0.2-0.3,0.5-0.5,0.8-0.7s0.5-0.4,0.8-0.5s0.6-0.2,0.9-0.2c0.7,0,1.2,0.3,1.6,0.8s0.6,1.2,0.6,2.2c0,0.4,0,0.9-0.1,1.3
			c-0.1,0.4-0.2,0.9-0.4,1.3s-0.4,0.8-0.6,1.1s-0.5,0.6-0.8,0.9c-0.3,0.3-0.6,0.5-0.9,0.6s-0.7,0.2-1.1,0.2s-0.8-0.1-1.1-0.2
			c-0.3-0.2-0.6-0.4-0.8-0.7l-0.4,3.5L285.9,197.7L285.9,197.7z M290.9,187.9c-0.3,0-0.5,0.1-0.8,0.2c-0.3,0.2-0.5,0.4-0.8,0.7
			c-0.2,0.3-0.5,0.6-0.7,1s-0.4,0.8-0.5,1.3l-0.3,2.1c0.2,0.3,0.4,0.5,0.7,0.6c0.3,0.1,0.6,0.2,0.9,0.2s0.5-0.1,0.8-0.2
			s0.5-0.3,0.7-0.5s0.4-0.4,0.5-0.7c0.2-0.3,0.3-0.6,0.4-0.9s0.2-0.6,0.3-1s0.1-0.7,0.1-1c0-0.6-0.1-1.1-0.3-1.4
			S291.3,187.9,290.9,187.9z"/>
		<path id="XMLID_1102_" class="st7" d="M294.7,195.2c-0.1,0.2-0.2,0.3-0.4,0.4c-0.2,0.1-0.3,0.1-0.4,0.1h-0.6l5.8-11.8
			c0.1-0.2,0.2-0.3,0.3-0.4s0.3-0.1,0.5-0.1h0.6L294.7,195.2z"/>
		<path id="XMLID_1099_" class="st7" d="M269.5,219.3l1.3-10.9h0.7c0.3,0,0.5,0.2,0.5,0.5l-0.1,1.7c0.2-0.4,0.4-0.7,0.7-1
			c0.2-0.3,0.5-0.5,0.8-0.7s0.5-0.4,0.8-0.5s0.6-0.2,0.9-0.2c0.7,0,1.2,0.3,1.6,0.8s0.6,1.2,0.6,2.2c0,0.4,0,0.9-0.1,1.3
			c-0.1,0.4-0.2,0.9-0.4,1.3s-0.4,0.8-0.6,1.1s-0.5,0.6-0.8,0.9c-0.3,0.3-0.6,0.5-0.9,0.6s-0.7,0.2-1.1,0.2s-0.8-0.1-1.1-0.2
			c-0.3-0.2-0.6-0.4-0.8-0.7l-0.4,3.5L269.5,219.3L269.5,219.3z M274.5,209.5c-0.3,0-0.5,0.1-0.8,0.2c-0.3,0.2-0.5,0.4-0.8,0.7
			c-0.2,0.3-0.5,0.6-0.7,1s-0.4,0.8-0.5,1.3l-0.3,2.1c0.2,0.3,0.4,0.5,0.7,0.6c0.3,0.1,0.6,0.2,0.9,0.2s0.5-0.1,0.8-0.2
			s0.5-0.3,0.7-0.5s0.4-0.4,0.5-0.7c0.2-0.3,0.3-0.6,0.4-0.9s0.2-0.6,0.3-1s0.1-0.7,0.1-1c0-0.6-0.1-1.1-0.3-1.4
			S274.9,209.5,274.5,209.5z"/>
		<path id="XMLID_1097_" class="st7" d="M280.4,208.5l-0.6,5.2c0,0.1,0,0.2,0,0.3s0,0.2,0,0.3c0,0.4,0.1,0.8,0.2,1
			c0.2,0.2,0.4,0.3,0.8,0.3c0.2,0,0.5-0.1,0.8-0.2s0.5-0.3,0.8-0.6c0.2-0.2,0.5-0.5,0.7-0.9s0.4-0.7,0.5-1.2l0.5-4.2h1.4l-1,8.1
			h-0.7c-0.2,0-0.3,0-0.4-0.1s-0.1-0.2-0.1-0.3v-0.1c0-0.1,0-0.2,0-0.3s0-0.2,0-0.3s0-0.1,0-0.1l0.1-0.6c-0.4,0.7-0.9,1.2-1.4,1.6
			s-1.1,0.5-1.6,0.5c-0.6,0-1.1-0.2-1.4-0.6c-0.3-0.4-0.5-1-0.5-1.8c0-0.1,0-0.2,0-0.3s0-0.2,0-0.4l0.6-5.2L280.4,208.5L280.4,208.5
			z"/>
		<path id="XMLID_1094_" class="st7" d="M286.6,216.6l1.4-11.8h1.4l-0.7,5.7c0.2-0.3,0.4-0.6,0.7-0.9c0.2-0.3,0.5-0.5,0.7-0.7
			c0.3-0.2,0.5-0.3,0.8-0.4s0.6-0.2,0.8-0.2c0.7,0,1.2,0.3,1.6,0.8s0.6,1.2,0.6,2.2c0,0.4,0,0.9-0.1,1.3s-0.2,0.9-0.4,1.3
			s-0.4,0.8-0.6,1.1s-0.5,0.6-0.8,0.9c-0.3,0.3-0.6,0.5-0.9,0.6s-0.7,0.2-1.1,0.2s-0.8-0.1-1.2-0.3c-0.3-0.2-0.6-0.4-0.9-0.8
			l-0.1,0.5c0,0.1-0.1,0.2-0.2,0.3s-0.2,0.1-0.3,0.1L286.6,216.6L286.6,216.6z M291.2,209.5c-0.3,0-0.5,0.1-0.8,0.2
			c-0.3,0.2-0.5,0.4-0.8,0.7c-0.2,0.3-0.5,0.6-0.7,1s-0.4,0.8-0.6,1.3l-0.3,2.1c0.2,0.3,0.4,0.5,0.7,0.6s0.6,0.2,0.9,0.2
			s0.5-0.1,0.8-0.2c0.2-0.1,0.5-0.3,0.7-0.5s0.4-0.4,0.5-0.7c0.2-0.3,0.3-0.6,0.4-0.9s0.2-0.6,0.3-1c0.1-0.3,0.1-0.7,0.1-1
			c0-0.6-0.1-1.1-0.3-1.4S291.7,209.5,291.2,209.5z"/>
		<path id="XMLID_1092_" class="st7" d="M295.1,216.6l1.4-11.8h1.4l-1.4,11.8H295.1z"/>
		<path id="XMLID_1089_" class="st7" d="M301.3,208.5l-1,8.1H299l1-8.1H301.3z M301.9,206c0,0.1,0,0.3-0.1,0.4
			c-0.1,0.1-0.1,0.2-0.2,0.3s-0.2,0.2-0.3,0.2c-0.1,0.1-0.2,0.1-0.4,0.1c-0.1,0-0.2,0-0.4-0.1c-0.1-0.1-0.2-0.1-0.3-0.2
			s-0.2-0.2-0.2-0.3c-0.1-0.1-0.1-0.2-0.1-0.4s0-0.3,0.1-0.4c0.1-0.1,0.1-0.2,0.2-0.3s0.2-0.2,0.3-0.2c0.1-0.1,0.2-0.1,0.4-0.1
			c0.1,0,0.2,0,0.4,0.1s0.2,0.1,0.3,0.2c0.1,0.1,0.2,0.2,0.2,0.3C301.8,205.7,301.9,205.8,301.9,206z"/>
		<path id="XMLID_1087_" class="st7" d="M307.9,215.9c-0.2,0.2-0.5,0.4-0.7,0.5s-0.5,0.2-0.8,0.3c-0.3,0-0.6,0.1-0.9,0.1
			c-0.5,0-0.9-0.1-1.2-0.2s-0.7-0.4-0.9-0.7c-0.2-0.3-0.4-0.6-0.6-1c-0.1-0.4-0.2-0.9-0.2-1.3c0-0.7,0.1-1.3,0.3-1.9
			s0.5-1.1,0.9-1.6s0.8-0.8,1.3-1.1s1.1-0.4,1.7-0.4c0.5,0,1,0.1,1.3,0.3c0.4,0.2,0.7,0.5,1,0.8l-0.4,0.5l-0.1,0.1c0,0-0.1,0-0.2,0
			s-0.1,0-0.2-0.1s-0.2-0.1-0.3-0.2c-0.1-0.1-0.3-0.2-0.4-0.2c-0.2-0.1-0.4-0.1-0.7-0.1c-0.4,0-0.7,0.1-1,0.3s-0.6,0.5-0.9,0.8
			c-0.2,0.3-0.4,0.8-0.6,1.2c-0.1,0.5-0.2,1-0.2,1.5c0,0.3,0,0.6,0.1,0.9c0.1,0.3,0.2,0.5,0.3,0.7s0.3,0.3,0.5,0.4
			c0.2,0.1,0.5,0.2,0.8,0.2c0.2,0,0.5,0,0.6-0.1s0.4-0.1,0.5-0.2s0.3-0.2,0.4-0.2s0.2-0.2,0.3-0.2s0.2-0.1,0.2-0.2
			c0.1-0.1,0.1-0.1,0.2-0.1s0.2,0,0.3,0.1l0.4,0.4C308.4,215.4,308.1,215.7,307.9,215.9z"/>
		<path id="XMLID_1085_" class="st7" d="M309.8,216.8c-0.1,0.2-0.2,0.3-0.4,0.4c-0.2,0.1-0.3,0.1-0.4,0.1h-0.6l5.8-11.8
			c0.1-0.2,0.2-0.3,0.3-0.4s0.3-0.1,0.5-0.1h0.6L309.8,216.8z"/>
		<path id="XMLID_1083_" class="st7" d="M290.7,230.1l-0.6,5.2c0,0.1,0,0.2,0,0.3s0,0.2,0,0.3c0,0.4,0.1,0.8,0.2,1
			c0.2,0.2,0.4,0.3,0.8,0.3c0.2,0,0.5-0.1,0.8-0.2s0.5-0.3,0.8-0.6c0.2-0.2,0.5-0.5,0.7-0.9s0.4-0.7,0.5-1.2l0.5-4.2h1.4l-1,8.1H294
			c-0.2,0-0.3,0-0.4-0.1s-0.1-0.2-0.1-0.3v-0.1c0-0.1,0-0.2,0-0.3s0-0.2,0-0.3s0-0.1,0-0.1l0.1-0.6c-0.4,0.7-0.9,1.2-1.4,1.6
			s-1.1,0.5-1.6,0.5c-0.6,0-1.1-0.2-1.4-0.6c-0.3-0.4-0.5-1-0.5-1.8c0-0.1,0-0.2,0-0.3s0-0.2,0-0.4l0.6-5.2L290.7,230.1L290.7,230.1
			z"/>
		<path id="XMLID_1080_" class="st7" d="M296.5,240.9l1.3-10.9h0.7c0.3,0,0.5,0.2,0.5,0.5l-0.1,1.7c0.2-0.4,0.4-0.7,0.7-1
			c0.2-0.3,0.5-0.5,0.8-0.7s0.5-0.4,0.8-0.5s0.6-0.2,0.9-0.2c0.7,0,1.2,0.3,1.6,0.8s0.6,1.2,0.6,2.2c0,0.4,0,0.9-0.1,1.3
			c-0.1,0.4-0.2,0.9-0.4,1.3s-0.4,0.8-0.6,1.1s-0.5,0.6-0.8,0.9c-0.3,0.3-0.6,0.5-0.9,0.6s-0.7,0.2-1.1,0.2s-0.8-0.1-1.1-0.2
			c-0.3-0.2-0.6-0.4-0.8-0.7l-0.4,3.5L296.5,240.9L296.5,240.9z M301.4,231.1c-0.3,0-0.5,0.1-0.8,0.2c-0.3,0.2-0.5,0.4-0.8,0.7
			c-0.2,0.3-0.5,0.6-0.7,1s-0.4,0.8-0.5,1.3l-0.3,2.1c0.2,0.3,0.4,0.5,0.7,0.6c0.3,0.1,0.6,0.2,0.9,0.2s0.5-0.1,0.8-0.2
			s0.5-0.3,0.7-0.5s0.4-0.4,0.5-0.7c0.2-0.3,0.3-0.6,0.4-0.9s0.2-0.6,0.3-1s0.1-0.7,0.1-1c0-0.6-0.1-1.1-0.3-1.4
			S301.8,231.1,301.4,231.1z"/>
		<path id="XMLID_1078_" class="st7" d="M305.2,238.2l1.4-11.8h1.4l-1.4,11.8H305.2z"/>
		<path id="XMLID_1075_" class="st7" d="M311.8,238.3c-0.4,0-0.8-0.1-1.2-0.2c-0.4-0.2-0.7-0.4-1-0.7s-0.5-0.6-0.6-1.1
			s-0.2-0.9-0.2-1.4c0-0.7,0.1-1.3,0.3-1.9c0.2-0.6,0.5-1.1,0.9-1.6s0.8-0.8,1.3-1.1s1-0.4,1.6-0.4c0.4,0,0.8,0.1,1.2,0.2
			s0.7,0.4,1,0.7s0.5,0.6,0.6,1.1c0.1,0.4,0.2,0.9,0.2,1.4c0,0.7-0.1,1.3-0.3,1.9c-0.2,0.6-0.5,1.1-0.9,1.6s-0.8,0.8-1.3,1.1
			C312.9,238.2,312.4,238.3,311.8,238.3z M311.9,237.2c0.4,0,0.7-0.1,1.1-0.3c0.3-0.2,0.6-0.5,0.8-0.9c0.2-0.4,0.4-0.8,0.5-1.2
			c0.1-0.5,0.2-0.9,0.2-1.5c0-0.7-0.1-1.3-0.4-1.7s-0.7-0.6-1.3-0.6c-0.4,0-0.8,0.1-1.1,0.3c-0.3,0.2-0.6,0.5-0.8,0.8
			c-0.2,0.4-0.4,0.8-0.5,1.2c-0.1,0.5-0.2,0.9-0.2,1.5c0,0.7,0.1,1.3,0.4,1.7C310.9,237,311.3,237.2,311.9,237.2z"/>
		<path id="XMLID_1072_" class="st7" d="M322.9,238.2h-0.7c-0.2,0-0.3,0-0.4-0.1s-0.1-0.2-0.1-0.4l0.1-1.6c-0.2,0.3-0.4,0.6-0.6,0.9
			s-0.5,0.5-0.7,0.7s-0.5,0.3-0.8,0.4c-0.3,0.1-0.6,0.2-0.8,0.2c-0.3,0-0.6-0.1-0.9-0.2c-0.3-0.1-0.5-0.3-0.7-0.6
			c-0.2-0.2-0.3-0.5-0.4-0.9s-0.2-0.8-0.2-1.2c0-0.5,0.1-0.9,0.2-1.4s0.3-0.9,0.5-1.3c0.2-0.4,0.5-0.8,0.8-1.1s0.7-0.6,1-0.9
			c0.4-0.2,0.8-0.4,1.2-0.6c0.4-0.1,0.9-0.2,1.4-0.2c0.3,0,0.7,0,1,0.1s0.7,0.2,1,0.3L322.9,238.2z M319.4,237.1
			c0.3,0,0.5-0.1,0.8-0.2c0.3-0.2,0.5-0.4,0.7-0.7s0.4-0.6,0.6-1s0.4-0.8,0.5-1.3l0.3-2.7c-0.1-0.1-0.2-0.1-0.3-0.1
			c-0.1,0-0.2,0-0.3,0c-0.3,0-0.6,0.1-0.9,0.2c-0.3,0.1-0.6,0.2-0.8,0.4c-0.3,0.2-0.5,0.4-0.7,0.7s-0.4,0.5-0.5,0.8
			c-0.2,0.3-0.3,0.6-0.4,1c-0.1,0.3-0.1,0.7-0.1,1.1C318.2,236.5,318.6,237.1,319.4,237.1z"/>
		<path id="XMLID_1069_" class="st7" d="M330.5,238.2c-0.2,0-0.3,0-0.4-0.1s-0.1-0.2-0.1-0.4l0.2-1.7c-0.2,0.3-0.4,0.7-0.7,0.9
			c-0.2,0.3-0.5,0.5-0.8,0.7s-0.5,0.4-0.8,0.5s-0.6,0.2-0.9,0.2c-0.7,0-1.2-0.3-1.6-0.8s-0.6-1.2-0.6-2.2c0-0.4,0-0.9,0.1-1.3
			c0.1-0.4,0.2-0.9,0.4-1.3c0.2-0.4,0.4-0.8,0.6-1.1s0.5-0.6,0.8-0.9c0.3-0.3,0.6-0.4,0.9-0.6c0.3-0.1,0.7-0.2,1.1-0.2
			s0.8,0.1,1.1,0.2c0.3,0.2,0.6,0.4,0.8,0.7l0.6-4.5h1.4l-1.5,11.8h-0.6V238.2z M327.6,237.2c0.3,0,0.5-0.1,0.8-0.2s0.5-0.4,0.8-0.7
			c0.2-0.3,0.5-0.6,0.7-1s0.4-0.8,0.5-1.3l0.3-2.1c-0.2-0.3-0.4-0.5-0.7-0.6c-0.3-0.1-0.6-0.2-0.9-0.2c-0.4,0-0.8,0.1-1.1,0.4
			c-0.3,0.3-0.6,0.6-0.9,1c-0.2,0.4-0.4,0.8-0.5,1.3s-0.2,1-0.2,1.4c0,0.6,0.1,1.1,0.3,1.5C326.8,237,327.2,237.2,327.6,237.2z"/>
		<path id="XMLID_1067_" class="st7" d="M338.6,231.4c0,0.1-0.1,0.1-0.1,0.1s-0.1,0-0.2,0s-0.2,0-0.2-0.1s-0.2-0.1-0.3-0.2
			c-0.1-0.1-0.3-0.1-0.5-0.2c-0.2-0.1-0.4-0.1-0.7-0.1c-0.2,0-0.5,0-0.7,0.1s-0.4,0.2-0.5,0.3s-0.3,0.3-0.3,0.4
			c-0.1,0.2-0.1,0.3-0.1,0.5c0,0.3,0.1,0.5,0.2,0.6c0.2,0.1,0.4,0.3,0.6,0.4c0.2,0.1,0.5,0.2,0.8,0.3s0.6,0.2,0.8,0.4
			c0.2,0.2,0.5,0.4,0.6,0.6c0.2,0.2,0.2,0.6,0.2,0.9c0,0.4-0.1,0.7-0.2,1.1s-0.4,0.6-0.6,0.9c-0.3,0.3-0.6,0.5-1,0.6
			s-0.8,0.2-1.3,0.2s-1-0.1-1.4-0.3s-0.7-0.4-1-0.7l0.4-0.5c0-0.1,0.1-0.1,0.2-0.2c0.1,0,0.1-0.1,0.2-0.1s0.2,0,0.3,0.1
			c0.1,0.1,0.2,0.2,0.3,0.3s0.3,0.2,0.5,0.3s0.4,0.1,0.7,0.1c0.3,0,0.5,0,0.7-0.1s0.4-0.2,0.5-0.3s0.3-0.3,0.3-0.5
			c0.1-0.2,0.1-0.4,0.1-0.6c0-0.3-0.1-0.5-0.2-0.6c-0.2-0.2-0.4-0.3-0.6-0.4c-0.2-0.1-0.5-0.2-0.8-0.3s-0.6-0.2-0.8-0.4
			c-0.3-0.1-0.5-0.3-0.6-0.6c-0.2-0.2-0.2-0.5-0.2-0.9c0-0.3,0.1-0.7,0.2-1s0.3-0.6,0.6-0.8c0.3-0.2,0.6-0.4,0.9-0.6
			s0.8-0.2,1.2-0.2c0.5,0,0.9,0.1,1.3,0.2c0.4,0.2,0.7,0.4,1,0.7L338.6,231.4z"/>
		<path id="XMLID_1065_" class="st7" d="M339.8,238.4c-0.1,0.2-0.2,0.3-0.4,0.4c-0.2,0.1-0.3,0.1-0.4,0.1h-0.6l5.8-11.8
			c0.1-0.2,0.2-0.3,0.3-0.4s0.3-0.1,0.5-0.1h0.6L339.8,238.4z"/>
	</g>
</g>
<g id="XMLID_76_">
	<circle id="XMLID_108_" class="st11" cx="314.4" cy="255.6" r="7"/>
	<g id="XMLID_86_">
		<g id="XMLID_89_">
			<path id="XMLID_91_" class="st12" d="M313,258.7c0-0.2,0-0.3,0.1-0.5s0.2-0.3,0.3-0.4c0.1-0.1,0.2-0.2,0.4-0.3
				c0.2-0.1,0.3-0.1,0.5-0.1s0.3,0,0.5,0.1s0.3,0.2,0.4,0.3c0.1,0.1,0.2,0.2,0.3,0.4s0.1,0.3,0.1,0.5s0,0.3-0.1,0.5
				s-0.2,0.3-0.3,0.4c-0.1,0.1-0.2,0.2-0.4,0.3c-0.2,0.1-0.3,0.1-0.5,0.1s-0.3,0-0.5-0.1s-0.3-0.2-0.4-0.3c-0.1-0.1-0.2-0.2-0.3-0.4
				C313.1,259,313,258.9,313,258.7z M315.5,251.3v2.4c0,0.4-0.5,2.5-0.5,2.5h-1.4c0,0-0.5-2.1-0.5-2.5v-2.4L315.5,251.3L315.5,251.3
				z"/>
		</g>
	</g>
</g>
<g id="XMLID_62_">
	<circle id="XMLID_75_" class="st11" cx="314.4" cy="276.6" r="7"/>
	<g id="XMLID_63_">
		<g id="XMLID_66_">
			<path id="XMLID_67_" class="st12" d="M313,279.7c0-0.2,0-0.3,0.1-0.5s0.2-0.3,0.3-0.4c0.1-0.1,0.2-0.2,0.4-0.3
				c0.2-0.1,0.3-0.1,0.5-0.1s0.3,0,0.5,0.1s0.3,0.2,0.4,0.3c0.1,0.1,0.2,0.2,0.3,0.4s0.1,0.3,0.1,0.5s0,0.3-0.1,0.5
				s-0.2,0.3-0.3,0.4c-0.1,0.1-0.2,0.2-0.4,0.3c-0.2,0.1-0.3,0.1-0.5,0.1s-0.3,0-0.5-0.1s-0.3-0.2-0.4-0.3c-0.1-0.1-0.2-0.2-0.3-0.4
				C313.1,280,313,279.9,313,279.7z M315.5,272.3v2.4c0,0.4-0.5,2.5-0.5,2.5h-1.4c0,0-0.5-2.1-0.5-2.5v-2.4H315.5z"/>
		</g>
	</g>
</g>
<g>
	<path class="st5" d="M79.3,36.8h1.2c0.1,0,0.2,0,0.3,0.1c0.1,0.1,0.1,0.1,0.1,0.2l0.8,5.9c0,0.2,0,0.4,0,0.6c0,0.2,0,0.4,0,0.6
		c0.1-0.2,0.1-0.4,0.2-0.6c0.1-0.2,0.2-0.4,0.2-0.6l2.5-5.9c0-0.1,0.1-0.2,0.2-0.2s0.2-0.1,0.3-0.1h0.7c0.1,0,0.2,0,0.3,0.1
		c0.1,0.1,0.1,0.1,0.1,0.2l1,5.9c0,0.2,0.1,0.4,0.1,0.6c0,0.2,0,0.4,0.1,0.6c0.1-0.2,0.1-0.4,0.2-0.6c0.1-0.2,0.1-0.4,0.2-0.6
		l2.3-5.9c0-0.1,0.1-0.2,0.2-0.2c0.1-0.1,0.2-0.1,0.3-0.1h1.2L87.9,46h-1.2c-0.1,0-0.2-0.1-0.3-0.3l-1.1-6.2c0-0.1,0-0.2,0-0.3
		s0-0.2,0-0.3c0,0.1-0.1,0.2-0.1,0.3s-0.1,0.2-0.1,0.3l-2.6,6.2c-0.1,0.2-0.2,0.3-0.4,0.3h-1.2L79.3,36.8z"/>
	<path class="st5" d="M99.3,38.8c0,0.4-0.1,0.8-0.2,1.1s-0.5,0.6-0.9,0.9c-0.4,0.3-1,0.5-1.8,0.7s-1.7,0.4-2.9,0.5
		c0,0.1,0,0.1,0,0.2c0,0.1,0,0.1,0,0.2c0,0.8,0.2,1.4,0.5,1.8c0.4,0.4,0.9,0.6,1.6,0.6c0.3,0,0.5,0,0.8-0.1c0.2-0.1,0.4-0.1,0.6-0.2
		c0.2-0.1,0.3-0.2,0.5-0.3c0.1-0.1,0.3-0.2,0.4-0.3s0.2-0.2,0.3-0.2c0.1-0.1,0.2-0.1,0.3-0.1c0.1,0,0.2,0.1,0.3,0.2l0.4,0.5
		c-0.3,0.3-0.6,0.6-0.9,0.8s-0.6,0.4-0.9,0.6c-0.3,0.1-0.6,0.3-1,0.3s-0.7,0.1-1.1,0.1c-0.5,0-1-0.1-1.4-0.3s-0.8-0.4-1.1-0.7
		c-0.3-0.3-0.5-0.7-0.7-1.2s-0.2-1-0.2-1.5s0-0.9,0.1-1.4s0.2-0.9,0.4-1.3s0.4-0.8,0.7-1.2c0.3-0.4,0.6-0.7,0.9-0.9
		c0.4-0.3,0.7-0.5,1.2-0.6c0.4-0.2,0.9-0.2,1.4-0.2s0.9,0.1,1.2,0.2s0.6,0.3,0.8,0.5s0.4,0.4,0.5,0.7S99.3,38.6,99.3,38.8z
		 M96.5,37.9c-0.4,0-0.7,0.1-1,0.2c-0.3,0.2-0.6,0.4-0.8,0.6c-0.2,0.3-0.5,0.6-0.6,1c-0.2,0.4-0.3,0.8-0.4,1.2
		c0.9-0.1,1.7-0.2,2.2-0.4c0.6-0.1,1-0.3,1.3-0.5s0.5-0.4,0.6-0.6c0.1-0.2,0.1-0.4,0.1-0.6c0-0.1,0-0.2-0.1-0.3
		c0-0.1-0.1-0.2-0.2-0.3S97.3,38,97.1,38C97,37.9,96.8,37.9,96.5,37.9z"/>
	<path class="st5" d="M100.4,46l1.6-13.3h1.6l-0.8,6.4c0.2-0.4,0.5-0.7,0.7-1s0.5-0.6,0.8-0.8s0.6-0.4,0.9-0.5s0.6-0.2,1-0.2
		c0.8,0,1.4,0.3,1.8,0.8c0.4,0.6,0.6,1.4,0.6,2.5c0,0.5-0.1,1-0.2,1.5s-0.2,1-0.4,1.4c-0.2,0.4-0.4,0.9-0.7,1.3
		c-0.3,0.4-0.6,0.7-0.9,1s-0.7,0.5-1.1,0.7s-0.8,0.2-1.2,0.2c-0.5,0-0.9-0.1-1.3-0.3s-0.7-0.5-1-0.9l-0.1,0.6c0,0.2-0.1,0.3-0.2,0.4
		c-0.1,0.1-0.2,0.1-0.4,0.1L100.4,46L100.4,46z M105.6,38c-0.3,0-0.6,0.1-0.9,0.3s-0.6,0.4-0.9,0.7s-0.5,0.7-0.8,1.1
		c-0.2,0.4-0.4,0.9-0.6,1.4l-0.3,2.4c0.2,0.3,0.5,0.6,0.8,0.7c0.3,0.1,0.6,0.2,1,0.2c0.3,0,0.6-0.1,0.9-0.2c0.3-0.1,0.5-0.3,0.8-0.5
		c0.2-0.2,0.4-0.5,0.6-0.8s0.3-0.6,0.5-1s0.2-0.7,0.3-1.1s0.1-0.7,0.1-1.1c0-0.7-0.1-1.3-0.4-1.6S106,38,105.6,38z"/>
	<path class="st5" d="M109.5,45c0-0.2,0-0.3,0.1-0.4c0.1-0.1,0.1-0.3,0.2-0.4c0.1-0.1,0.2-0.2,0.4-0.2c0.1-0.1,0.3-0.1,0.4-0.1
		c0.2,0,0.3,0,0.4,0.1s0.3,0.1,0.4,0.2c0.1,0.1,0.2,0.2,0.2,0.4c0.1,0.1,0.1,0.3,0.1,0.4c0,0.2,0,0.3-0.1,0.4
		c-0.1,0.1-0.1,0.3-0.2,0.4c-0.1,0.1-0.2,0.2-0.4,0.2c-0.1,0.1-0.3,0.1-0.4,0.1c-0.2,0-0.3,0-0.4-0.1s-0.3-0.1-0.4-0.2
		c-0.1-0.1-0.2-0.2-0.2-0.4C109.5,45.3,109.5,45.1,109.5,45z"/>
	<path class="st5" d="M119.4,38.3c0,0.1-0.1,0.1-0.1,0.2c0,0-0.1,0-0.2,0s-0.2,0-0.3-0.1c-0.1-0.1-0.2-0.1-0.4-0.2s-0.3-0.2-0.5-0.2
		c-0.2-0.1-0.4-0.1-0.7-0.1c-0.3,0-0.5,0-0.7,0.1s-0.4,0.2-0.6,0.3s-0.3,0.3-0.4,0.5s-0.1,0.4-0.1,0.6c0,0.3,0.1,0.5,0.3,0.7
		s0.4,0.3,0.7,0.4c0.3,0.1,0.6,0.2,0.9,0.4c0.3,0.1,0.6,0.3,0.9,0.4c0.3,0.2,0.5,0.4,0.7,0.7s0.3,0.6,0.3,1.1c0,0.4-0.1,0.8-0.2,1.2
		s-0.4,0.7-0.7,1c-0.3,0.3-0.7,0.5-1.1,0.7s-0.9,0.3-1.5,0.3s-1.1-0.1-1.5-0.3s-0.8-0.5-1.1-0.8l0.4-0.6c0-0.1,0.1-0.1,0.2-0.2
		c0.1,0,0.1-0.1,0.3-0.1c0.1,0,0.2,0,0.3,0.1c0.1,0.1,0.2,0.2,0.4,0.3c0.1,0.1,0.3,0.2,0.5,0.3s0.5,0.1,0.8,0.1s0.6,0,0.8-0.1
		c0.2-0.1,0.4-0.2,0.6-0.4c0.2-0.1,0.3-0.3,0.4-0.5s0.1-0.4,0.1-0.6c0-0.3-0.1-0.5-0.3-0.7c-0.2-0.2-0.4-0.3-0.7-0.5
		c-0.3-0.1-0.6-0.2-0.9-0.3s-0.6-0.2-0.9-0.4s-0.5-0.4-0.7-0.6c-0.2-0.3-0.3-0.6-0.3-1.1c0-0.4,0.1-0.8,0.2-1.1
		c0.2-0.4,0.4-0.7,0.7-0.9c0.3-0.3,0.6-0.5,1-0.7s0.9-0.2,1.4-0.2s1,0.1,1.4,0.3s0.8,0.4,1.1,0.7L119.4,38.3z"/>
	<path class="st5" d="M123.4,36.8l-1.1,9.1h-1.6l1.1-9.1C121.8,36.8,123.4,36.8,123.4,36.8z M124.1,34c0,0.2,0,0.3-0.1,0.4
		c-0.1,0.1-0.1,0.3-0.3,0.4c-0.1,0.1-0.2,0.2-0.4,0.2c-0.1,0.1-0.3,0.1-0.4,0.1s-0.3,0-0.4-0.1s-0.2-0.1-0.3-0.2
		c-0.1-0.1-0.2-0.2-0.2-0.4c-0.1-0.1-0.1-0.3-0.1-0.4c0-0.2,0-0.3,0.1-0.4s0.1-0.3,0.2-0.4c0.1-0.1,0.2-0.2,0.4-0.3
		c0.1-0.1,0.3-0.1,0.4-0.1s0.3,0,0.4,0.1s0.3,0.1,0.4,0.2c0.1,0.1,0.2,0.2,0.2,0.4C124,33.7,124.1,33.8,124.1,34z"/>
	<path class="st5" d="M125.7,44.2L125.7,44.2c0-0.1,0-0.2,0-0.3c0-0.1,0-0.2,0-0.4s0-0.4,0.1-0.7l0.6-4.6h-1c-0.1,0-0.1,0-0.2-0.1
		c-0.1,0-0.1-0.1-0.1-0.2v-0.1c0-0.1,0-0.1,0-0.2c0-0.1,0-0.1,0-0.2c0-0.1,0-0.1,0-0.2l1.4-0.2l0.7-2.8c0-0.1,0.1-0.2,0.1-0.2
		c0.1-0.1,0.1-0.1,0.2-0.1h0.8l-0.4,3.1h2.4l-0.1,1.2H128l-0.5,4.5c0,0.2-0.1,0.4-0.1,0.6c0,0.2,0,0.3,0,0.4c0,0.1,0,0.2,0,0.2V44
		c0,0.3,0.1,0.5,0.2,0.7c0.1,0.1,0.3,0.2,0.6,0.2c0.2,0,0.3,0,0.4-0.1s0.2-0.1,0.3-0.1c0.1-0.1,0.2-0.1,0.2-0.1
		c0.1,0,0.1-0.1,0.2-0.1h0.1l0.1,0.1l0.3,0.8c-0.3,0.3-0.6,0.5-1,0.6s-0.8,0.2-1.1,0.2c-0.6,0-1-0.2-1.4-0.5
		C125.9,45.3,125.7,44.8,125.7,44.2z"/>
	<path class="st5" d="M138.4,38.8c0,0.4-0.1,0.8-0.2,1.1s-0.5,0.6-0.9,0.9c-0.4,0.3-1,0.5-1.8,0.7s-1.7,0.4-2.9,0.5
		c0,0.1,0,0.1,0,0.2c0,0.1,0,0.1,0,0.2c0,0.8,0.2,1.4,0.5,1.8c0.4,0.4,0.9,0.6,1.6,0.6c0.3,0,0.5,0,0.8-0.1c0.2-0.1,0.4-0.1,0.6-0.2
		c0.2-0.1,0.3-0.2,0.5-0.3c0.1-0.1,0.3-0.2,0.4-0.3c0.1-0.1,0.2-0.2,0.3-0.2c0.1-0.1,0.2-0.1,0.3-0.1s0.2,0.1,0.3,0.2l0.4,0.5
		c-0.3,0.3-0.6,0.6-0.9,0.8c-0.3,0.2-0.6,0.4-0.9,0.6c-0.3,0.1-0.6,0.3-1,0.3s-0.7,0.1-1.1,0.1c-0.5,0-1-0.1-1.4-0.3
		s-0.8-0.4-1.1-0.7s-0.5-0.7-0.7-1.2s-0.2-1-0.2-1.5s0-0.9,0.1-1.4s0.2-0.9,0.4-1.3s0.4-0.8,0.7-1.2s0.6-0.7,0.9-0.9
		c0.4-0.3,0.7-0.5,1.2-0.6c0.4-0.2,0.9-0.2,1.4-0.2s0.9,0.1,1.2,0.2s0.6,0.3,0.8,0.5s0.4,0.4,0.5,0.7S138.4,38.6,138.4,38.8z
		 M135.6,37.9c-0.4,0-0.7,0.1-1,0.2c-0.3,0.2-0.6,0.4-0.8,0.6c-0.2,0.3-0.5,0.6-0.6,1c-0.2,0.4-0.3,0.8-0.4,1.2
		c0.9-0.1,1.7-0.2,2.2-0.4c0.6-0.1,1-0.3,1.3-0.5s0.5-0.4,0.6-0.6c0.1-0.2,0.1-0.4,0.1-0.6c0-0.1,0-0.2-0.1-0.3
		c0-0.1-0.1-0.2-0.2-0.3s-0.2-0.2-0.4-0.2C136.1,37.9,135.9,37.9,135.6,37.9z"/>
</g>
<g>
	<path class="st7" d="M262.4,36.8h1.2c0.1,0,0.2,0,0.3,0.1C264,37,264,37,264,37.1l0.8,5.9c0,0.2,0,0.4,0,0.6c0,0.2,0,0.4,0,0.6
		c0.1-0.2,0.1-0.4,0.2-0.6c0.1-0.2,0.2-0.4,0.2-0.6l2.5-5.9c0-0.1,0.1-0.2,0.2-0.2s0.2-0.1,0.3-0.1h0.7c0.1,0,0.2,0,0.3,0.1
		c0.1,0.1,0.1,0.1,0.1,0.2l1,5.9c0,0.2,0.1,0.4,0.1,0.6c0,0.2,0,0.4,0.1,0.6c0.1-0.2,0.1-0.4,0.2-0.6c0.1-0.2,0.1-0.4,0.2-0.6
		l2.3-5.9c0-0.1,0.1-0.2,0.2-0.2c0.1-0.1,0.2-0.1,0.3-0.1h1.2L271,46h-1.2c-0.1,0-0.2-0.1-0.3-0.3l-1.1-6.2c0-0.1,0-0.2,0-0.3
		s0-0.2,0-0.3c0,0.1-0.1,0.2-0.1,0.3s-0.1,0.2-0.1,0.3l-2.6,6.2c-0.1,0.2-0.2,0.3-0.4,0.3H264L262.4,36.8z"/>
	<path class="st7" d="M278.3,46.1c-0.5,0-1-0.1-1.4-0.3s-0.8-0.4-1.1-0.7c-0.3-0.3-0.5-0.7-0.7-1.2s-0.3-1-0.3-1.6
		c0-0.8,0.1-1.5,0.4-2.2s0.6-1.3,1-1.8s0.9-0.9,1.5-1.2s1.2-0.4,1.8-0.4c0.5,0,1,0.1,1.4,0.3s0.8,0.4,1.1,0.7
		c0.3,0.3,0.5,0.7,0.7,1.2s0.3,1,0.3,1.6c0,0.8-0.1,1.5-0.4,2.2c-0.2,0.7-0.6,1.3-1,1.8s-0.9,0.9-1.5,1.2S278.9,46.1,278.3,46.1z
		 M278.4,44.8c0.4,0,0.8-0.1,1.2-0.4c0.4-0.2,0.7-0.6,0.9-1s0.4-0.9,0.6-1.4c0.1-0.5,0.2-1.1,0.2-1.6c0-0.8-0.2-1.5-0.5-1.9
		s-0.8-0.6-1.4-0.6c-0.4,0-0.8,0.1-1.2,0.4c-0.4,0.2-0.7,0.6-0.9,1s-0.4,0.9-0.6,1.4c-0.1,0.5-0.2,1.1-0.2,1.6
		c0,0.8,0.2,1.5,0.5,1.9C277.3,44.6,277.8,44.8,278.4,44.8z"/>
	<path class="st7" d="M284.1,46l1.1-9.1h0.8c0.2,0,0.3,0,0.4,0.1s0.1,0.2,0.1,0.4v0.1v0.1v0.1v0.1l-0.1,1.7c0.4-0.8,0.8-1.5,1.3-1.9
		c0.5-0.5,1-0.7,1.5-0.7c0.3,0,0.5,0.1,0.8,0.2l-0.3,1.5c-0.3-0.1-0.6-0.2-0.8-0.2c-0.6,0-1.1,0.3-1.6,0.9s-0.8,1.4-1.1,2.6
		l-0.5,4.2L284.1,46L284.1,46z"/>
	<path class="st7" d="M293.7,32.7l-1,7.8h0.3c0.1,0,0.2,0,0.3,0c0.1,0,0.2-0.1,0.3-0.2l3-3.1c0.1-0.1,0.2-0.2,0.3-0.2
		c0.1-0.1,0.2-0.1,0.4-0.1h1.4l-3.5,3.6c-0.1,0.1-0.2,0.2-0.3,0.3s-0.2,0.2-0.3,0.2c0.1,0.1,0.2,0.2,0.2,0.3
		c0.1,0.1,0.1,0.2,0.2,0.3l2.7,4.5h-1.4c-0.1,0-0.2,0-0.3-0.1c-0.1,0-0.2-0.1-0.2-0.2l-2.3-3.7c-0.1-0.1-0.2-0.2-0.2-0.2
		s-0.2-0.1-0.4-0.1h-0.3L292,46h-1.6l1.6-13.3H293.7z"/>
	<path class="st7" d="M305.9,38.8c0,0.4-0.1,0.8-0.2,1.1s-0.5,0.6-0.9,0.9c-0.4,0.3-1,0.5-1.8,0.7s-1.7,0.4-2.9,0.5
		c0,0.1,0,0.1,0,0.2c0,0.1,0,0.1,0,0.2c0,0.8,0.2,1.4,0.5,1.8c0.4,0.4,0.9,0.6,1.6,0.6c0.3,0,0.5,0,0.8-0.1c0.2-0.1,0.4-0.1,0.6-0.2
		c0.2-0.1,0.3-0.2,0.5-0.3c0.1-0.1,0.3-0.2,0.4-0.3s0.2-0.2,0.3-0.2c0.1-0.1,0.2-0.1,0.3-0.1c0.1,0,0.2,0.1,0.3,0.2l0.4,0.5
		c-0.3,0.3-0.6,0.6-0.9,0.8s-0.6,0.4-0.9,0.6c-0.3,0.1-0.6,0.3-1,0.3s-0.7,0.1-1.1,0.1c-0.5,0-1-0.1-1.4-0.3s-0.8-0.4-1.1-0.7
		c-0.3-0.3-0.5-0.7-0.7-1.2s-0.2-1-0.2-1.5s0-0.9,0.1-1.4s0.2-0.9,0.4-1.3c0.2-0.4,0.4-0.8,0.7-1.2c0.3-0.4,0.6-0.7,0.9-0.9
		c0.4-0.3,0.7-0.5,1.2-0.6c0.4-0.2,0.9-0.2,1.4-0.2s0.9,0.1,1.2,0.2s0.6,0.3,0.8,0.5s0.4,0.4,0.5,0.7
		C305.8,38.3,305.9,38.6,305.9,38.8z M303.1,37.9c-0.4,0-0.7,0.1-1,0.2c-0.3,0.2-0.6,0.4-0.8,0.6c-0.2,0.3-0.5,0.6-0.6,1
		c-0.2,0.4-0.3,0.8-0.4,1.2c0.9-0.1,1.7-0.2,2.2-0.4c0.6-0.1,1-0.3,1.3-0.5s0.5-0.4,0.6-0.6c0.1-0.2,0.1-0.4,0.1-0.6
		c0-0.1,0-0.2-0.1-0.3c0-0.1-0.1-0.2-0.2-0.3S304,38,303.8,38C303.5,37.9,303.3,37.9,303.1,37.9z"/>
	<path class="st7" d="M306.9,46l1.1-9.1h0.8c0.2,0,0.3,0,0.4,0.1s0.1,0.2,0.1,0.4v0.1v0.1v0.1v0.1l-0.1,1.7c0.4-0.8,0.8-1.5,1.3-1.9
		c0.5-0.5,1-0.7,1.5-0.7c0.3,0,0.5,0.1,0.8,0.2l-0.3,1.5c-0.3-0.1-0.6-0.2-0.8-0.2c-0.6,0-1.1,0.3-1.6,0.9s-0.8,1.4-1.1,2.6
		l-0.5,4.2L306.9,46L306.9,46z"/>
	<path class="st7" d="M311.6,45c0-0.2,0-0.3,0.1-0.4c0.1-0.1,0.1-0.3,0.2-0.4c0.1-0.1,0.2-0.2,0.4-0.2c0.1-0.1,0.3-0.1,0.4-0.1
		c0.2,0,0.3,0,0.4,0.1s0.3,0.1,0.4,0.2c0.1,0.1,0.2,0.2,0.2,0.4c0.1,0.1,0.1,0.3,0.1,0.4c0,0.2,0,0.3-0.1,0.4
		c-0.1,0.1-0.1,0.3-0.2,0.4c-0.1,0.1-0.2,0.2-0.4,0.2c-0.1,0.1-0.3,0.1-0.4,0.1c-0.2,0-0.3,0-0.4-0.1s-0.3-0.1-0.4-0.2
		c-0.1-0.1-0.2-0.2-0.2-0.4C311.6,45.3,311.6,45.1,311.6,45z"/>
	<path class="st7" d="M318.5,36.8l-1.1,9.1h-1.6l1.1-9.1C316.9,36.8,318.5,36.8,318.5,36.8z M319.1,34c0,0.2,0,0.3-0.1,0.4
		c-0.1,0.1-0.1,0.3-0.3,0.4c-0.1,0.1-0.2,0.2-0.4,0.2c-0.1,0.1-0.3,0.1-0.4,0.1s-0.3,0-0.4-0.1s-0.2-0.1-0.3-0.2
		c-0.1-0.1-0.2-0.2-0.2-0.4c-0.1-0.1-0.1-0.3-0.1-0.4c0-0.2,0-0.3,0.1-0.4c0.1-0.1,0.1-0.3,0.2-0.4c0.1-0.1,0.2-0.2,0.4-0.3
		c0.1-0.1,0.3-0.1,0.4-0.1s0.3,0,0.4,0.1s0.3,0.1,0.4,0.2c0.1,0.1,0.2,0.2,0.2,0.4C319.1,33.7,319.1,33.8,319.1,34z"/>
	<path class="st7" d="M320,46l1.1-9.1h0.8c0.4,0,0.5,0.2,0.5,0.5l-0.1,1.6c0.4-0.8,0.9-1.3,1.5-1.7c0.5-0.4,1.1-0.6,1.7-0.6
		s1.1,0.2,1.4,0.6c0.3,0.4,0.4,1,0.4,1.8c0.5-0.8,1-1.5,1.5-1.8c0.6-0.4,1.2-0.6,1.8-0.6c0.7,0,1.2,0.2,1.5,0.7
		c0.3,0.4,0.5,1.1,0.5,1.9c0,0.1,0,0.3,0,0.4c0,0.2,0,0.3,0,0.5l-0.7,5.8h-1.6l0.7-5.8c0-0.3,0.1-0.6,0.1-0.8c0-0.4-0.1-0.8-0.2-1
		s-0.4-0.3-0.8-0.3c-0.3,0-0.5,0.1-0.8,0.2s-0.5,0.3-0.7,0.6s-0.5,0.6-0.7,0.9s-0.4,0.8-0.6,1.3l-0.6,5h-1.6l0.7-5.8
		c0-0.2,0-0.3,0-0.5c0-0.1,0-0.3,0-0.4c0-0.4-0.1-0.7-0.2-0.9S325.3,38,325,38s-0.6,0.1-0.8,0.2c-0.3,0.1-0.5,0.4-0.8,0.6
		c-0.2,0.3-0.5,0.6-0.7,1s-0.4,0.8-0.6,1.3l-0.6,4.8H320V46z"/>
	<path class="st7" d="M340.8,46H340c-0.2,0-0.4-0.1-0.4-0.2c-0.1-0.1-0.1-0.2-0.1-0.4l0.2-1.8c-0.2,0.4-0.4,0.7-0.7,1
		s-0.5,0.6-0.8,0.8s-0.6,0.4-0.9,0.5s-0.6,0.2-1,0.2s-0.7-0.1-1-0.2c-0.3-0.1-0.5-0.3-0.8-0.6c-0.2-0.3-0.4-0.6-0.5-1
		s-0.2-0.9-0.2-1.4s0.1-1.1,0.2-1.6s0.3-1,0.6-1.5c0.2-0.5,0.5-0.9,0.9-1.3c0.3-0.4,0.7-0.7,1.2-1c0.4-0.3,0.9-0.5,1.4-0.6
		c0.5-0.2,1-0.2,1.5-0.2c0.4,0,0.8,0,1.1,0.1s0.7,0.2,1.1,0.3L340.8,46z M336.9,44.8c0.3,0,0.6-0.1,0.9-0.3s0.5-0.4,0.8-0.7
		s0.5-0.7,0.7-1.1c0.2-0.4,0.4-0.9,0.6-1.4l0.4-3.1c-0.1-0.1-0.3-0.2-0.4-0.2s-0.3,0-0.4,0c-0.4,0-0.7,0.1-1,0.2
		c-0.3,0.1-0.7,0.3-0.9,0.5c-0.3,0.2-0.6,0.5-0.8,0.7c-0.2,0.3-0.4,0.6-0.6,1c-0.2,0.3-0.3,0.7-0.4,1.1c-0.1,0.4-0.1,0.8-0.1,1.2
		C335.5,44,336,44.8,336.9,44.8z"/>
	<path class="st7" d="M349.9,39.4c0,0.3,0,0.6-0.1,0.8s-0.2,0.5-0.3,0.7c-0.1,0.2-0.2,0.4-0.3,0.6s-0.2,0.4-0.3,0.5
		c-0.1,0.2-0.2,0.4-0.3,0.6c-0.1,0.2-0.1,0.4-0.1,0.6c0,0.3,0.1,0.5,0.2,0.7s0.3,0.4,0.4,0.6c0.1,0.2,0.3,0.5,0.4,0.7
		s0.2,0.6,0.2,0.9c0,0.4-0.1,0.8-0.3,1.2s-0.5,0.7-0.8,1c-0.4,0.3-0.8,0.5-1.3,0.7s-1.1,0.3-1.8,0.3c-0.5,0-1-0.1-1.4-0.2
		c-0.4-0.1-0.8-0.3-1.1-0.5c-0.3-0.2-0.5-0.4-0.7-0.7S342,47.3,342,47c0-0.5,0.1-0.9,0.4-1.2c0.2-0.3,0.6-0.6,1-0.8s0.9-0.4,1.4-0.5
		s1-0.2,1.6-0.2c0.2,0,0.4,0,0.6,0s0.4,0,0.6,0.1c-0.1-0.1-0.1-0.2-0.1-0.4c0-0.1,0-0.3,0-0.4c0-0.2,0-0.4,0.1-0.6
		c0.1-0.2,0.2-0.4,0.3-0.7c-0.2,0.2-0.5,0.3-0.8,0.4c-0.3,0.1-0.6,0.1-1,0.1c-0.3,0-0.7-0.1-1-0.2c-0.3-0.1-0.6-0.3-0.8-0.5
		c-0.2-0.2-0.4-0.5-0.5-0.8s-0.2-0.7-0.2-1.2c0-0.4,0.1-0.9,0.2-1.3s0.4-0.8,0.7-1.1c0.3-0.3,0.7-0.6,1.1-0.8s1-0.3,1.6-0.3
		c0.7,0,1.2,0.2,1.7,0.5h2.5l-0.1,0.5c0,0.1,0,0.2-0.1,0.3s-0.1,0.1-0.3,0.2l-1.1,0.2c0.1,0.2,0.1,0.3,0.1,0.5
		S349.9,39.2,349.9,39.4z M348.2,46.2c0-0.2,0-0.3,0-0.4c0-0.1-0.1-0.3-0.1-0.4c-0.3-0.1-0.6-0.1-0.9-0.1s-0.6,0-0.8,0
		c-0.5,0-0.9,0-1.3,0.1s-0.7,0.2-0.9,0.3c-0.2,0.1-0.4,0.3-0.5,0.5s-0.2,0.4-0.2,0.6c0,0.4,0.2,0.8,0.5,1c0.4,0.2,0.9,0.3,1.5,0.3
		c0.4,0,0.8-0.1,1.1-0.2c0.3-0.1,0.6-0.2,0.8-0.4c0.2-0.2,0.4-0.4,0.5-0.6S348.2,46.4,348.2,46.2z M346.4,41.8
		c0.3,0,0.6-0.1,0.9-0.2c0.2-0.1,0.5-0.3,0.6-0.6c0.2-0.2,0.3-0.5,0.4-0.8s0.1-0.6,0.1-0.9c0-0.5-0.1-0.9-0.4-1.2s-0.6-0.4-1.1-0.4
		c-0.3,0-0.6,0.1-0.9,0.2c-0.2,0.1-0.5,0.3-0.6,0.5c-0.2,0.2-0.3,0.5-0.4,0.8s-0.1,0.6-0.1,0.9c0,0.5,0.1,1,0.4,1.2
		S346,41.8,346.4,41.8z"/>
	<path class="st7" d="M358.9,38.8c0,0.4-0.1,0.8-0.2,1.1c-0.2,0.3-0.5,0.6-0.9,0.9c-0.4,0.3-1,0.5-1.8,0.7s-1.7,0.4-2.9,0.5
		c0,0.1,0,0.1,0,0.2c0,0.1,0,0.1,0,0.2c0,0.8,0.2,1.4,0.5,1.8c0.4,0.4,0.9,0.6,1.6,0.6c0.3,0,0.5,0,0.8-0.1c0.2-0.1,0.4-0.1,0.6-0.2
		s0.3-0.2,0.5-0.3c0.1-0.1,0.3-0.2,0.4-0.3s0.2-0.2,0.3-0.2c0.1-0.1,0.2-0.1,0.3-0.1c0.1,0,0.2,0.1,0.3,0.2l0.4,0.5
		c-0.3,0.3-0.6,0.6-0.9,0.8s-0.6,0.4-0.9,0.6c-0.3,0.1-0.6,0.3-1,0.3s-0.7,0.1-1.1,0.1c-0.5,0-1-0.1-1.4-0.3s-0.8-0.4-1.1-0.7
		c-0.3-0.3-0.5-0.7-0.7-1.2s-0.2-1-0.2-1.5s0-0.9,0.1-1.4s0.2-0.9,0.4-1.3c0.2-0.4,0.4-0.8,0.7-1.2c0.3-0.4,0.6-0.7,0.9-0.9
		c0.4-0.3,0.7-0.5,1.2-0.6c0.4-0.2,0.9-0.2,1.4-0.2s0.9,0.1,1.2,0.2s0.6,0.3,0.8,0.5s0.4,0.4,0.5,0.7
		C358.8,38.3,358.9,38.6,358.9,38.8z M356.1,37.9c-0.4,0-0.7,0.1-1,0.2c-0.3,0.2-0.6,0.4-0.8,0.6c-0.2,0.3-0.5,0.6-0.6,1
		c-0.2,0.4-0.3,0.8-0.4,1.2c0.9-0.1,1.7-0.2,2.2-0.4c0.6-0.1,1-0.3,1.3-0.5s0.5-0.4,0.6-0.6c0.1-0.2,0.1-0.4,0.1-0.6
		c0-0.1,0-0.2-0.1-0.3s-0.1-0.2-0.2-0.3S357,38,356.8,38C356.6,37.9,356.4,37.9,356.1,37.9z"/>
	<path class="st7" d="M365.7,38.3c0,0.1-0.1,0.1-0.1,0.2c0,0-0.1,0-0.2,0s-0.2,0-0.3-0.1c-0.1-0.1-0.2-0.1-0.4-0.2
		c-0.1-0.1-0.3-0.2-0.5-0.2c-0.2-0.1-0.5-0.1-0.7-0.1c-0.3,0-0.5,0-0.7,0.1s-0.4,0.2-0.6,0.3s-0.3,0.3-0.4,0.5s-0.1,0.4-0.1,0.6
		c0,0.3,0.1,0.5,0.3,0.7s0.4,0.3,0.7,0.4s0.6,0.2,0.9,0.4c0.3,0.1,0.6,0.3,0.9,0.4s0.5,0.4,0.7,0.7s0.3,0.6,0.3,1.1
		c0,0.4-0.1,0.8-0.2,1.2s-0.4,0.7-0.7,1c-0.3,0.3-0.7,0.5-1.1,0.7s-0.9,0.3-1.5,0.3s-1.1-0.1-1.5-0.3s-0.8-0.5-1.1-0.8l0.4-0.6
		c0-0.1,0.1-0.1,0.2-0.2c0.1,0,0.1-0.1,0.3-0.1c0.1,0,0.2,0,0.3,0.1c0.1,0.1,0.2,0.2,0.4,0.3c0.1,0.1,0.3,0.2,0.5,0.3
		s0.5,0.1,0.8,0.1s0.6,0,0.8-0.1s0.4-0.2,0.6-0.4c0.2-0.1,0.3-0.3,0.4-0.5s0.1-0.4,0.1-0.6c0-0.3-0.1-0.5-0.3-0.7
		c-0.2-0.2-0.4-0.3-0.7-0.5c-0.3-0.1-0.6-0.2-0.9-0.3s-0.6-0.2-0.9-0.4s-0.5-0.4-0.7-0.6c-0.2-0.3-0.3-0.6-0.3-1.1
		c0-0.4,0.1-0.8,0.2-1.1c0.2-0.4,0.4-0.7,0.7-0.9c0.3-0.3,0.6-0.5,1-0.7s0.9-0.2,1.4-0.2s1,0.1,1.4,0.3s0.8,0.4,1.1,0.7L365.7,38.3z
		"/>
</g>
</svg>
