<?xml version="1.0" encoding="utf-8"?>
<!-- Generator: Adobe Illustrator 19.2.0, SVG Export Plug-In . SVG Version: 6.00 Build 0)  -->
<svg version="1.1" id="Layer_1" xmlns="http://www.w3.org/2000/svg" xmlns:xlink="http://www.w3.org/1999/xlink" x="0px" y="0px"
	 viewBox="0 0 620 440" style="enable-background:new 0 0 620 440;" xml:space="preserve">
<style type="text/css">
	.st0{fill:#15B06D;}
	.st1{fill:#7460CC;}
	.st2{fill:#3AA7BD;}
	.st3{fill:#A98EFF;}
	.st4{fill:#785CDB;}
	.st5{fill:#8D76E2;}
	.st6{fill:none;stroke:#785CDB;stroke-width:2;stroke-miterlimit:10;stroke-dasharray:3,4;}
	.st7{fill:none;stroke:#8D76E2;stroke-width:2;stroke-miterlimit:10;stroke-dasharray:3,4;}
	.st8{fill:#3DE6A8;}
	.st9{fill:#26D290;}
	.st10{fill:none;stroke:#15B06D;stroke-width:2;stroke-miterlimit:10;}
	.st11{fill:none;stroke:#15B06D;stroke-width:2;stroke-miterlimit:10;stroke-dasharray:2.9952,3.9935;}
	.st12{fill:none;stroke:#26D290;stroke-width:2;stroke-miterlimit:10;}
	.st13{fill:none;stroke:#26D290;stroke-width:2;stroke-miterlimit:10;stroke-dasharray:3.022,4.0293;}
	.st14{fill:#2C8469;}
	.st15{fill:#6ED4F3;}
	.st16{fill:#52C0DF;}
	.st17{fill:none;stroke:#52C0DF;stroke-width:2;stroke-miterlimit:10;}
	.st18{fill:none;stroke:#52C0DF;stroke-width:2;stroke-miterlimit:10;stroke-dasharray:3,4;}
	.st19{fill:none;stroke:#3AA7BD;stroke-width:2;stroke-miterlimit:10;stroke-dasharray:3,4;}
	.st20{fill:none;stroke:#3AA7BD;stroke-width:2;stroke-miterlimit:10;}
</style>
<g>
	<path class="st0" d="M270,55.4c-0.2,0-0.4-0.1-0.4-0.2c-0.1-0.1-0.1-0.2-0.1-0.4l0.2-1.9c-0.2,0.4-0.5,0.7-0.7,1.1
		c-0.3,0.3-0.6,0.6-0.9,0.8s-0.6,0.4-0.9,0.5s-0.6,0.2-1,0.2c-0.8,0-1.4-0.3-1.8-0.9c-0.4-0.6-0.6-1.4-0.6-2.5c0-0.5,0.1-1,0.2-1.5
		s0.2-1,0.4-1.4s0.4-0.9,0.7-1.3c0.3-0.4,0.6-0.7,0.9-1s0.7-0.5,1.1-0.7s0.8-0.2,1.2-0.2c0.4,0,0.9,0.1,1.2,0.3
		c0.4,0.2,0.7,0.4,0.9,0.7l0.6-5h1.6L271,55.3h-1V55.4z M266.8,54.3c0.3,0,0.6-0.1,0.9-0.3s0.6-0.4,0.8-0.7c0.3-0.3,0.5-0.7,0.8-1.1
		c0.2-0.4,0.4-0.9,0.6-1.4l0.3-2.4c-0.2-0.3-0.5-0.5-0.8-0.7s-0.6-0.2-1-0.2c-0.5,0-0.9,0.1-1.3,0.4c-0.4,0.3-0.7,0.6-1,1.1
		s-0.5,0.9-0.6,1.5s-0.2,1.1-0.2,1.6c0,0.7,0.1,1.3,0.4,1.6C265.9,54.1,266.3,54.3,266.8,54.3z"/>
	<path class="st0" d="M280,55.4h-0.8c-0.2,0-0.4-0.1-0.4-0.2c-0.1-0.1-0.1-0.2-0.1-0.4l0.2-1.8c-0.2,0.4-0.4,0.7-0.7,1
		s-0.5,0.6-0.8,0.8s-0.6,0.4-0.9,0.5s-0.6,0.2-1,0.2s-0.7-0.1-1-0.2c-0.3-0.1-0.5-0.3-0.8-0.6c-0.2-0.3-0.4-0.6-0.5-1
		s-0.2-0.9-0.2-1.4s0.1-1.1,0.2-1.6s0.3-1,0.6-1.5s0.5-0.9,0.9-1.3c0.3-0.4,0.7-0.7,1.2-1c0.4-0.3,0.9-0.5,1.4-0.6
		c0.5-0.2,1-0.2,1.5-0.2c0.4,0,0.8,0,1.1,0.1c0.4,0.1,0.7,0.2,1.1,0.3L280,55.4z M276.1,54.2c0.3,0,0.6-0.1,0.9-0.3s0.5-0.4,0.8-0.7
		s0.5-0.7,0.7-1.1c0.2-0.4,0.4-0.9,0.6-1.4l0.4-3.1c-0.1-0.1-0.3-0.2-0.4-0.2s-0.3,0-0.4,0c-0.4,0-0.7,0.1-1,0.2
		c-0.3,0.1-0.7,0.3-0.9,0.5c-0.3,0.2-0.6,0.5-0.8,0.7c-0.2,0.3-0.4,0.6-0.6,1c-0.2,0.3-0.3,0.7-0.4,1.1c-0.1,0.4-0.1,0.8-0.1,1.2
		C274.7,53.5,275.2,54.2,276.1,54.2z"/>
	<path class="st0" d="M283.2,53.7L283.2,53.7c0-0.1,0-0.2,0-0.3c0-0.1,0-0.2,0-0.4s0-0.4,0.1-0.7l0.6-4.6h-1c-0.1,0-0.1,0-0.2-0.1
		c-0.1,0-0.1-0.1-0.1-0.2v-0.1c0-0.1,0-0.1,0-0.2c0-0.1,0-0.1,0-0.2c0-0.1,0-0.1,0-0.2l1.4-0.2l0.7-2.8c0-0.1,0.1-0.2,0.1-0.2
		c0.1-0.1,0.1-0.1,0.2-0.1h0.8l-0.4,3.1h2.4l-0.1,1.2h-2.4l-0.5,4.5c0,0.2-0.1,0.4-0.1,0.6c0,0.2,0,0.3,0,0.4c0,0.1,0,0.2,0,0.2v0.1
		c0,0.3,0.1,0.5,0.2,0.7c0.1,0.1,0.3,0.2,0.6,0.2c0.2,0,0.3,0,0.4-0.1s0.2-0.1,0.3-0.1c0.1-0.1,0.2-0.1,0.2-0.1
		c0.1,0,0.1-0.1,0.2-0.1h0.1l0.1,0.1l0.3,0.8c-0.3,0.3-0.6,0.5-1,0.6s-0.8,0.2-1.1,0.2c-0.6,0-1-0.2-1.4-0.5
		C283.4,54.8,283.2,54.3,283.2,53.7z"/>
	<path class="st0" d="M295.3,55.4h-0.8c-0.2,0-0.4-0.1-0.4-0.2c-0.1-0.1-0.1-0.2-0.1-0.4l0.2-1.8c-0.2,0.4-0.4,0.7-0.7,1
		s-0.5,0.6-0.8,0.8s-0.6,0.4-0.9,0.5s-0.6,0.2-1,0.2s-0.7-0.1-1-0.2c-0.3-0.1-0.5-0.3-0.8-0.6c-0.2-0.3-0.4-0.6-0.5-1
		s-0.2-0.9-0.2-1.4s0.1-1.1,0.2-1.6s0.3-1,0.6-1.5s0.5-0.9,0.9-1.3c0.3-0.4,0.7-0.7,1.2-1c0.4-0.3,0.9-0.5,1.4-0.6
		c0.5-0.2,1-0.2,1.5-0.2c0.4,0,0.8,0,1.1,0.1c0.4,0.1,0.7,0.2,1.1,0.3L295.3,55.4z M291.4,54.2c0.3,0,0.6-0.1,0.9-0.3
		s0.5-0.4,0.8-0.7s0.5-0.7,0.7-1.1c0.2-0.4,0.4-0.9,0.6-1.4l0.4-3.1c-0.1-0.1-0.3-0.2-0.4-0.2s-0.3,0-0.4,0c-0.4,0-0.7,0.1-1,0.2
		c-0.3,0.1-0.7,0.3-0.9,0.5c-0.3,0.2-0.6,0.5-0.8,0.7c-0.2,0.3-0.4,0.6-0.6,1c-0.2,0.3-0.3,0.7-0.4,1.1c-0.1,0.4-0.1,0.8-0.1,1.2
		C290,53.5,290.4,54.2,291.4,54.2z"/>
	<path class="st0" d="M297.4,54.5c0-0.2,0-0.3,0.1-0.4c0.1-0.1,0.1-0.3,0.2-0.4c0.1-0.1,0.2-0.2,0.4-0.2c0.1-0.1,0.3-0.1,0.4-0.1
		c0.2,0,0.3,0,0.4,0.1s0.3,0.1,0.4,0.2c0.1,0.1,0.2,0.2,0.2,0.4c0.1,0.1,0.1,0.3,0.1,0.4c0,0.2,0,0.3-0.1,0.4
		c-0.1,0.1-0.1,0.3-0.2,0.4c-0.1,0.1-0.2,0.2-0.4,0.2c-0.1,0.1-0.3,0.1-0.4,0.1c-0.2,0-0.3,0-0.4-0.1s-0.3-0.1-0.4-0.2
		c-0.1-0.1-0.2-0.2-0.2-0.4C297.5,54.8,297.4,54.6,297.4,54.5z"/>
	<path class="st0" d="M307.4,47.8c0,0.1-0.1,0.1-0.1,0.2c0,0-0.1,0-0.2,0s-0.2,0-0.3-0.1c-0.1-0.1-0.2-0.1-0.4-0.2s-0.3-0.2-0.5-0.2
		c-0.2-0.1-0.4-0.1-0.7-0.1c-0.3,0-0.5,0-0.7,0.1s-0.4,0.2-0.6,0.3s-0.3,0.3-0.4,0.5s-0.1,0.4-0.1,0.6c0,0.3,0.1,0.5,0.3,0.7
		s0.4,0.3,0.7,0.4c0.3,0.1,0.6,0.2,0.9,0.4c0.3,0.1,0.6,0.3,0.9,0.4c0.3,0.2,0.5,0.4,0.7,0.7s0.3,0.6,0.3,1.1c0,0.4-0.1,0.8-0.2,1.2
		s-0.4,0.7-0.7,1c-0.3,0.3-0.7,0.5-1.1,0.7s-0.9,0.3-1.5,0.3s-1.1-0.1-1.5-0.3s-0.8-0.5-1.1-0.8l0.4-0.6c0-0.1,0.1-0.1,0.2-0.2
		c0.1,0,0.1-0.1,0.3-0.1c0.1,0,0.2,0,0.3,0.1c0.1,0.1,0.2,0.2,0.4,0.3c0.1,0.1,0.3,0.2,0.5,0.3s0.5,0.1,0.8,0.1s0.6,0,0.8-0.1
		c0.2-0.1,0.4-0.2,0.6-0.4c0.2-0.1,0.3-0.3,0.4-0.5s0.1-0.4,0.1-0.6c0-0.3-0.1-0.5-0.3-0.7c-0.2-0.2-0.4-0.3-0.7-0.5
		c-0.3-0.1-0.6-0.2-0.9-0.3s-0.6-0.2-0.9-0.4s-0.5-0.4-0.7-0.6c-0.2-0.3-0.3-0.6-0.3-1.1c0-0.4,0.1-0.8,0.2-1.1
		c0.2-0.4,0.4-0.7,0.7-0.9c0.3-0.3,0.6-0.5,1-0.7s0.9-0.2,1.4-0.2s1,0.1,1.4,0.3s0.8,0.4,1.1,0.7L307.4,47.8z"/>
	<path class="st0" d="M309.3,53.7L309.3,53.7c0-0.1,0-0.2,0-0.3c0-0.1,0-0.2,0-0.4s0-0.4,0.1-0.7l0.6-4.6h-1c-0.1,0-0.1,0-0.2-0.1
		c-0.1,0-0.1-0.1-0.1-0.2v-0.1c0-0.1,0-0.1,0-0.2c0-0.1,0-0.1,0-0.2c0-0.1,0-0.1,0-0.2l1.4-0.2l0.7-2.8c0-0.1,0.1-0.2,0.1-0.2
		c0.1-0.1,0.1-0.1,0.2-0.1h0.8l-0.4,3.1h2.4l-0.1,1.2h-2.4l-0.5,4.5c0,0.2-0.1,0.4-0.1,0.6c0,0.2,0,0.3,0,0.4c0,0.1,0,0.2,0,0.2v0.1
		c0,0.3,0.1,0.5,0.2,0.7c0.1,0.1,0.3,0.2,0.6,0.2c0.2,0,0.3,0,0.4-0.1s0.2-0.1,0.3-0.1c0.1-0.1,0.2-0.1,0.2-0.1
		c0.1,0,0.1-0.1,0.2-0.1h0.1l0.1,0.1l0.3,0.8c-0.3,0.3-0.6,0.5-1,0.6s-0.8,0.2-1.1,0.2c-0.6,0-1-0.2-1.4-0.5
		C309.5,54.8,309.3,54.3,309.3,53.7z"/>
	<path class="st0" d="M317.9,55.6c-0.5,0-1-0.1-1.4-0.3s-0.8-0.4-1.1-0.7s-0.5-0.7-0.7-1.2s-0.3-1-0.3-1.6c0-0.8,0.1-1.5,0.4-2.2
		c0.2-0.7,0.6-1.3,1-1.8s0.9-0.9,1.5-1.2s1.2-0.4,1.8-0.4c0.5,0,1,0.1,1.4,0.3s0.8,0.4,1.1,0.7c0.3,0.3,0.5,0.7,0.7,1.2
		s0.3,1,0.3,1.6c0,0.8-0.1,1.5-0.4,2.2c-0.2,0.7-0.6,1.3-1,1.8s-0.9,0.9-1.5,1.2C319.2,55.4,318.6,55.6,317.9,55.6z M318.1,54.3
		c0.4,0,0.8-0.1,1.2-0.4c0.4-0.2,0.7-0.6,0.9-1s0.4-0.9,0.6-1.4c0.1-0.5,0.2-1.1,0.2-1.6c0-0.8-0.2-1.5-0.5-1.9s-0.8-0.6-1.4-0.6
		c-0.4,0-0.8,0.1-1.2,0.4c-0.4,0.2-0.7,0.6-0.9,1s-0.4,0.9-0.6,1.4c-0.1,0.5-0.2,1.1-0.2,1.6c0,0.8,0.2,1.5,0.5,1.9
		S317.4,54.3,318.1,54.3z"/>
	<path class="st0" d="M323.7,55.4l1.1-9.1h0.8c0.2,0,0.3,0,0.4,0.1s0.1,0.2,0.1,0.4v0.1V47v0.1v0.1l-0.1,1.7
		c0.4-0.8,0.8-1.5,1.3-1.9s1-0.7,1.5-0.7c0.3,0,0.5,0.1,0.8,0.2l-0.3,1.5c-0.3-0.1-0.6-0.2-0.8-0.2c-0.6,0-1.1,0.3-1.6,0.9
		s-0.8,1.4-1.1,2.6l-0.5,4.2L323.7,55.4L323.7,55.4z"/>
	<path class="st0" d="M336.4,55.4h-0.8c-0.2,0-0.4-0.1-0.4-0.2c-0.1-0.1-0.1-0.2-0.1-0.4l0.2-1.8c-0.2,0.4-0.4,0.7-0.7,1
		s-0.5,0.6-0.8,0.8s-0.6,0.4-0.9,0.5s-0.6,0.2-1,0.2s-0.7-0.1-1-0.2c-0.3-0.1-0.5-0.3-0.8-0.6c-0.2-0.3-0.4-0.6-0.5-1
		s-0.2-0.9-0.2-1.4s0.1-1.1,0.2-1.6s0.3-1,0.6-1.5c0.2-0.5,0.5-0.9,0.9-1.3c0.3-0.4,0.7-0.7,1.2-1c0.4-0.3,0.9-0.5,1.4-0.6
		c0.5-0.2,1-0.2,1.5-0.2c0.4,0,0.8,0,1.1,0.1s0.7,0.2,1.1,0.3L336.4,55.4z M332.4,54.2c0.3,0,0.6-0.1,0.9-0.3s0.5-0.4,0.8-0.7
		s0.5-0.7,0.7-1.1c0.2-0.4,0.4-0.9,0.6-1.4l0.4-3.1c-0.1-0.1-0.3-0.2-0.4-0.2s-0.3,0-0.4,0c-0.4,0-0.7,0.1-1,0.2
		c-0.3,0.1-0.7,0.3-0.9,0.5c-0.3,0.2-0.6,0.5-0.8,0.7c-0.2,0.3-0.4,0.6-0.6,1c-0.2,0.3-0.3,0.7-0.4,1.1c-0.1,0.4-0.1,0.8-0.1,1.2
		C331.1,53.5,331.5,54.2,332.4,54.2z"/>
	<path class="st0" d="M345.5,48.9c0,0.3,0,0.6-0.1,0.8s-0.2,0.5-0.3,0.7c-0.1,0.2-0.2,0.4-0.3,0.6s-0.2,0.4-0.3,0.5
		c-0.1,0.2-0.2,0.4-0.3,0.6c-0.1,0.2-0.1,0.4-0.1,0.6c0,0.3,0.1,0.5,0.2,0.7s0.3,0.4,0.4,0.6c0.1,0.2,0.3,0.5,0.4,0.7
		s0.2,0.6,0.2,0.9c0,0.4-0.1,0.8-0.3,1.2s-0.5,0.7-0.8,1c-0.4,0.3-0.8,0.5-1.3,0.7s-1.1,0.3-1.8,0.3c-0.5,0-1-0.1-1.4-0.2
		c-0.4-0.1-0.8-0.3-1.1-0.5c-0.3-0.2-0.5-0.4-0.7-0.7s-0.2-0.6-0.2-0.9c0-0.5,0.1-0.9,0.4-1.2c0.2-0.3,0.6-0.6,1-0.8
		s0.9-0.4,1.4-0.5s1-0.2,1.6-0.2c0.2,0,0.4,0,0.6,0s0.4,0,0.6,0.1c-0.1-0.1-0.1-0.2-0.1-0.4c0-0.1,0-0.3,0-0.4c0-0.2,0-0.4,0.1-0.6
		c0.1-0.2,0.2-0.4,0.3-0.7c-0.2,0.2-0.5,0.3-0.8,0.4c-0.3,0.1-0.6,0.1-1,0.1c-0.3,0-0.7-0.1-1-0.2c-0.3-0.1-0.6-0.3-0.8-0.5
		c-0.2-0.2-0.4-0.5-0.5-0.8s-0.2-0.7-0.2-1.2c0-0.4,0.1-0.9,0.2-1.3s0.4-0.8,0.7-1.1c0.3-0.3,0.7-0.6,1.1-0.8s1-0.3,1.6-0.3
		c0.7,0,1.2,0.2,1.7,0.5h2.5l-0.1,0.5c0,0.1,0,0.2-0.1,0.3s-0.1,0.1-0.3,0.2l-1.1,0.2c0.1,0.2,0.1,0.3,0.1,0.5
		S345.5,48.7,345.5,48.9z M343.8,55.7c0-0.2,0-0.3,0-0.4c0-0.1-0.1-0.3-0.1-0.4c-0.3-0.1-0.6-0.1-0.9-0.1s-0.6,0-0.8,0
		c-0.5,0-0.9,0-1.3,0.1s-0.7,0.2-0.9,0.3c-0.2,0.1-0.4,0.3-0.5,0.5s-0.2,0.4-0.2,0.6c0,0.4,0.2,0.8,0.5,1c0.4,0.2,0.9,0.3,1.5,0.3
		c0.4,0,0.8-0.1,1.1-0.2c0.3-0.1,0.6-0.2,0.8-0.4c0.2-0.2,0.4-0.4,0.5-0.6S343.8,55.9,343.8,55.7z M342,51.3c0.3,0,0.6-0.1,0.9-0.2
		c0.2-0.1,0.5-0.3,0.6-0.6c0.2-0.2,0.3-0.5,0.4-0.8s0.1-0.6,0.1-0.9c0-0.5-0.1-0.9-0.4-1.2s-0.6-0.4-1.1-0.4c-0.3,0-0.6,0.1-0.9,0.2
		c-0.2,0.1-0.5,0.3-0.6,0.5c-0.2,0.2-0.3,0.5-0.4,0.8s-0.1,0.6-0.1,0.9c0,0.5,0.1,1,0.4,1.2S341.5,51.3,342,51.3z"/>
	<path class="st0" d="M354.4,48.3c0,0.4-0.1,0.8-0.2,1.1c-0.2,0.3-0.5,0.6-0.9,0.9c-0.4,0.3-1,0.5-1.8,0.7s-1.7,0.4-2.9,0.5
		c0,0.1,0,0.1,0,0.2c0,0.1,0,0.1,0,0.2c0,0.8,0.2,1.4,0.5,1.8c0.4,0.4,0.9,0.6,1.6,0.6c0.3,0,0.5,0,0.8-0.1c0.2-0.1,0.4-0.1,0.6-0.2
		s0.3-0.2,0.5-0.3c0.1-0.1,0.3-0.2,0.4-0.3s0.2-0.2,0.3-0.2c0.1-0.1,0.2-0.1,0.3-0.1c0.1,0,0.2,0.1,0.3,0.2l0.4,0.5
		c-0.3,0.3-0.6,0.6-0.9,0.8s-0.6,0.4-0.9,0.6c-0.3,0.1-0.6,0.3-1,0.3s-0.7,0.1-1.1,0.1c-0.5,0-1-0.1-1.4-0.3s-0.8-0.4-1.1-0.7
		c-0.3-0.3-0.5-0.7-0.7-1.2s-0.2-1-0.2-1.5s0-0.9,0.1-1.4s0.2-0.9,0.4-1.3c0.2-0.4,0.4-0.8,0.7-1.2c0.3-0.4,0.6-0.7,0.9-0.9
		c0.4-0.3,0.7-0.5,1.2-0.6c0.4-0.2,0.9-0.2,1.4-0.2s0.9,0.1,1.2,0.2s0.6,0.3,0.8,0.5s0.4,0.4,0.5,0.7
		C354.4,47.8,354.4,48.1,354.4,48.3z M351.7,47.4c-0.4,0-0.7,0.1-1,0.2c-0.3,0.2-0.6,0.4-0.8,0.6c-0.2,0.3-0.5,0.6-0.6,1
		c-0.2,0.4-0.3,0.8-0.4,1.2c0.9-0.1,1.7-0.2,2.2-0.4c0.6-0.1,1-0.3,1.3-0.5s0.5-0.4,0.6-0.6c0.1-0.2,0.1-0.4,0.1-0.6
		c0-0.1,0-0.2-0.1-0.3s-0.1-0.2-0.2-0.3s-0.2-0.2-0.4-0.2C352.1,47.4,351.9,47.4,351.7,47.4z"/>
</g>
<g>
	<path class="st1" d="M77.3,46.3h1.2c0.1,0,0.2,0,0.3,0.1c0.1,0.1,0.1,0.1,0.1,0.2l0.8,5.9c0,0.2,0,0.4,0,0.6c0,0.2,0,0.4,0,0.6
		c0.1-0.2,0.1-0.4,0.2-0.6c0.1-0.2,0.2-0.4,0.2-0.6l2.5-5.9c0-0.1,0.1-0.2,0.2-0.2s0.2-0.1,0.3-0.1h0.7c0.1,0,0.2,0,0.3,0.1
		c0.1,0.1,0.1,0.1,0.1,0.2l1,5.9c0,0.2,0.1,0.4,0.1,0.6c0,0.2,0,0.4,0.1,0.6c0.1-0.2,0.1-0.4,0.2-0.6c0.1-0.2,0.1-0.4,0.2-0.6
		l2.3-5.9c0-0.1,0.1-0.2,0.2-0.2c0.1-0.1,0.2-0.1,0.3-0.1h1.2L86,55.4h-1.2c-0.1,0-0.2-0.1-0.3-0.3L83.3,49c0-0.1,0-0.2,0-0.3
		s0-0.2,0-0.3c0,0.1-0.1,0.2-0.1,0.3s-0.1,0.2-0.1,0.3l-2.6,6.2c-0.1,0.2-0.2,0.3-0.4,0.3h-1.2L77.3,46.3z"/>
	<path class="st1" d="M97.3,48.3c0,0.4-0.1,0.8-0.2,1.1s-0.5,0.6-0.9,0.9c-0.4,0.3-1,0.5-1.8,0.7s-1.7,0.4-2.9,0.5
		c0,0.1,0,0.1,0,0.2c0,0.1,0,0.1,0,0.2c0,0.8,0.2,1.4,0.5,1.8c0.4,0.4,0.9,0.6,1.6,0.6c0.3,0,0.5,0,0.8-0.1c0.2-0.1,0.4-0.1,0.6-0.2
		c0.2-0.1,0.3-0.2,0.5-0.3c0.1-0.1,0.3-0.2,0.4-0.3s0.2-0.2,0.3-0.2c0.1-0.1,0.2-0.1,0.3-0.1c0.1,0,0.2,0.1,0.3,0.2l0.4,0.5
		c-0.3,0.3-0.6,0.6-0.9,0.8s-0.6,0.4-0.9,0.6c-0.3,0.1-0.6,0.3-1,0.3s-0.7,0.1-1.1,0.1c-0.5,0-1-0.1-1.4-0.3s-0.8-0.4-1.1-0.7
		c-0.3-0.3-0.5-0.7-0.7-1.2s-0.2-1-0.2-1.5s0-0.9,0.1-1.4s0.2-0.9,0.4-1.3s0.4-0.8,0.7-1.2c0.3-0.4,0.6-0.7,0.9-0.9
		c0.4-0.3,0.7-0.5,1.2-0.6c0.4-0.2,0.9-0.2,1.4-0.2s0.9,0.1,1.2,0.2s0.6,0.3,0.8,0.5s0.4,0.4,0.5,0.7S97.3,48.1,97.3,48.3z
		 M94.5,47.4c-0.4,0-0.7,0.1-1,0.2c-0.3,0.2-0.6,0.4-0.8,0.6c-0.2,0.3-0.5,0.6-0.6,1c-0.2,0.4-0.3,0.8-0.4,1.2
		c0.9-0.1,1.7-0.2,2.2-0.4c0.6-0.1,1-0.3,1.3-0.5s0.5-0.4,0.6-0.6c0.1-0.2,0.1-0.4,0.1-0.6c0-0.1,0-0.2-0.1-0.3
		c0-0.1-0.1-0.2-0.2-0.3s-0.2-0.2-0.4-0.2C94.9,47.4,94.7,47.4,94.5,47.4z"/>
	<path class="st1" d="M98.3,55.4l1.6-13.3h1.6l-0.8,6.4c0.2-0.4,0.5-0.7,0.7-1s0.5-0.6,0.8-0.8s0.6-0.4,0.9-0.5s0.6-0.2,1-0.2
		c0.8,0,1.4,0.3,1.8,0.8c0.4,0.6,0.6,1.4,0.6,2.5c0,0.5-0.1,1-0.2,1.5s-0.2,1-0.4,1.4c-0.2,0.4-0.4,0.9-0.7,1.3
		c-0.3,0.4-0.6,0.7-0.9,1s-0.7,0.5-1.1,0.7s-0.8,0.2-1.2,0.2c-0.5,0-0.9-0.1-1.3-0.3s-0.7-0.5-1-0.9l0.1,0.8c0,0.2-0.1,0.3-0.2,0.4
		c-0.1,0.1-0.2,0.1-0.4,0.1L98.3,55.4L98.3,55.4z M103.5,47.5c-0.3,0-0.6,0.1-0.9,0.3s-0.6,0.4-0.9,0.7s-0.5,0.7-0.8,1.1
		c-0.2,0.4-0.4,0.9-0.6,1.4l-0.3,2.4c0.2,0.3,0.5,0.6,0.8,0.7c0.3,0.1,0.6,0.2,1,0.2c0.3,0,0.6-0.1,0.9-0.2c0.3-0.1,0.5-0.3,0.8-0.5
		c0.2-0.2,0.4-0.5,0.6-0.8s0.3-0.6,0.5-1s0.2-0.7,0.3-1.1s0.1-0.7,0.1-1.1c0-0.7-0.1-1.3-0.4-1.6S104,47.5,103.5,47.5z"/>
	<path class="st1" d="M107.5,54.5c0-0.2,0-0.3,0.1-0.4c0.1-0.1,0.1-0.3,0.2-0.4c0.1-0.1,0.2-0.2,0.4-0.2c0.1-0.1,0.3-0.1,0.4-0.1
		c0.2,0,0.3,0,0.4,0.1s0.3,0.1,0.4,0.2c0.1,0.1,0.2,0.2,0.2,0.4c0.1,0.1,0.1,0.3,0.1,0.4c0,0.2,0,0.3-0.1,0.4
		c-0.1,0.1-0.1,0.3-0.2,0.4c-0.1,0.1-0.2,0.2-0.4,0.2c-0.1,0.1-0.3,0.1-0.4,0.1c-0.2,0-0.3,0-0.4-0.1s-0.3-0.1-0.4-0.2
		c-0.1-0.1-0.2-0.2-0.2-0.4C107.5,54.8,107.5,54.6,107.5,54.5z"/>
	<path class="st1" d="M117.4,47.8c0,0.1-0.1,0.1-0.1,0.2c0,0-0.1,0-0.2,0s-0.2,0-0.3-0.1c-0.1-0.1-0.2-0.1-0.4-0.2s-0.3-0.2-0.5-0.2
		c-0.2-0.1-0.4-0.1-0.7-0.1c-0.3,0-0.5,0-0.7,0.1s-0.4,0.2-0.6,0.3s-0.3,0.3-0.4,0.5s-0.1,0.4-0.1,0.6c0,0.3,0.1,0.5,0.3,0.7
		s0.4,0.3,0.7,0.4c0.3,0.1,0.6,0.2,0.9,0.4c0.3,0.1,0.6,0.3,0.9,0.4c0.3,0.2,0.5,0.4,0.7,0.7s0.3,0.6,0.3,1.1c0,0.4-0.1,0.8-0.2,1.2
		s-0.4,0.7-0.7,1c-0.3,0.3-0.7,0.5-1.1,0.7s-0.9,0.3-1.5,0.3s-1.1-0.1-1.5-0.3s-0.8-0.5-1.1-0.8l0.4-0.6c0-0.1,0.1-0.1,0.2-0.2
		c0.1,0,0.1-0.1,0.3-0.1c0.1,0,0.2,0,0.3,0.1c0.1,0.1,0.2,0.2,0.4,0.3c0.1,0.1,0.3,0.2,0.5,0.3s0.5,0.1,0.8,0.1s0.6,0,0.8-0.1
		c0.2-0.1,0.4-0.2,0.6-0.4c0.2-0.1,0.3-0.3,0.4-0.5s0.1-0.4,0.1-0.6c0-0.3-0.1-0.5-0.3-0.7c-0.2-0.2-0.4-0.3-0.7-0.5
		c-0.3-0.1-0.6-0.2-0.9-0.3s-0.6-0.2-0.9-0.4s-0.5-0.4-0.7-0.6c-0.2-0.3-0.3-0.6-0.3-1.1c0-0.4,0.1-0.8,0.2-1.1
		c0.2-0.4,0.4-0.7,0.7-0.9c0.3-0.3,0.6-0.5,1-0.7s0.9-0.2,1.4-0.2s1,0.1,1.4,0.3s0.8,0.4,1.1,0.7L117.4,47.8z"/>
	<path class="st1" d="M121.4,46.3l-1.1,9.1h-1.6l1.1-9.1C119.8,46.3,121.4,46.3,121.4,46.3z M122,43.5c0,0.2,0,0.3-0.1,0.4
		c-0.1,0.1-0.1,0.3-0.3,0.4c-0.1,0.1-0.2,0.2-0.4,0.2c-0.1,0.1-0.3,0.1-0.4,0.1s-0.3,0-0.4-0.1s-0.2-0.1-0.3-0.2
		c-0.1-0.1-0.2-0.2-0.2-0.4c-0.1-0.1-0.1-0.3-0.1-0.4c0-0.2,0-0.3,0.1-0.4s0.1-0.3,0.2-0.4c0.1-0.1,0.2-0.2,0.4-0.3
		c0.1-0.1,0.3-0.1,0.4-0.1s0.3,0,0.4,0.1s0.3,0.1,0.4,0.2c0.1,0.1,0.2,0.2,0.2,0.4C122,43.2,122,43.3,122,43.5z"/>
	<path class="st1" d="M123.7,53.7L123.7,53.7c0-0.1,0-0.2,0-0.3c0-0.1,0-0.2,0-0.4s0-0.4,0.1-0.7l0.6-4.6h-1c-0.1,0-0.1,0-0.2-0.1
		c-0.1,0-0.1-0.1-0.1-0.2v-0.1c0-0.1,0-0.1,0-0.2c0-0.1,0-0.1,0-0.2c0-0.1,0-0.1,0-0.2l1.4-0.2l0.7-2.8c0-0.1,0.1-0.2,0.1-0.2
		c0.1-0.1,0.1-0.1,0.2-0.1h0.8l-0.4,3.1h2.4l-0.1,1.2H126l-0.5,4.5c0,0.2-0.1,0.4-0.1,0.6c0,0.2,0,0.3,0,0.4c0,0.1,0,0.2,0,0.2v0.1
		c0,0.3,0.1,0.5,0.2,0.7c0.1,0.1,0.3,0.2,0.6,0.2c0.2,0,0.3,0,0.4-0.1s0.2-0.1,0.3-0.1c0.1-0.1,0.2-0.1,0.2-0.1
		c0.1,0,0.1-0.1,0.2-0.1h0.1l0.1,0.1l0.3,0.8c-0.3,0.3-0.6,0.5-1,0.6s-0.8,0.2-1.1,0.2c-0.6,0-1-0.2-1.4-0.5
		C123.9,54.8,123.7,54.3,123.7,53.7z"/>
	<path class="st1" d="M136.4,48.3c0,0.4-0.1,0.8-0.2,1.1s-0.5,0.6-0.9,0.9c-0.4,0.3-1,0.5-1.8,0.7s-1.7,0.4-2.9,0.5
		c0,0.1,0,0.1,0,0.2c0,0.1,0,0.1,0,0.2c0,0.8,0.2,1.4,0.5,1.8c0.4,0.4,0.9,0.6,1.6,0.6c0.3,0,0.5,0,0.8-0.1c0.2-0.1,0.4-0.1,0.6-0.2
		c0.2-0.1,0.3-0.2,0.5-0.3c0.1-0.1,0.3-0.2,0.4-0.3c0.1-0.1,0.2-0.2,0.3-0.2c0.1-0.1,0.2-0.1,0.3-0.1s0.2,0.1,0.3,0.2l0.4,0.5
		c-0.3,0.3-0.6,0.6-0.9,0.8c-0.3,0.2-0.6,0.4-0.9,0.6c-0.3,0.1-0.6,0.3-1,0.3s-0.7,0.1-1.1,0.1c-0.5,0-1-0.1-1.4-0.3
		s-0.8-0.4-1.1-0.7s-0.5-0.7-0.7-1.2s-0.2-1-0.2-1.5s0-0.9,0.1-1.4s0.2-0.9,0.4-1.3s0.4-0.8,0.7-1.2s0.6-0.7,0.9-0.9
		c0.4-0.3,0.7-0.5,1.2-0.6c0.4-0.2,0.9-0.2,1.4-0.2s0.9,0.1,1.2,0.2s0.6,0.3,0.8,0.5s0.4,0.4,0.5,0.7S136.4,48.1,136.4,48.3z
		 M133.6,47.4c-0.4,0-0.7,0.1-1,0.2c-0.3,0.2-0.6,0.4-0.8,0.6c-0.2,0.3-0.5,0.6-0.6,1c-0.2,0.4-0.3,0.8-0.4,1.2
		c0.9-0.1,1.7-0.2,2.2-0.4c0.6-0.1,1-0.3,1.3-0.5s0.5-0.4,0.6-0.6c0.1-0.2,0.1-0.4,0.1-0.6c0-0.1,0-0.2-0.1-0.3
		c0-0.1-0.1-0.2-0.2-0.3s-0.2-0.2-0.4-0.2C134.1,47.4,133.9,47.4,133.6,47.4z"/>
</g>
<g>
	<path class="st2" d="M458.5,46.3h1.2c0.1,0,0.2,0,0.3,0.1c0.1,0.1,0.1,0.1,0.1,0.2l0.8,5.9c0,0.2,0,0.4,0,0.6c0,0.2,0,0.4,0,0.6
		c0.1-0.2,0.1-0.4,0.2-0.6c0.1-0.2,0.2-0.4,0.2-0.6l2.5-5.9c0-0.1,0.1-0.2,0.2-0.2s0.2-0.1,0.3-0.1h0.7c0.1,0,0.2,0,0.3,0.1
		c0.1,0.1,0.1,0.1,0.1,0.2l1,5.9c0,0.2,0.1,0.4,0.1,0.6c0,0.2,0,0.4,0.1,0.6c0.1-0.2,0.1-0.4,0.2-0.6c0.1-0.2,0.1-0.4,0.2-0.6
		l2.3-5.9c0-0.1,0.1-0.2,0.2-0.2c0.1-0.1,0.2-0.1,0.3-0.1h1.2l-3.8,9.1H466c-0.1,0-0.2-0.1-0.3-0.3l-1.1-6.2c0-0.1,0-0.2,0-0.3
		s0-0.2,0-0.3c0,0.1-0.1,0.2-0.1,0.3s-0.1,0.2-0.1,0.3l-2.6,6.2c-0.1,0.2-0.2,0.3-0.4,0.3h-1.2L458.5,46.3z"/>
	<path class="st2" d="M474.4,55.6c-0.5,0-1-0.1-1.4-0.3s-0.8-0.4-1.1-0.7c-0.3-0.3-0.5-0.7-0.7-1.2s-0.3-1-0.3-1.6
		c0-0.8,0.1-1.5,0.4-2.2s0.6-1.3,1-1.8s0.9-0.9,1.5-1.2s1.2-0.4,1.8-0.4c0.5,0,1,0.1,1.4,0.3s0.8,0.4,1.1,0.7
		c0.3,0.3,0.5,0.7,0.7,1.2s0.3,1,0.3,1.6c0,0.8-0.1,1.5-0.4,2.2c-0.2,0.7-0.6,1.3-1,1.8s-0.9,0.9-1.5,1.2S475.1,55.6,474.4,55.6z
		 M474.5,54.3c0.4,0,0.8-0.1,1.2-0.4c0.4-0.2,0.7-0.6,0.9-1s0.4-0.9,0.6-1.4c0.1-0.5,0.2-1.1,0.2-1.6c0-0.8-0.2-1.5-0.5-1.9
		s-0.8-0.6-1.4-0.6c-0.4,0-0.8,0.1-1.2,0.4c-0.4,0.2-0.7,0.6-0.9,1s-0.4,0.9-0.6,1.4c-0.1,0.5-0.2,1.1-0.2,1.6
		c0,0.8,0.2,1.5,0.5,1.9C473.4,54.1,473.9,54.3,474.5,54.3z"/>
	<path class="st2" d="M480.2,55.4l1.1-9.1h0.8c0.2,0,0.3,0,0.4,0.1s0.1,0.2,0.1,0.4v0.1V47v0.1v0.1l-0.1,1.7
		c0.4-0.8,0.8-1.5,1.3-1.9c0.5-0.5,1-0.7,1.5-0.7c0.3,0,0.5,0.1,0.8,0.2l-0.3,1.5c-0.3-0.1-0.6-0.2-0.8-0.2c-0.6,0-1.1,0.3-1.6,0.9
		s-0.8,1.4-1.1,2.6l-0.5,4.2L480.2,55.4L480.2,55.4z"/>
	<path class="st2" d="M489.8,42.2l-1,7.8h0.3c0.1,0,0.2,0,0.3,0c0.1,0,0.2-0.1,0.3-0.2l3-3.1c0.1-0.1,0.2-0.2,0.3-0.2
		c0.1-0.1,0.2-0.1,0.4-0.1h1.4l-3.5,3.6c-0.1,0.1-0.2,0.2-0.3,0.3s-0.2,0.2-0.3,0.2c0.1,0.1,0.2,0.2,0.2,0.3
		c0.1,0.1,0.1,0.2,0.2,0.3l2.7,4.5h-1.4c-0.1,0-0.2,0-0.3-0.1c-0.1,0-0.2-0.1-0.2-0.2l-2.3-3.7c-0.1-0.1-0.2-0.2-0.2-0.2
		s-0.2-0.1-0.4-0.1h-0.3l-0.5,4.4h-1.6l1.6-13.3h1.6V42.2z"/>
	<path class="st2" d="M502,48.3c0,0.4-0.1,0.8-0.2,1.1s-0.5,0.6-0.9,0.9c-0.4,0.3-1,0.5-1.8,0.7s-1.7,0.4-2.9,0.5c0,0.1,0,0.1,0,0.2
		c0,0.1,0,0.1,0,0.2c0,0.8,0.2,1.4,0.5,1.8c0.4,0.4,0.9,0.6,1.6,0.6c0.3,0,0.5,0,0.8-0.1c0.2-0.1,0.4-0.1,0.6-0.2
		c0.2-0.1,0.3-0.2,0.5-0.3c0.1-0.1,0.3-0.2,0.4-0.3s0.2-0.2,0.3-0.2c0.1-0.1,0.2-0.1,0.3-0.1c0.1,0,0.2,0.1,0.3,0.2l0.4,0.5
		c-0.3,0.3-0.6,0.6-0.9,0.8s-0.6,0.4-0.9,0.6c-0.3,0.1-0.6,0.3-1,0.3s-0.7,0.1-1.1,0.1c-0.5,0-1-0.1-1.4-0.3s-0.8-0.4-1.1-0.7
		c-0.3-0.3-0.5-0.7-0.7-1.2s-0.2-1-0.2-1.5s0-0.9,0.1-1.4s0.2-0.9,0.4-1.3c0.2-0.4,0.4-0.8,0.7-1.2c0.3-0.4,0.6-0.7,0.9-0.9
		c0.4-0.3,0.7-0.5,1.2-0.6c0.4-0.2,0.9-0.2,1.4-0.2s0.9,0.1,1.2,0.2s0.6,0.3,0.8,0.5s0.4,0.4,0.5,0.7C501.9,47.8,502,48.1,502,48.3z
		 M499.2,47.4c-0.4,0-0.7,0.1-1,0.2c-0.3,0.2-0.6,0.4-0.8,0.6c-0.2,0.3-0.5,0.6-0.6,1c-0.2,0.4-0.3,0.8-0.4,1.2
		c0.9-0.1,1.7-0.2,2.2-0.4c0.6-0.1,1-0.3,1.3-0.5s0.5-0.4,0.6-0.6c0.1-0.2,0.1-0.4,0.1-0.6c0-0.1,0-0.2-0.1-0.3
		c0-0.1-0.1-0.2-0.2-0.3s-0.2-0.2-0.4-0.2C499.7,47.4,499.5,47.4,499.2,47.4z"/>
	<path class="st2" d="M503,55.4l1.1-9.1h0.8c0.2,0,0.3,0,0.4,0.1s0.1,0.2,0.1,0.4v0.1V47v0.1v0.1l-0.1,1.7c0.4-0.8,0.8-1.5,1.3-1.9
		c0.5-0.5,1-0.7,1.5-0.7c0.3,0,0.5,0.1,0.8,0.2l-0.3,1.5c-0.3-0.1-0.6-0.2-0.8-0.2c-0.6,0-1.1,0.3-1.6,0.9s-0.8,1.4-1.1,2.6
		l-0.5,4.2L503,55.4L503,55.4z"/>
	<path class="st2" d="M507.7,54.5c0-0.2,0-0.3,0.1-0.4c0.1-0.1,0.1-0.3,0.2-0.4c0.1-0.1,0.2-0.2,0.4-0.2c0.1-0.1,0.3-0.1,0.4-0.1
		c0.2,0,0.3,0,0.4,0.1s0.3,0.1,0.4,0.2c0.1,0.1,0.2,0.2,0.2,0.4c0.1,0.1,0.1,0.3,0.1,0.4c0,0.2,0,0.3-0.1,0.4
		c-0.1,0.1-0.1,0.3-0.2,0.4c-0.1,0.1-0.2,0.2-0.4,0.2c-0.1,0.1-0.3,0.1-0.4,0.1c-0.2,0-0.3,0-0.4-0.1s-0.3-0.1-0.4-0.2
		c-0.1-0.1-0.2-0.2-0.2-0.4C507.7,54.8,507.7,54.6,507.7,54.5z"/>
	<path class="st2" d="M514.6,46.3l-1.1,9.1H512l1.1-9.1C513.1,46.3,514.6,46.3,514.6,46.3z M515.3,43.5c0,0.2,0,0.3-0.1,0.4
		c-0.1,0.1-0.1,0.3-0.3,0.4c-0.1,0.1-0.2,0.2-0.4,0.2c-0.1,0.1-0.3,0.1-0.4,0.1c-0.1,0-0.3,0-0.4-0.1c-0.1-0.1-0.2-0.1-0.3-0.2
		c-0.1-0.1-0.2-0.2-0.2-0.4c-0.1-0.1-0.1-0.3-0.1-0.4c0-0.2,0-0.3,0.1-0.4c0.1-0.1,0.1-0.3,0.2-0.4c0.1-0.1,0.2-0.2,0.4-0.3
		c0.1-0.1,0.3-0.1,0.4-0.1c0.1,0,0.3,0,0.4,0.1c0.1,0.1,0.3,0.1,0.4,0.2c0.1,0.1,0.2,0.2,0.2,0.4C515.2,43.2,515.3,43.3,515.3,43.5z
		"/>
	<path class="st2" d="M516.1,55.4l1.1-9.1h0.8c0.4,0,0.5,0.2,0.5,0.5l-0.1,1.6c0.4-0.8,0.9-1.3,1.5-1.7c0.5-0.4,1.1-0.6,1.7-0.6
		c0.6,0,1.1,0.2,1.4,0.6c0.3,0.4,0.4,1,0.4,1.8c0.5-0.8,1-1.5,1.5-1.8c0.6-0.4,1.2-0.6,1.8-0.6c0.7,0,1.2,0.2,1.5,0.7
		c0.3,0.4,0.5,1.1,0.5,1.9c0,0.1,0,0.3,0,0.4c0,0.2,0,0.3,0,0.5l-0.7,5.8h-1.6l0.7-5.8c0-0.3,0.1-0.6,0.1-0.8c0-0.4-0.1-0.8-0.2-1
		s-0.4-0.3-0.8-0.3c-0.3,0-0.5,0.1-0.8,0.2s-0.5,0.3-0.7,0.6s-0.5,0.6-0.7,0.9s-0.4,0.8-0.6,1.3l-0.6,5h-1.6l0.7-5.8
		c0-0.2,0-0.3,0-0.5c0-0.1,0-0.3,0-0.4c0-0.4-0.1-0.7-0.2-0.9s-0.4-0.3-0.7-0.3s-0.6,0.1-0.8,0.2c-0.3,0.1-0.5,0.4-0.8,0.6
		c-0.2,0.3-0.5,0.6-0.7,1s-0.4,0.8-0.6,1.3l-0.6,4.8h-1.4V55.4z"/>
	<path class="st2" d="M537,55.4h-0.8c-0.2,0-0.4-0.1-0.4-0.2c-0.1-0.1-0.1-0.2-0.1-0.4l0.2-1.8c-0.2,0.4-0.4,0.7-0.7,1
		s-0.5,0.6-0.8,0.8s-0.6,0.4-0.9,0.5c-0.3,0.1-0.6,0.2-1,0.2s-0.7-0.1-1-0.2c-0.3-0.1-0.5-0.3-0.8-0.6c-0.2-0.3-0.4-0.6-0.5-1
		s-0.2-0.9-0.2-1.4s0.1-1.1,0.2-1.6c0.1-0.5,0.3-1,0.6-1.5c0.2-0.5,0.5-0.9,0.9-1.3c0.3-0.4,0.7-0.7,1.2-1c0.4-0.3,0.9-0.5,1.4-0.6
		c0.5-0.2,1-0.2,1.5-0.2c0.4,0,0.8,0,1.1,0.1s0.7,0.2,1.1,0.3L537,55.4z M533,54.2c0.3,0,0.6-0.1,0.9-0.3c0.3-0.2,0.5-0.4,0.8-0.7
		s0.5-0.7,0.7-1.1c0.2-0.4,0.4-0.9,0.6-1.4l0.4-3.1c-0.1-0.1-0.3-0.2-0.4-0.2s-0.3,0-0.4,0c-0.4,0-0.7,0.1-1,0.2
		c-0.3,0.1-0.7,0.3-0.9,0.5c-0.3,0.2-0.6,0.5-0.8,0.7c-0.2,0.3-0.4,0.6-0.6,1c-0.2,0.3-0.3,0.7-0.4,1.1c-0.1,0.4-0.1,0.8-0.1,1.2
		C531.6,53.5,532.1,54.2,533,54.2z"/>
	<path class="st2" d="M546,48.9c0,0.3,0,0.6-0.1,0.8s-0.2,0.5-0.3,0.7s-0.2,0.4-0.3,0.6s-0.2,0.4-0.3,0.5c-0.1,0.2-0.2,0.4-0.3,0.6
		c-0.1,0.2-0.1,0.4-0.1,0.6c0,0.3,0.1,0.5,0.2,0.7s0.3,0.4,0.4,0.6c0.1,0.2,0.3,0.5,0.4,0.7s0.2,0.6,0.2,0.9c0,0.4-0.1,0.8-0.3,1.2
		s-0.5,0.7-0.8,1c-0.4,0.3-0.8,0.5-1.3,0.7s-1.1,0.3-1.8,0.3c-0.5,0-1-0.1-1.4-0.2c-0.4-0.1-0.8-0.3-1.1-0.5s-0.5-0.4-0.7-0.7
		s-0.2-0.6-0.2-0.9c0-0.5,0.1-0.9,0.4-1.2c0.2-0.3,0.6-0.6,1-0.8s0.9-0.4,1.4-0.5s1-0.2,1.6-0.2c0.2,0,0.4,0,0.6,0
		c0.2,0,0.4,0,0.6,0.1c-0.1-0.1-0.1-0.2-0.1-0.4c0-0.1,0-0.3,0-0.4c0-0.2,0-0.4,0.1-0.6c0.1-0.2,0.2-0.4,0.3-0.7
		c-0.2,0.2-0.5,0.3-0.8,0.4c-0.3,0.1-0.6,0.1-1,0.1c-0.3,0-0.7-0.1-1-0.2c-0.3-0.1-0.6-0.3-0.8-0.5s-0.4-0.5-0.5-0.8
		s-0.2-0.7-0.2-1.2c0-0.4,0.1-0.9,0.2-1.3s0.4-0.8,0.7-1.1s0.7-0.6,1.1-0.8s1-0.3,1.6-0.3c0.7,0,1.2,0.2,1.7,0.5h2.5l-0.1,0.5
		c0,0.1,0,0.2-0.1,0.3s-0.1,0.1-0.3,0.2l-1.1,0.2c0.1,0.2,0.1,0.3,0.1,0.5S546,48.7,546,48.9z M544.4,55.7c0-0.2,0-0.3,0-0.4
		c0-0.1-0.1-0.3-0.1-0.4c-0.3-0.1-0.6-0.1-0.9-0.1s-0.6,0-0.8,0c-0.5,0-0.9,0-1.3,0.1c-0.4,0.1-0.7,0.2-0.9,0.3s-0.4,0.3-0.5,0.5
		s-0.2,0.4-0.2,0.6c0,0.4,0.2,0.8,0.5,1c0.4,0.2,0.9,0.3,1.5,0.3c0.4,0,0.8-0.1,1.1-0.2c0.3-0.1,0.6-0.2,0.8-0.4s0.4-0.4,0.5-0.6
		S544.4,55.9,544.4,55.7z M542.6,51.3c0.3,0,0.6-0.1,0.9-0.2c0.2-0.1,0.5-0.3,0.6-0.6c0.2-0.2,0.3-0.5,0.4-0.8s0.1-0.6,0.1-0.9
		c0-0.5-0.1-0.9-0.4-1.2c-0.3-0.3-0.6-0.4-1.1-0.4c-0.3,0-0.6,0.1-0.9,0.2c-0.2,0.1-0.5,0.3-0.6,0.5c-0.2,0.2-0.3,0.5-0.4,0.8
		c-0.1,0.3-0.1,0.6-0.1,0.9c0,0.5,0.1,1,0.4,1.2S542.1,51.3,542.6,51.3z"/>
	<path class="st2" d="M555,48.3c0,0.4-0.1,0.8-0.2,1.1c-0.2,0.3-0.5,0.6-0.9,0.9c-0.4,0.3-1,0.5-1.8,0.7s-1.7,0.4-2.9,0.5
		c0,0.1,0,0.1,0,0.2c0,0.1,0,0.1,0,0.2c0,0.8,0.2,1.4,0.5,1.8c0.4,0.4,0.9,0.6,1.6,0.6c0.3,0,0.5,0,0.8-0.1c0.2-0.1,0.4-0.1,0.6-0.2
		s0.3-0.2,0.5-0.3c0.1-0.1,0.3-0.2,0.4-0.3s0.2-0.2,0.3-0.2c0.1-0.1,0.2-0.1,0.3-0.1s0.2,0.1,0.3,0.2l0.4,0.5
		c-0.3,0.3-0.6,0.6-0.9,0.8c-0.3,0.2-0.6,0.4-0.9,0.6c-0.3,0.1-0.6,0.3-1,0.3s-0.7,0.1-1.1,0.1c-0.5,0-1-0.1-1.4-0.3
		s-0.8-0.4-1.1-0.7s-0.5-0.7-0.7-1.2s-0.2-1-0.2-1.5s0-0.9,0.1-1.4s0.2-0.9,0.4-1.3c0.2-0.4,0.4-0.8,0.7-1.2s0.6-0.7,0.9-0.9
		c0.4-0.3,0.7-0.5,1.2-0.6c0.4-0.2,0.9-0.2,1.4-0.2s0.9,0.1,1.2,0.2s0.6,0.3,0.8,0.5s0.4,0.4,0.5,0.7C554.9,47.8,555,48.1,555,48.3z
		 M552.2,47.4c-0.4,0-0.7,0.1-1,0.2c-0.3,0.2-0.6,0.4-0.8,0.6c-0.2,0.3-0.5,0.6-0.6,1c-0.2,0.4-0.3,0.8-0.4,1.2
		c0.9-0.1,1.7-0.2,2.2-0.4c0.6-0.1,1-0.3,1.3-0.5s0.5-0.4,0.6-0.6c0.1-0.2,0.1-0.4,0.1-0.6c0-0.1,0-0.2-0.1-0.3s-0.1-0.2-0.2-0.3
		c-0.1-0.1-0.2-0.2-0.4-0.2C552.7,47.4,552.5,47.4,552.2,47.4z"/>
	<path class="st2" d="M561.9,47.8c0,0.1-0.1,0.1-0.1,0.2c0,0-0.1,0-0.2,0c-0.1,0-0.2,0-0.3-0.1s-0.2-0.1-0.4-0.2
		c-0.1-0.1-0.3-0.2-0.5-0.2c-0.2-0.1-0.5-0.1-0.7-0.1c-0.3,0-0.5,0-0.7,0.1s-0.4,0.2-0.6,0.3c-0.2,0.1-0.3,0.3-0.4,0.5
		c-0.1,0.2-0.1,0.4-0.1,0.6c0,0.3,0.1,0.5,0.3,0.7s0.4,0.3,0.7,0.4s0.6,0.2,0.9,0.4c0.3,0.1,0.6,0.3,0.9,0.4s0.5,0.4,0.7,0.7
		s0.3,0.6,0.3,1.1c0,0.4-0.1,0.8-0.2,1.2s-0.4,0.7-0.7,1s-0.7,0.5-1.1,0.7s-0.9,0.3-1.5,0.3s-1.1-0.1-1.5-0.3s-0.8-0.5-1.1-0.8
		l0.4-0.6c0-0.1,0.1-0.1,0.2-0.2c0.1,0,0.1-0.1,0.3-0.1c0.1,0,0.2,0,0.3,0.1s0.2,0.2,0.4,0.3c0.1,0.1,0.3,0.2,0.5,0.3
		s0.5,0.1,0.8,0.1s0.6,0,0.8-0.1s0.4-0.2,0.6-0.4c0.2-0.1,0.3-0.3,0.4-0.5c0.1-0.2,0.1-0.4,0.1-0.6c0-0.3-0.1-0.5-0.3-0.7
		s-0.4-0.3-0.7-0.5c-0.3-0.1-0.6-0.2-0.9-0.3c-0.3-0.1-0.6-0.2-0.9-0.4c-0.3-0.2-0.5-0.4-0.7-0.6c-0.2-0.3-0.3-0.6-0.3-1.1
		c0-0.4,0.1-0.8,0.2-1.1c0.2-0.4,0.4-0.7,0.7-0.9c0.3-0.3,0.6-0.5,1-0.7s0.9-0.2,1.4-0.2s1,0.1,1.4,0.3s0.8,0.4,1.1,0.7L561.9,47.8z
		"/>
</g>
<polygon id="XMLID_160_" class="st3" points="106.9,143 34.8,107 106.9,70.9 179,107 "/>
<polygon id="XMLID_159_" class="st4" points="106.9,179.1 34.8,143 34.8,107 106.9,143 "/>
<polygon id="XMLID_158_" class="st5" points="106.9,179.1 179,143 179,107 106.9,143 "/>
<polygon id="XMLID_157_" class="st3" points="106.9,359 34.8,323 106.9,286.9 179,323 "/>
<polygon id="XMLID_156_" class="st4" points="106.9,286.9 179,323 179,359 106.9,323 "/>
<polygon id="XMLID_155_" class="st5" points="106.9,286.9 34.8,323 34.8,359 106.9,323 "/>
<polygon id="XMLID_154_" class="st4" points="106.9,395.1 34.8,359 34.8,323 106.9,359 "/>
<polygon id="XMLID_153_" class="st5" points="106.9,395.1 179,359 179,323 106.9,359 "/>
<g id="XMLID_150_">
	<g id="XMLID_194_">
		<line id="XMLID_238_" class="st6" x1="35.8" y1="317.9" x2="35.8" y2="145.9"/>
	</g>
</g>
<g id="XMLID_3_">
	<g id="XMLID_40_">
		<line id="XMLID_43_" class="st7" x1="177.8" y1="317.9" x2="177.8" y2="271.9"/>
	</g>
</g>
<g id="XMLID_149_">
	<g id="XMLID_118_">
		<line id="XMLID_124_" class="st7" x1="177.8" y1="146.9" x2="177.8" y2="231.9"/>
	</g>
</g>
<path id="XMLID_146_" class="st3" d="M106.9,286.9L34.8,323l72.1,36.1L179,323L106.9,286.9z M50.8,323l56-28l56,28l-56,28L50.8,323z
	"/>
<g id="XMLID_669_">
	<g id="XMLID_1164_">
		<path id="XMLID_1210_" class="st1" d="M75.3,203.9h-0.7c-0.2,0-0.3,0-0.4-0.1s-0.1-0.2-0.1-0.4l0.1-1.6c-0.2,0.3-0.4,0.6-0.6,0.9
			s-0.5,0.5-0.7,0.7s-0.5,0.3-0.8,0.4s-0.6,0.2-0.8,0.2c-0.3,0-0.6-0.1-0.9-0.2s-0.5-0.3-0.7-0.6c-0.2-0.2-0.3-0.5-0.4-0.9
			s-0.2-0.8-0.2-1.2c0-0.5,0.1-0.9,0.2-1.4s0.3-0.9,0.5-1.3c0.2-0.4,0.5-0.8,0.8-1.1s0.7-0.6,1-0.9c0.4-0.2,0.8-0.4,1.2-0.6
			c0.4-0.1,0.9-0.2,1.4-0.2c0.3,0,0.7,0,1,0.1s0.7,0.2,1,0.3L75.3,203.9z M71.8,202.8c0.3,0,0.5-0.1,0.8-0.2
			c0.3-0.2,0.5-0.4,0.7-0.7s0.4-0.6,0.6-1s0.4-0.8,0.5-1.3l0.3-2.7c-0.1-0.1-0.2-0.1-0.3-0.1c-0.1,0-0.2,0-0.3,0
			c-0.3,0-0.6,0.1-0.9,0.2s-0.6,0.2-0.8,0.4c-0.3,0.2-0.5,0.4-0.7,0.7s-0.4,0.5-0.5,0.8c-0.2,0.3-0.3,0.6-0.4,1
			c-0.1,0.3-0.1,0.7-0.1,1.1C70.5,202.2,71,202.8,71.8,202.8z"/>
		<path id="XMLID_1207_" class="st1" d="M77,206.6l1.3-10.9H79c0.3,0,0.5,0.2,0.5,0.5l-0.1,1.7c0.2-0.4,0.4-0.7,0.7-1
			c0.2-0.3,0.5-0.5,0.8-0.7s0.5-0.4,0.8-0.5s0.6-0.2,0.9-0.2c0.7,0,1.2,0.3,1.6,0.8s0.6,1.2,0.6,2.2c0,0.4,0,0.9-0.1,1.3
			c-0.1,0.4-0.2,0.9-0.4,1.3s-0.4,0.8-0.6,1.1s-0.5,0.6-0.8,0.9s-0.6,0.5-0.9,0.6s-0.7,0.2-1.1,0.2s-0.8-0.1-1.1-0.2
			c-0.3-0.2-0.6-0.4-0.8-0.7l-0.4,3.5L77,206.6L77,206.6z M82,196.8c-0.3,0-0.5,0.1-0.8,0.2s-0.5,0.4-0.8,0.7
			c-0.2,0.3-0.5,0.6-0.7,1s-0.4,0.8-0.5,1.3l-0.3,2.1c0.2,0.3,0.4,0.5,0.7,0.6c0.3,0.1,0.6,0.2,0.9,0.2s0.5-0.1,0.8-0.2
			s0.5-0.3,0.7-0.5s0.4-0.4,0.5-0.7s0.3-0.6,0.4-0.9s0.2-0.6,0.3-1s0.1-0.7,0.1-1c0-0.6-0.1-1.1-0.3-1.4S82.4,196.8,82,196.8z"/>
		<path id="XMLID_1204_" class="st1" d="M85.3,206.6l1.3-10.9h0.7c0.3,0,0.5,0.2,0.5,0.5l-0.1,1.7c0.2-0.4,0.4-0.7,0.7-1
			c0.2-0.3,0.5-0.5,0.8-0.7s0.5-0.4,0.8-0.5s0.6-0.2,0.9-0.2c0.7,0,1.2,0.3,1.6,0.8s0.6,1.2,0.6,2.2c0,0.4,0,0.9-0.1,1.3
			c-0.1,0.4-0.2,0.9-0.4,1.3s-0.4,0.8-0.6,1.1s-0.5,0.6-0.8,0.9s-0.6,0.5-0.9,0.6s-0.7,0.2-1.1,0.2s-0.8-0.1-1.1-0.2
			c-0.3-0.2-0.6-0.4-0.8-0.7l-0.4,3.5L85.3,206.6L85.3,206.6z M90.3,196.8c-0.3,0-0.5,0.1-0.8,0.2s-0.5,0.4-0.8,0.7
			c-0.2,0.3-0.5,0.6-0.7,1s-0.4,0.8-0.5,1.3l-0.3,2.1c0.2,0.3,0.4,0.5,0.7,0.6c0.3,0.1,0.6,0.2,0.9,0.2s0.5-0.1,0.8-0.2
			s0.5-0.3,0.7-0.5s0.4-0.4,0.5-0.7s0.3-0.6,0.4-0.9s0.2-0.6,0.3-1s0.1-0.7,0.1-1c0-0.6-0.1-1.1-0.3-1.4S90.7,196.8,90.3,196.8z"/>
		<path id="XMLID_1202_" class="st1" d="M94.1,204.1c-0.1,0.2-0.2,0.3-0.4,0.4c-0.2,0.1-0.3,0.1-0.4,0.1h-0.6l5.8-11.8
			c0.1-0.2,0.2-0.3,0.3-0.4s0.3-0.1,0.5-0.1h0.6L94.1,204.1z"/>
		<path id="XMLID_1199_" class="st1" d="M69,228.2l1.3-10.9H71c0.3,0,0.5,0.2,0.5,0.5l-0.1,1.7c0.2-0.4,0.4-0.7,0.7-1
			c0.2-0.3,0.5-0.5,0.8-0.7s0.5-0.4,0.8-0.5s0.6-0.2,0.9-0.2c0.7,0,1.2,0.3,1.6,0.8s0.6,1.2,0.6,2.2c0,0.4,0,0.9-0.1,1.3
			s-0.2,0.9-0.4,1.3c-0.2,0.4-0.4,0.8-0.6,1.1s-0.5,0.6-0.8,0.9s-0.6,0.5-0.9,0.6s-0.7,0.2-1.1,0.2s-0.8-0.1-1.1-0.2
			c-0.3-0.2-0.6-0.4-0.8-0.7l-0.4,3.5L69,228.2L69,228.2z M73.9,218.4c-0.3,0-0.5,0.1-0.8,0.2s-0.5,0.4-0.8,0.7
			c-0.2,0.3-0.5,0.6-0.7,1s-0.4,0.8-0.5,1.3l-0.3,2.1c0.2,0.3,0.4,0.5,0.7,0.6c0.3,0.1,0.6,0.2,0.9,0.2s0.5-0.1,0.8-0.2
			s0.5-0.3,0.7-0.5s0.4-0.4,0.5-0.7s0.3-0.6,0.4-0.9s0.2-0.6,0.3-1s0.1-0.7,0.1-1c0-0.6-0.1-1.1-0.3-1.4
			C74.7,218.6,74.3,218.4,73.9,218.4z"/>
		<path id="XMLID_1197_" class="st1" d="M79.9,217.4l-0.6,5.2c0,0.1,0,0.2,0,0.3s0,0.2,0,0.3c0,0.4,0.1,0.8,0.2,1
			c0.2,0.2,0.4,0.3,0.8,0.3c0.2,0,0.5-0.1,0.8-0.2s0.5-0.3,0.8-0.6c0.2-0.2,0.5-0.5,0.7-0.9s0.4-0.7,0.5-1.2l0.5-4.2H85l-1,8.1h-0.7
			c-0.2,0-0.3,0-0.4-0.1s-0.1-0.2-0.1-0.3V225c0-0.1,0-0.2,0-0.3s0-0.2,0-0.3s0-0.1,0-0.1l0.1-0.6c-0.4,0.7-0.9,1.2-1.4,1.6
			s-1.1,0.5-1.6,0.5c-0.6,0-1.1-0.2-1.4-0.6s-0.5-1-0.5-1.8c0-0.1,0-0.2,0-0.3s0-0.2,0-0.4l0.6-5.2L79.9,217.4L79.9,217.4z"/>
		<path id="XMLID_1194_" class="st1" d="M86.1,225.5l1.4-11.8h1.4l-0.7,5.7c0.2-0.3,0.4-0.6,0.7-0.9c0.2-0.3,0.5-0.5,0.7-0.7
			c0.3-0.2,0.5-0.3,0.8-0.4s0.6-0.2,0.8-0.2c0.7,0,1.2,0.3,1.6,0.8s0.6,1.2,0.6,2.2c0,0.4,0,0.9-0.1,1.3s-0.2,0.9-0.4,1.3
			c-0.2,0.4-0.4,0.8-0.6,1.1s-0.5,0.6-0.8,0.9s-0.6,0.5-0.9,0.6s-0.7,0.2-1.1,0.2s-0.8-0.1-1.2-0.3c-0.3-0.2-0.6-0.4-0.9-0.8
			l-0.1,0.5c0,0.1-0.1,0.2-0.2,0.3s-0.2,0.1-0.3,0.1L86.1,225.5L86.1,225.5z M90.7,218.4c-0.3,0-0.5,0.1-0.8,0.2
			c-0.3,0.2-0.5,0.4-0.8,0.7c-0.2,0.3-0.5,0.6-0.7,1s-0.4,0.8-0.6,1.3l-0.3,2.1c0.2,0.3,0.4,0.5,0.7,0.6c0.3,0.1,0.6,0.2,0.9,0.2
			s0.5-0.1,0.8-0.2c0.2-0.1,0.5-0.3,0.7-0.5s0.4-0.4,0.5-0.7s0.3-0.6,0.4-0.9s0.2-0.6,0.3-1c0.1-0.3,0.1-0.7,0.1-1
			c0-0.6-0.1-1.1-0.3-1.4C91.4,218.6,91.1,218.4,90.7,218.4z"/>
		<path id="XMLID_1192_" class="st1" d="M94.5,225.5l1.4-11.8h1.4l-1.4,11.8H94.5z"/>
		<path id="XMLID_1189_" class="st1" d="M100.8,217.4l-1,8.1h-1.4l1-8.1H100.8z M101.3,214.9c0,0.1,0,0.3-0.1,0.4s-0.1,0.2-0.2,0.3
			s-0.2,0.2-0.3,0.2s-0.2,0.1-0.4,0.1c-0.1,0-0.2,0-0.4-0.1c-0.1-0.1-0.2-0.1-0.3-0.2c-0.1-0.1-0.2-0.2-0.2-0.3
			c-0.1-0.1-0.1-0.2-0.1-0.4s0-0.3,0.1-0.4s0.1-0.2,0.2-0.3s0.2-0.2,0.3-0.2c0.1-0.1,0.2-0.1,0.4-0.1c0.1,0,0.2,0,0.4,0.1
			c0.1,0.1,0.2,0.1,0.3,0.2c0.1,0.1,0.2,0.2,0.2,0.3C101.3,214.6,101.3,214.7,101.3,214.9z"/>
		<path id="XMLID_1187_" class="st1" d="M107.3,224.8c-0.2,0.2-0.5,0.4-0.7,0.5s-0.5,0.2-0.8,0.3c-0.3,0-0.6,0.1-0.9,0.1
			c-0.5,0-0.9-0.1-1.2-0.2c-0.3-0.1-0.7-0.4-0.9-0.7c-0.2-0.3-0.4-0.6-0.6-1s-0.2-0.9-0.2-1.3c0-0.7,0.1-1.3,0.3-1.9
			c0.2-0.6,0.5-1.1,0.9-1.6s0.8-0.8,1.3-1.1s1.1-0.4,1.7-0.4c0.5,0,1,0.1,1.3,0.3c0.4,0.2,0.7,0.5,1,0.8l-0.4,0.5l-0.1,0.1
			c0,0-0.1,0-0.2,0s-0.1,0-0.2-0.1s-0.2-0.1-0.3-0.2s-0.3-0.2-0.4-0.2c-0.2-0.1-0.4-0.1-0.7-0.1c-0.4,0-0.7,0.1-1,0.3
			s-0.6,0.5-0.9,0.8c-0.2,0.3-0.4,0.8-0.6,1.2c-0.1,0.5-0.2,1-0.2,1.5c0,0.3,0,0.6,0.1,0.9s0.2,0.5,0.3,0.7c0.1,0.2,0.3,0.3,0.5,0.4
			c0.2,0.1,0.5,0.2,0.8,0.2c0.2,0,0.5,0,0.6-0.1s0.4-0.1,0.5-0.2s0.3-0.2,0.4-0.2s0.2-0.2,0.3-0.2c0.1-0.1,0.2-0.1,0.2-0.2
			s0.1-0.1,0.2-0.1s0.2,0,0.3,0.1l0.4,0.4C107.8,224.3,107.5,224.6,107.3,224.8z"/>
		<path id="XMLID_1185_" class="st1" d="M109.2,225.7c-0.1,0.2-0.2,0.3-0.4,0.4s-0.3,0.1-0.4,0.1h-0.6l5.8-11.8
			c0.1-0.2,0.2-0.3,0.3-0.4s0.3-0.1,0.5-0.1h0.6L109.2,225.7z"/>
		<path id="XMLID_1183_" class="st0" d="M90.1,249l-0.6,5.2c0,0.1,0,0.2,0,0.3s0,0.2,0,0.3c0,0.4,0.1,0.8,0.2,1
			c0.2,0.2,0.4,0.3,0.8,0.3c0.2,0,0.5-0.1,0.8-0.2s0.5-0.3,0.8-0.6c0.2-0.2,0.5-0.5,0.7-0.9c0.2-0.3,0.4-0.7,0.5-1.2l0.5-4.2h1.4
			l-1,8.1h-0.7c-0.2,0-0.3,0-0.4-0.1s-0.1-0.2-0.1-0.3v-0.1c0-0.1,0-0.2,0-0.3c0-0.1,0-0.2,0-0.3s0-0.1,0-0.1l0.1-0.6
			c-0.4,0.7-0.9,1.2-1.4,1.6s-1.1,0.5-1.6,0.5c-0.6,0-1.1-0.2-1.4-0.6s-0.5-1-0.5-1.8c0-0.1,0-0.2,0-0.3s0-0.2,0-0.4l0.6-5.2
			L90.1,249C90.1,249.1,90.1,249,90.1,249z"/>
		<path id="XMLID_1180_" class="st0" d="M95.9,259.8l1.3-10.9h0.7c0.3,0,0.5,0.2,0.5,0.5l-0.1,1.7c0.2-0.4,0.4-0.7,0.7-1
			c0.2-0.3,0.5-0.5,0.8-0.7s0.5-0.4,0.8-0.5s0.6-0.2,0.9-0.2c0.7,0,1.2,0.2,1.6,0.8c0.4,0.5,0.6,1.2,0.6,2.2c0,0.4,0,0.9-0.1,1.3
			s-0.2,0.9-0.4,1.3s-0.4,0.8-0.6,1.1s-0.5,0.6-0.8,0.9s-0.6,0.5-0.9,0.6s-0.7,0.2-1.1,0.2s-0.8-0.1-1.1-0.2
			c-0.3-0.2-0.6-0.4-0.8-0.7l-0.4,3.5L95.9,259.8L95.9,259.8z M100.9,250c-0.3,0-0.5,0.1-0.8,0.2c-0.3,0.2-0.5,0.4-0.8,0.7
			c-0.2,0.3-0.5,0.6-0.7,1s-0.4,0.8-0.5,1.3l-0.3,2.1c0.2,0.3,0.4,0.5,0.7,0.6c0.3,0.1,0.6,0.2,0.9,0.2s0.5-0.1,0.8-0.2
			s0.5-0.3,0.7-0.5s0.4-0.4,0.5-0.7c0.2-0.3,0.3-0.6,0.4-0.9s0.2-0.6,0.3-1s0.1-0.7,0.1-1c0-0.6-0.1-1.1-0.3-1.4
			S101.3,250,100.9,250z"/>
		<path id="XMLID_1178_" class="st0" d="M104.7,257.1l1.4-11.8h1.4l-1.4,11.8H104.7z"/>
		<path id="XMLID_1175_" class="st0" d="M111.2,257.2c-0.4,0-0.8-0.1-1.2-0.2c-0.4-0.1-0.7-0.4-1-0.7c-0.3-0.3-0.5-0.6-0.6-1.1
			s-0.2-0.9-0.2-1.4c0-0.7,0.1-1.3,0.3-1.9c0.2-0.6,0.5-1.1,0.9-1.6s0.8-0.8,1.3-1.1s1-0.4,1.6-0.4c0.4,0,0.8,0.1,1.2,0.2
			c0.4,0.1,0.7,0.4,1,0.7s0.5,0.6,0.6,1.1c0.1,0.4,0.2,0.9,0.2,1.4c0,0.7-0.1,1.3-0.3,1.9c-0.2,0.6-0.5,1.1-0.9,1.6
			s-0.8,0.8-1.3,1.1S111.8,257.2,111.2,257.2z M111.3,256.1c0.4,0,0.7-0.1,1.1-0.3c0.3-0.2,0.6-0.5,0.8-0.9c0.2-0.4,0.4-0.8,0.5-1.2
			c0.1-0.5,0.2-0.9,0.2-1.5c0-0.7-0.1-1.3-0.4-1.7s-0.7-0.6-1.3-0.6c-0.4,0-0.8,0.1-1.1,0.3c-0.3,0.2-0.6,0.5-0.8,0.8
			c-0.2,0.4-0.4,0.8-0.5,1.2c-0.1,0.5-0.2,0.9-0.2,1.5c0,0.7,0.1,1.3,0.4,1.7C110.4,255.9,110.8,256.1,111.3,256.1z"/>
		<path id="XMLID_1172_" class="st0" d="M122.3,257.1h-0.7c-0.2,0-0.3,0-0.4-0.1s-0.1-0.2-0.1-0.4l0.1-1.6c-0.2,0.3-0.4,0.6-0.6,0.9
			s-0.5,0.5-0.7,0.7s-0.5,0.3-0.8,0.4s-0.6,0.2-0.8,0.2c-0.3,0-0.6-0.1-0.9-0.2s-0.5-0.3-0.7-0.6c-0.2-0.2-0.3-0.5-0.4-0.9
			s-0.2-0.8-0.2-1.2c0-0.5,0.1-0.9,0.2-1.4s0.3-0.9,0.5-1.3c0.2-0.4,0.5-0.8,0.8-1.1s0.7-0.6,1-0.9c0.4-0.2,0.8-0.4,1.2-0.6
			c0.4-0.1,0.9-0.2,1.4-0.2c0.3,0,0.7,0,1,0.1s0.7,0.2,1,0.3L122.3,257.1z M118.8,256c0.3,0,0.5-0.1,0.8-0.2
			c0.3-0.2,0.5-0.4,0.7-0.7s0.4-0.6,0.6-1s0.4-0.8,0.5-1.3l0.3-2.7c-0.1-0.1-0.2-0.1-0.3-0.1s-0.2,0-0.3,0c-0.3,0-0.6,0.1-0.9,0.2
			c-0.3,0.1-0.6,0.2-0.8,0.4c-0.3,0.2-0.5,0.4-0.7,0.7s-0.4,0.5-0.5,0.8s-0.3,0.6-0.4,1c-0.1,0.3-0.1,0.7-0.1,1.1
			C117.6,255.4,118,256,118.8,256z"/>
		<path id="XMLID_1169_" class="st0" d="M129.9,257.1c-0.2,0-0.3,0-0.4-0.1c-0.1-0.1-0.1-0.2-0.1-0.4l0.2-1.7
			c-0.2,0.3-0.4,0.7-0.7,0.9c-0.2,0.3-0.5,0.5-0.8,0.7s-0.5,0.4-0.8,0.5s-0.6,0.2-0.9,0.2c-0.7,0-1.2-0.3-1.6-0.8s-0.6-1.2-0.6-2.2
			c0-0.4,0-0.9,0.1-1.3s0.2-0.9,0.4-1.3s0.4-0.8,0.6-1.1s0.5-0.6,0.8-0.9c0.3-0.3,0.6-0.4,0.9-0.6c0.3-0.1,0.7-0.2,1.1-0.2
			c0.4,0,0.8,0.1,1.1,0.2c0.3,0.2,0.6,0.4,0.8,0.7l0.6-4.5h1.4l-1.5,11.8L129.9,257.1L129.9,257.1z M127,256.1
			c0.3,0,0.5-0.1,0.8-0.2c0.3-0.2,0.5-0.4,0.8-0.7c0.2-0.3,0.5-0.6,0.7-1s0.4-0.8,0.5-1.3l0.3-2.1c-0.2-0.3-0.4-0.5-0.7-0.6
			s-0.6-0.2-0.9-0.2c-0.4,0-0.8,0.1-1.1,0.4c-0.3,0.2-0.6,0.6-0.9,1c-0.2,0.4-0.4,0.8-0.5,1.3s-0.2,1-0.2,1.4c0,0.6,0.1,1.1,0.3,1.5
			C126.3,255.9,126.6,256.1,127,256.1z"/>
		<path id="XMLID_1167_" class="st0" d="M138.1,250.3c0,0.1-0.1,0.1-0.1,0.1s-0.1,0-0.2,0s-0.2,0-0.2-0.1s-0.2-0.1-0.3-0.2
			c-0.1-0.1-0.3-0.1-0.5-0.2s-0.4-0.1-0.7-0.1c-0.2,0-0.5,0-0.7,0.1s-0.4,0.2-0.5,0.3s-0.3,0.3-0.3,0.4c-0.1,0.2-0.1,0.3-0.1,0.5
			c0,0.3,0.1,0.5,0.2,0.6c0.2,0.1,0.4,0.3,0.6,0.4s0.5,0.2,0.8,0.3s0.6,0.2,0.8,0.4s0.5,0.4,0.6,0.6c0.2,0.2,0.2,0.6,0.2,0.9
			c0,0.4-0.1,0.7-0.2,1.1s-0.4,0.6-0.6,0.9c-0.3,0.3-0.6,0.5-1,0.6c-0.4,0.2-0.8,0.2-1.3,0.2s-1-0.1-1.4-0.3s-0.7-0.4-1-0.7l0.4-0.5
			c0-0.1,0.1-0.1,0.2-0.2s0.1-0.1,0.2-0.1c0.1,0,0.2,0,0.3,0.1s0.2,0.2,0.3,0.3s0.3,0.2,0.5,0.3c0.2,0.1,0.4,0.1,0.7,0.1
			s0.5,0,0.7-0.1s0.4-0.2,0.5-0.3s0.3-0.3,0.3-0.5c0.1-0.2,0.1-0.4,0.1-0.6c0-0.3-0.1-0.5-0.2-0.6c-0.2-0.2-0.4-0.3-0.6-0.4
			c-0.2-0.1-0.5-0.2-0.8-0.3s-0.6-0.2-0.8-0.4c-0.3-0.1-0.5-0.3-0.6-0.6c-0.2-0.2-0.2-0.5-0.2-0.9c0-0.3,0.1-0.7,0.2-1
			c0.1-0.3,0.3-0.6,0.6-0.8s0.6-0.4,0.9-0.6s0.8-0.2,1.2-0.2c0.5,0,0.9,0.1,1.3,0.2c0.4,0.2,0.7,0.4,1,0.7L138.1,250.3z"/>
		<path id="XMLID_1165_" class="st0" d="M139.3,257.3c-0.1,0.2-0.2,0.3-0.4,0.4s-0.3,0.1-0.4,0.1h-0.6l5.8-11.8
			c0.1-0.2,0.2-0.3,0.3-0.4c0.1-0.1,0.3-0.1,0.5-0.1h0.6L139.3,257.3z"/>
	</g>
</g>
<polygon id="XMLID_144_" class="st8" points="308.9,143 236.8,107 308.9,70.9 381,107 "/>
<polygon id="XMLID_143_" class="st0" points="308.9,179.1 236.8,143 236.8,107 308.9,143 "/>
<polygon id="XMLID_142_" class="st9" points="308.9,179.1 381,143 381,107 308.9,143 "/>
<polygon id="XMLID_141_" class="st8" points="308.9,369 236.8,333 308.9,301.9 381,333 "/>
<polygon id="XMLID_140_" class="st0" points="308.9,301.9 381,333 381,369 308.9,333 "/>
<polygon id="XMLID_139_" class="st9" points="308.9,301.9 236.8,333 236.8,369 308.9,333 "/>
<polygon id="XMLID_138_" class="st0" points="308.9,405.1 236.8,369 236.8,333 308.9,369 "/>
<polygon id="XMLID_137_" class="st9" points="308.9,405.1 381,369 381,333 308.9,369 "/>
<g id="XMLID_17_">
	<g id="XMLID_246_">
		<line id="XMLID_799_" class="st10" x1="237.8" y1="332.9" x2="237.8" y2="331.9"/>
		<path id="XMLID_248_" class="st11" d="M237.8,327.9v-45c0-8.3-6.7-15-15-15h-133c-8.3,0-15-6.7-15-15l0,0c0-8.3,6.7-15,15-15h133
			c8.3,0,15-6.7,15-15v-77"/>
		<line id="XMLID_247_" class="st10" x1="237.8" y1="143.9" x2="237.8" y2="142.9"/>
	</g>
</g>
<g id="XMLID_4_">
	<g id="XMLID_810_">
		<line id="XMLID_817_" class="st12" x1="379.8" y1="332.9" x2="379.8" y2="331.9"/>
		<path id="XMLID_812_" class="st13" d="M379.8,327.9v-45c0-8.3,6.7-15,15-15h149c8.3,0,15-6.7,15-15l0,0c0-8.3-6.7-15-15-15h-149
			c-8.3,0-15-6.7-15-15v-76"/>
		<line id="XMLID_811_" class="st12" x1="379.8" y1="143.9" x2="379.8" y2="142.9"/>
	</g>
</g>
<path id="XMLID_132_" class="st8" d="M308.9,296.9L236.8,333l72.1,36.1L381,333L308.9,296.9z M252.8,333l56-28l56,28l-56,28
	L252.8,333z"/>
<g id="XMLID_575_">
	<g id="XMLID_1480_">
		<path id="XMLID_1676_" class="st14" d="M257.6,205.6l1.3-10.9h0.7c0.3,0,0.5,0.2,0.5,0.5l-0.1,1.7c0.2-0.4,0.4-0.7,0.7-1
			c0.2-0.3,0.5-0.5,0.8-0.7s0.5-0.4,0.8-0.5c0.3-0.1,0.6-0.2,0.9-0.2c0.7,0,1.2,0.3,1.6,0.8s0.6,1.2,0.6,2.2c0,0.4,0,0.9-0.1,1.3
			c-0.1,0.4-0.2,0.9-0.4,1.3s-0.4,0.8-0.6,1.1s-0.5,0.6-0.8,0.9c-0.3,0.3-0.6,0.5-0.9,0.6s-0.7,0.2-1.1,0.2s-0.8-0.1-1.1-0.2
			c-0.3-0.2-0.6-0.4-0.8-0.7l-0.4,3.5L257.6,205.6L257.6,205.6z M262.6,195.8c-0.3,0-0.5,0.1-0.8,0.2c-0.3,0.1-0.5,0.4-0.8,0.7
			c-0.2,0.3-0.5,0.6-0.7,1c-0.2,0.4-0.4,0.8-0.5,1.3l-0.3,2.1c0.2,0.3,0.4,0.5,0.7,0.6c0.3,0.1,0.6,0.2,0.9,0.2
			c0.3,0,0.5-0.1,0.8-0.2c0.3-0.1,0.5-0.3,0.7-0.5c0.2-0.2,0.4-0.4,0.5-0.7s0.3-0.6,0.4-0.9c0.1-0.3,0.2-0.6,0.3-1s0.1-0.7,0.1-1
			c0-0.6-0.1-1.1-0.3-1.4C263.4,195.9,263,195.8,262.6,195.8z"/>
		<path id="XMLID_1674_" class="st14" d="M268.5,194.8l-0.6,5.2c0,0.1,0,0.2,0,0.3s0,0.2,0,0.3c0,0.4,0.1,0.8,0.2,1
			c0.2,0.2,0.4,0.3,0.8,0.3c0.2,0,0.5-0.1,0.8-0.2c0.3-0.1,0.5-0.3,0.8-0.6c0.2-0.2,0.5-0.5,0.7-0.9c0.2-0.3,0.4-0.7,0.5-1.2
			l0.5-4.2h1.4l-1,8.1h-0.8c-0.2,0-0.3,0-0.4-0.1s-0.1-0.2-0.1-0.3v-0.1c0-0.1,0-0.2,0-0.3s0-0.2,0-0.3s0-0.1,0-0.1l0.1-0.6
			c-0.4,0.7-0.9,1.2-1.4,1.6s-1.1,0.5-1.6,0.5c-0.6,0-1.1-0.2-1.4-0.6c-0.3-0.4-0.5-1-0.5-1.8c0-0.1,0-0.2,0-0.3s0-0.2,0-0.4
			l0.6-5.2L268.5,194.8L268.5,194.8z"/>
		<path id="XMLID_1671_" class="st14" d="M274.7,202.9l1.4-11.8h1.4l-0.7,5.7c0.2-0.3,0.4-0.6,0.7-0.9c0.2-0.3,0.5-0.5,0.7-0.7
			c0.3-0.2,0.5-0.3,0.8-0.4c0.3-0.1,0.6-0.2,0.8-0.2c0.7,0,1.2,0.3,1.6,0.8s0.6,1.2,0.6,2.2c0,0.4,0,0.9-0.1,1.3s-0.2,0.9-0.4,1.3
			c-0.2,0.4-0.4,0.8-0.6,1.1s-0.5,0.6-0.8,0.9c-0.3,0.3-0.6,0.5-0.9,0.6s-0.7,0.2-1.1,0.2s-0.8-0.1-1.2-0.3
			c-0.3-0.2-0.6-0.4-0.9-0.8l-0.1,0.5c0,0.1-0.1,0.2-0.2,0.3s-0.2,0.1-0.3,0.1L274.7,202.9L274.7,202.9z M279.3,195.8
			c-0.3,0-0.5,0.1-0.8,0.2c-0.3,0.2-0.5,0.4-0.8,0.7c-0.2,0.3-0.5,0.6-0.7,1s-0.4,0.8-0.6,1.3l-0.3,2.1c0.2,0.3,0.4,0.5,0.7,0.6
			c0.3,0.1,0.6,0.2,0.9,0.2s0.5-0.1,0.8-0.2c0.2-0.1,0.5-0.3,0.7-0.5s0.4-0.4,0.5-0.7s0.3-0.6,0.4-0.9s0.2-0.6,0.3-1
			c0.1-0.3,0.1-0.7,0.1-1c0-0.6-0.1-1.1-0.3-1.4S279.7,195.8,279.3,195.8z"/>
		<path id="XMLID_1669_" class="st14" d="M283.2,202.9l1.4-11.8h1.4l-1.4,11.8H283.2z"/>
		<path id="XMLID_1666_" class="st14" d="M289.4,194.8l-1,8.1H287l1-8.1H289.4z M289.9,192.3c0,0.1,0,0.3-0.1,0.4
			c-0.1,0.1-0.1,0.2-0.2,0.3s-0.2,0.2-0.3,0.2c-0.1,0.1-0.2,0.1-0.4,0.1c-0.1,0-0.2,0-0.4-0.1c-0.1-0.1-0.2-0.1-0.3-0.2
			c-0.1-0.1-0.2-0.2-0.2-0.3c-0.1-0.1-0.1-0.2-0.1-0.4s0-0.3,0.1-0.4c0.1-0.1,0.1-0.2,0.2-0.3s0.2-0.2,0.3-0.2
			c0.1-0.1,0.2-0.1,0.4-0.1c0.1,0,0.2,0,0.4,0.1s0.2,0.1,0.3,0.2c0.1,0.1,0.2,0.2,0.2,0.3C289.9,192,289.9,192.1,289.9,192.3z"/>
		<path id="XMLID_1664_" class="st14" d="M295.9,202.2c-0.2,0.2-0.5,0.4-0.7,0.5s-0.5,0.2-0.8,0.3c-0.3,0-0.6,0.1-0.9,0.1
			c-0.5,0-0.9-0.1-1.2-0.2c-0.3-0.1-0.7-0.4-0.9-0.7c-0.2-0.3-0.4-0.6-0.6-1s-0.2-0.9-0.2-1.3c0-0.7,0.1-1.3,0.3-1.9
			s0.5-1.1,0.9-1.6s0.8-0.8,1.3-1.1s1.1-0.4,1.7-0.4c0.5,0,1,0.1,1.3,0.3c0.4,0.2,0.7,0.5,1,0.8l-0.4,0.5l-0.1,0.1c0,0-0.1,0-0.2,0
			s-0.1,0-0.2-0.1s-0.2-0.1-0.3-0.2c-0.1-0.1-0.3-0.2-0.4-0.2c-0.2-0.1-0.4-0.1-0.7-0.1c-0.4,0-0.7,0.1-1,0.3s-0.6,0.5-0.9,0.8
			c-0.2,0.3-0.4,0.8-0.6,1.2c-0.1,0.5-0.2,1-0.2,1.5c0,0.3,0,0.6,0.1,0.9c0.1,0.3,0.2,0.5,0.3,0.7s0.3,0.3,0.5,0.4
			c0.2,0.1,0.5,0.2,0.8,0.2c0.2,0,0.5,0,0.6-0.1s0.4-0.1,0.5-0.2c0.1-0.1,0.3-0.2,0.4-0.2s0.2-0.2,0.3-0.2s0.2-0.1,0.2-0.2
			c0.1,0,0.1-0.1,0.2-0.1s0.2,0,0.3,0.1l0.4,0.4C296.4,201.7,296.2,202,295.9,202.2z"/>
		<path id="XMLID_1662_" class="st14" d="M297.8,203.1c-0.1,0.2-0.2,0.3-0.4,0.4s-0.3,0.1-0.4,0.1h-0.6l5.8-11.8
			c0.1-0.2,0.2-0.3,0.3-0.4c0.1-0.1,0.3-0.1,0.5-0.1h0.6L297.8,203.1z"/>
		<path id="XMLID_1660_" class="st0" d="M271.7,218.4l-0.6,5.2c0,0.1,0,0.2,0,0.3s0,0.2,0,0.3c0,0.4,0.1,0.8,0.2,1
			c0.2,0.2,0.4,0.3,0.8,0.3c0.2,0,0.5-0.1,0.8-0.2s0.5-0.3,0.8-0.6c0.2-0.2,0.5-0.5,0.7-0.9s0.4-0.7,0.5-1.2l0.5-4.2h1.4l-1,8.1
			h-0.7c-0.2,0-0.3,0-0.4-0.1s-0.1-0.2-0.1-0.3V226c0-0.1,0-0.2,0-0.3s0-0.2,0-0.3s0-0.1,0-0.1l0.1-0.6c-0.4,0.7-0.9,1.2-1.4,1.6
			s-1.1,0.5-1.6,0.5c-0.6,0-1.1-0.2-1.4-0.6c-0.3-0.4-0.5-1-0.5-1.8c0-0.1,0-0.2,0-0.3s0-0.2,0-0.4l0.6-5.2L271.7,218.4L271.7,218.4
			z"/>
		<path id="XMLID_1657_" class="st0" d="M277.5,229.2l1.3-10.9h0.7c0.3,0,0.5,0.2,0.5,0.5l-0.1,1.7c0.2-0.4,0.4-0.7,0.7-1
			c0.2-0.3,0.5-0.5,0.8-0.7s0.5-0.4,0.8-0.5s0.6-0.2,0.9-0.2c0.7,0,1.2,0.3,1.6,0.8s0.6,1.2,0.6,2.2c0,0.4,0,0.9-0.1,1.3
			c-0.1,0.4-0.2,0.9-0.4,1.3c-0.2,0.4-0.4,0.8-0.6,1.1s-0.5,0.6-0.8,0.9c-0.3,0.3-0.6,0.5-0.9,0.6s-0.7,0.2-1.1,0.2
			s-0.8-0.1-1.1-0.2c-0.3-0.2-0.6-0.4-0.8-0.7l-0.4,3.5L277.5,229.2L277.5,229.2z M282.5,219.4c-0.3,0-0.5,0.1-0.8,0.2
			s-0.5,0.4-0.8,0.7c-0.2,0.3-0.5,0.6-0.7,1s-0.4,0.8-0.5,1.3l-0.3,2.1c0.2,0.3,0.4,0.5,0.7,0.6c0.3,0.1,0.6,0.2,0.9,0.2
			s0.5-0.1,0.8-0.2c0.3-0.1,0.5-0.3,0.7-0.5s0.4-0.4,0.5-0.7s0.3-0.6,0.4-0.9c0.1-0.3,0.2-0.6,0.3-1s0.1-0.7,0.1-1
			c0-0.6-0.1-1.1-0.3-1.4C283.2,219.6,282.9,219.4,282.5,219.4z"/>
		<path id="XMLID_1655_" class="st0" d="M286.3,226.5l1.4-11.8h1.4l-1.4,11.8H286.3z"/>
		<path id="XMLID_1652_" class="st0" d="M292.9,226.6c-0.4,0-0.8-0.1-1.2-0.2s-0.7-0.4-1-0.7s-0.5-0.6-0.6-1.1s-0.2-0.9-0.2-1.4
			c0-0.7,0.1-1.3,0.3-1.9c0.2-0.6,0.5-1.1,0.9-1.6s0.8-0.8,1.3-1.1s1-0.4,1.6-0.4c0.4,0,0.8,0.1,1.2,0.2c0.4,0.2,0.7,0.4,1,0.7
			s0.5,0.6,0.6,1.1c0.1,0.4,0.2,0.9,0.2,1.4c0,0.7-0.1,1.3-0.3,1.9c-0.2,0.6-0.5,1.1-0.9,1.6s-0.8,0.8-1.3,1.1
			C294,226.5,293.4,226.6,292.9,226.6z M293,225.5c0.4,0,0.7-0.1,1.1-0.3c0.3-0.2,0.6-0.5,0.8-0.9c0.2-0.4,0.4-0.8,0.5-1.2
			c0.1-0.5,0.2-0.9,0.2-1.5c0-0.7-0.1-1.3-0.4-1.7s-0.7-0.6-1.3-0.6c-0.4,0-0.8,0.1-1.1,0.3c-0.3,0.2-0.6,0.5-0.8,0.8
			c-0.2,0.4-0.4,0.8-0.5,1.2c-0.1,0.5-0.2,1-0.2,1.5c0,0.7,0.1,1.3,0.4,1.7C292,225.3,292.4,225.5,293,225.5z"/>
		<path id="XMLID_1649_" class="st0" d="M304,226.5h-0.7c-0.2,0-0.3,0-0.4-0.1s-0.1-0.2-0.1-0.4l0.1-1.6c-0.2,0.3-0.4,0.6-0.6,0.9
			s-0.5,0.5-0.7,0.7s-0.5,0.3-0.8,0.4s-0.6,0.2-0.8,0.2c-0.3,0-0.6-0.1-0.9-0.2c-0.3-0.1-0.5-0.3-0.7-0.6c-0.2-0.2-0.3-0.5-0.4-0.9
			s-0.2-0.8-0.2-1.2c0-0.5,0.1-0.9,0.2-1.4s0.3-0.9,0.5-1.3s0.5-0.8,0.8-1.1s0.7-0.6,1-0.9c0.4-0.2,0.8-0.4,1.2-0.6
			c0.4-0.1,0.9-0.2,1.4-0.2c0.3,0,0.7,0,1,0.1s0.7,0.2,1,0.3L304,226.5z M300.5,225.4c0.3,0,0.5-0.1,0.8-0.2
			c0.3-0.2,0.5-0.4,0.7-0.7s0.4-0.6,0.6-1s0.4-0.8,0.5-1.3l0.3-2.7c-0.1-0.1-0.2-0.1-0.3-0.1c-0.1,0-0.2,0-0.3,0
			c-0.3,0-0.6,0.1-0.9,0.2s-0.6,0.2-0.8,0.4c-0.3,0.2-0.5,0.4-0.7,0.7s-0.4,0.5-0.5,0.8s-0.3,0.6-0.4,1c-0.1,0.3-0.1,0.7-0.1,1.1
			C299.2,224.8,299.7,225.4,300.5,225.4z"/>
		<path id="XMLID_1646_" class="st0" d="M311.6,226.5c-0.2,0-0.3,0-0.4-0.1s-0.1-0.2-0.1-0.4l0.2-1.7c-0.2,0.3-0.4,0.7-0.7,0.9
			c-0.2,0.3-0.5,0.5-0.8,0.7s-0.5,0.4-0.8,0.5s-0.6,0.2-0.9,0.2c-0.7,0-1.2-0.3-1.6-0.8s-0.6-1.2-0.6-2.2c0-0.4,0-0.9,0.1-1.3
			c0.1-0.4,0.2-0.9,0.4-1.3c0.2-0.4,0.4-0.8,0.6-1.1s0.5-0.6,0.8-0.9c0.3-0.2,0.6-0.4,0.9-0.6c0.3-0.1,0.7-0.2,1.1-0.2
			s0.8,0.1,1.1,0.2c0.3,0.2,0.6,0.4,0.8,0.7l0.6-4.5h1.4l-1.5,11.8L311.6,226.5L311.6,226.5z M308.7,225.5c0.3,0,0.5-0.1,0.8-0.2
			c0.3-0.1,0.5-0.4,0.8-0.7c0.2-0.3,0.5-0.6,0.7-1s0.4-0.8,0.5-1.3l0.3-2.1c-0.2-0.3-0.4-0.5-0.7-0.6c-0.3-0.1-0.6-0.2-0.9-0.2
			c-0.4,0-0.8,0.1-1.1,0.4c-0.3,0.3-0.6,0.6-0.9,1c-0.2,0.4-0.4,0.8-0.5,1.3s-0.2,1-0.2,1.4c0,0.6,0.1,1.1,0.3,1.5
			C307.9,225.3,308.2,225.5,308.7,225.5z"/>
		<path id="XMLID_1644_" class="st0" d="M319.7,219.7c0,0.1-0.1,0.1-0.1,0.1s-0.1,0-0.2,0s-0.2,0-0.2-0.1s-0.2-0.1-0.3-0.2
			c-0.1-0.1-0.3-0.1-0.5-0.2c-0.2-0.1-0.4-0.1-0.7-0.1c-0.2,0-0.5,0-0.7,0.1s-0.4,0.2-0.5,0.3s-0.3,0.3-0.3,0.4
			c-0.1,0.2-0.1,0.3-0.1,0.5c0,0.3,0.1,0.5,0.2,0.6c0.2,0.1,0.4,0.3,0.6,0.4s0.5,0.2,0.8,0.3s0.6,0.2,0.8,0.4
			c0.2,0.2,0.5,0.4,0.6,0.6c0.2,0.2,0.2,0.6,0.2,0.9c0,0.4-0.1,0.7-0.2,1.1c-0.1,0.3-0.4,0.6-0.6,0.9s-0.6,0.5-1,0.6
			s-0.8,0.2-1.3,0.2s-1-0.1-1.4-0.3s-0.7-0.4-1-0.7l0.4-0.5c0-0.1,0.1-0.1,0.2-0.2c0.1,0,0.1-0.1,0.2-0.1s0.2,0,0.3,0.1
			c0.1,0.1,0.2,0.2,0.3,0.3c0.1,0.1,0.3,0.2,0.5,0.3s0.4,0.1,0.7,0.1c0.3,0,0.5,0,0.7-0.1s0.4-0.2,0.5-0.3s0.3-0.3,0.3-0.5
			c0.1-0.2,0.1-0.4,0.1-0.6c0-0.3-0.1-0.5-0.2-0.6c-0.2-0.2-0.4-0.3-0.6-0.4s-0.5-0.2-0.8-0.3s-0.6-0.2-0.8-0.4
			c-0.3-0.1-0.5-0.3-0.6-0.6c-0.2-0.2-0.2-0.5-0.2-0.9c0-0.3,0.1-0.7,0.2-1s0.3-0.6,0.6-0.8c0.3-0.2,0.6-0.4,0.9-0.6
			s0.8-0.2,1.2-0.2c0.5,0,0.9,0.1,1.3,0.2c0.4,0.2,0.7,0.4,1,0.7L319.7,219.7z"/>
		<path id="XMLID_1642_" class="st0" d="M320.9,226.7c-0.1,0.2-0.2,0.3-0.4,0.4s-0.3,0.1-0.4,0.1h-0.6l5.8-11.8
			c0.1-0.2,0.2-0.3,0.3-0.4s0.3-0.1,0.5-0.1h0.6L320.9,226.7z"/>
		<path id="XMLID_1639_" class="st0" d="M284.4,240l-1,8.1H282l1-8.1H284.4z M284.9,237.5c0,0.1,0,0.3-0.1,0.4s-0.1,0.2-0.2,0.3
			s-0.2,0.2-0.3,0.2c-0.1,0.1-0.2,0.1-0.4,0.1c-0.1,0-0.2,0-0.4-0.1c-0.1-0.1-0.2-0.1-0.3-0.2s-0.2-0.2-0.2-0.3
			c-0.1-0.1-0.1-0.2-0.1-0.4s0-0.3,0.1-0.4c0.1-0.1,0.1-0.2,0.2-0.3s0.2-0.2,0.3-0.2c0.1,0,0.2-0.1,0.4-0.1c0.1,0,0.2,0,0.4,0.1
			s0.2,0.1,0.3,0.2c0.1,0.1,0.2,0.2,0.2,0.3C284.9,237.2,284.9,237.3,284.9,237.5z"/>
		<path id="XMLID_1637_" class="st0" d="M285.7,248.1l1-8.1h0.7c0.3,0,0.5,0.2,0.5,0.5l-0.1,1.4c0.4-0.7,0.8-1.2,1.3-1.5
			s1-0.5,1.5-0.5s1,0.2,1.2,0.6c0.3,0.4,0.4,0.9,0.4,1.6c0.4-0.7,0.9-1.3,1.4-1.6c0.5-0.4,1-0.5,1.6-0.5s1,0.2,1.3,0.6
			s0.4,0.9,0.4,1.7c0,0.1,0,0.2,0,0.4s0,0.3,0,0.4l-0.6,5.2h-1.4l0.6-5.2c0-0.3,0-0.5,0-0.7c0-0.4-0.1-0.7-0.2-0.9s-0.4-0.3-0.7-0.3
			c-0.2,0-0.5,0.1-0.7,0.2c-0.2,0.1-0.5,0.3-0.7,0.5s-0.4,0.5-0.6,0.8s-0.3,0.7-0.5,1.1l-0.5,4.4h-1.4l0.6-5.2c0-0.1,0-0.3,0-0.4
			s0-0.2,0-0.4c0-0.4-0.1-0.7-0.2-0.8c-0.1-0.2-0.3-0.3-0.7-0.3c-0.3,0-0.5,0.1-0.7,0.2c-0.2,0.1-0.5,0.3-0.7,0.6s-0.4,0.5-0.6,0.9
			c-0.2,0.3-0.3,0.7-0.5,1.2l-0.5,4.2L285.7,248.1L285.7,248.1z"/>
		<path id="XMLID_1634_" class="st0" d="M304.2,248.1h-0.7c-0.2,0-0.3,0-0.4-0.1s-0.1-0.2-0.1-0.4l0.1-1.6c-0.2,0.3-0.4,0.6-0.6,0.9
			s-0.5,0.5-0.7,0.7s-0.5,0.3-0.8,0.4c-0.3,0.1-0.6,0.2-0.8,0.2c-0.3,0-0.6-0.1-0.9-0.2c-0.3-0.1-0.5-0.3-0.7-0.6
			c-0.2-0.2-0.3-0.5-0.4-0.9s-0.2-0.8-0.2-1.2c0-0.5,0.1-0.9,0.2-1.4s0.3-0.9,0.5-1.3c0.2-0.4,0.5-0.8,0.8-1.1s0.7-0.6,1-0.9
			c0.4-0.2,0.8-0.4,1.2-0.6c0.4-0.1,0.9-0.2,1.4-0.2c0.3,0,0.7,0,1,0.1s0.7,0.2,1,0.3L304.2,248.1z M300.7,247
			c0.3,0,0.5-0.1,0.8-0.2c0.3-0.2,0.5-0.4,0.7-0.7s0.4-0.6,0.6-1s0.4-0.8,0.5-1.3l0.3-2.7c-0.1-0.1-0.2-0.1-0.3-0.1s-0.2,0-0.3,0
			c-0.3,0-0.6,0.1-0.9,0.2c-0.3,0.1-0.6,0.2-0.8,0.4c-0.3,0.2-0.5,0.4-0.7,0.7s-0.4,0.5-0.5,0.8s-0.3,0.6-0.4,1
			c-0.1,0.3-0.1,0.7-0.1,1.1C299.5,246.4,299.9,247,300.7,247z"/>
		<path id="XMLID_1630_" class="st0" d="M312.3,242.2c0,0.3,0,0.5-0.1,0.7s-0.1,0.4-0.2,0.6c-0.1,0.2-0.2,0.4-0.3,0.5
			c-0.1,0.2-0.2,0.3-0.3,0.5c-0.1,0.2-0.2,0.3-0.2,0.5s-0.1,0.3-0.1,0.5s0.1,0.4,0.2,0.6c0.1,0.2,0.2,0.4,0.4,0.6
			c0.1,0.2,0.3,0.4,0.4,0.6c0.1,0.2,0.2,0.5,0.2,0.8c0,0.4-0.1,0.7-0.3,1.1c-0.2,0.4-0.4,0.6-0.8,0.9c-0.3,0.3-0.7,0.5-1.2,0.6
			c-0.5,0.2-1,0.2-1.6,0.2c-0.5,0-0.9,0-1.3-0.1s-0.7-0.2-1-0.4s-0.5-0.4-0.6-0.6s-0.2-0.5-0.2-0.8c0-0.4,0.1-0.8,0.3-1.1
			c0.2-0.3,0.5-0.6,0.9-0.8s0.8-0.3,1.2-0.4c0.5-0.1,0.9-0.1,1.4-0.1c0.2,0,0.4,0,0.6,0s0.4,0,0.6,0.1c0-0.1-0.1-0.2-0.1-0.3
			s0-0.2,0-0.4s0-0.3,0.1-0.5s0.1-0.4,0.3-0.6c-0.2,0.1-0.4,0.2-0.7,0.3c-0.3,0.1-0.5,0.1-0.9,0.1c-0.3,0-0.6-0.1-0.9-0.2
			s-0.5-0.3-0.7-0.4c-0.2-0.2-0.4-0.4-0.5-0.7s-0.2-0.6-0.2-1s0.1-0.8,0.2-1.1c0.1-0.4,0.3-0.7,0.6-1s0.6-0.5,1-0.7s0.9-0.3,1.4-0.3
			c0.6,0,1.1,0.1,1.5,0.4h2.2l-0.1,0.5c0,0.1,0,0.2-0.1,0.2s-0.1,0.1-0.2,0.1l-1,0.2c0,0.1,0.1,0.3,0.1,0.4
			C312.3,241.9,312.3,242.1,312.3,242.2z M310.8,248.3c0-0.1,0-0.3,0-0.4s-0.1-0.2-0.1-0.3c-0.3,0-0.6-0.1-0.8-0.1
			c-0.2,0-0.5,0-0.7,0c-0.4,0-0.8,0-1.1,0.1s-0.6,0.2-0.8,0.3c-0.2,0.1-0.4,0.3-0.5,0.4c-0.1,0.2-0.2,0.3-0.2,0.5
			c0,0.4,0.2,0.7,0.5,0.9s0.8,0.3,1.4,0.3c0.4,0,0.7,0,1-0.1s0.5-0.2,0.7-0.4s0.4-0.3,0.5-0.5C310.8,248.7,310.8,248.5,310.8,248.3z
			 M309.2,244.4c0.3,0,0.5-0.1,0.8-0.2c0.2-0.1,0.4-0.3,0.6-0.5s0.3-0.4,0.3-0.7c0.1-0.3,0.1-0.5,0.1-0.8c0-0.5-0.1-0.8-0.4-1.1
			s-0.6-0.4-1-0.4c-0.3,0-0.5,0.1-0.8,0.2c-0.3,0.1-0.4,0.3-0.6,0.5s-0.3,0.4-0.3,0.7c-0.1,0.3-0.1,0.5-0.1,0.8
			c0,0.5,0.1,0.8,0.3,1.1C308.5,244.3,308.8,244.4,309.2,244.4z"/>
		<path id="XMLID_1627_" class="st0" d="M320.3,241.7c0,0.4-0.1,0.7-0.2,1s-0.4,0.6-0.8,0.8s-0.9,0.4-1.6,0.6s-1.5,0.3-2.6,0.4
			c0,0.1,0,0.1,0,0.2s0,0.1,0,0.2c0,0.7,0.2,1.3,0.5,1.6c0.3,0.4,0.8,0.6,1.4,0.6c0.3,0,0.5,0,0.7-0.1s0.4-0.1,0.5-0.2
			c0.2-0.1,0.3-0.2,0.4-0.3s0.2-0.2,0.3-0.3c0.1-0.1,0.2-0.1,0.3-0.2c0.1-0.1,0.2-0.1,0.3-0.1s0.2,0,0.3,0.1l0.4,0.4
			c-0.3,0.3-0.5,0.5-0.8,0.7s-0.5,0.4-0.8,0.5s-0.6,0.2-0.9,0.3s-0.6,0.1-1,0.1c-0.5,0-0.9-0.1-1.2-0.2s-0.7-0.4-0.9-0.7
			c-0.3-0.3-0.5-0.6-0.6-1s-0.2-0.9-0.2-1.4c0-0.4,0-0.8,0.1-1.2s0.2-0.8,0.4-1.2c0.2-0.4,0.4-0.7,0.6-1s0.5-0.6,0.8-0.8
			s0.7-0.4,1-0.5c0.4-0.1,0.8-0.2,1.2-0.2c0.4,0,0.8,0.1,1.1,0.2c0.3,0.1,0.5,0.3,0.7,0.4c0.2,0.2,0.3,0.4,0.4,0.6
			C320.2,241.3,320.3,241.5,320.3,241.7z M317.8,240.9c-0.3,0-0.6,0.1-0.9,0.2s-0.5,0.3-0.8,0.6s-0.4,0.5-0.6,0.9
			c-0.2,0.3-0.3,0.7-0.4,1.1c0.8-0.1,1.5-0.2,2-0.3s0.9-0.3,1.1-0.4c0.3-0.2,0.4-0.3,0.5-0.5s0.1-0.4,0.1-0.6c0-0.1,0-0.2-0.1-0.3
			c0-0.1-0.1-0.2-0.2-0.3s-0.2-0.2-0.4-0.2C318.2,240.9,318,240.9,317.8,240.9z"/>
		<path id="XMLID_1625_" class="st0" d="M322.5,247h2.5l1-8l0.1-0.6l-2.3,1.8c-0.1,0.1-0.2,0.1-0.3,0.1c-0.1,0-0.2,0-0.2-0.1
			c-0.1,0-0.1-0.1-0.1-0.1l-0.4-0.6l3.8-3h1.1l-1.3,10.4h2.3l-0.1,1.1h-6.1V247z"/>
		<path id="XMLID_1623_" class="st0" d="M330.2,247.2c0-0.1,0-0.3,0.1-0.4s0.1-0.2,0.2-0.3s0.2-0.2,0.3-0.2c0.1-0.1,0.3-0.1,0.4-0.1
			s0.3,0,0.4,0.1s0.2,0.1,0.3,0.2c0.1,0.1,0.2,0.2,0.2,0.3c0.1,0.1,0.1,0.3,0.1,0.4s0,0.3-0.1,0.4s-0.1,0.2-0.2,0.3
			s-0.2,0.2-0.3,0.2s-0.2,0.1-0.4,0.1c-0.1,0-0.3,0-0.4-0.1s-0.2-0.1-0.3-0.2c-0.1-0.1-0.2-0.2-0.2-0.3
			C330.2,247.5,330.2,247.4,330.2,247.2z"/>
		<path id="XMLID_1620_" class="st0" d="M333.5,250.8l1.3-10.9h0.7c0.3,0,0.5,0.2,0.5,0.5l-0.1,1.7c0.2-0.4,0.4-0.7,0.7-1
			c0.2-0.3,0.5-0.5,0.8-0.7s0.5-0.4,0.8-0.5s0.6-0.2,0.9-0.2c0.7,0,1.2,0.2,1.6,0.8c0.4,0.5,0.6,1.2,0.6,2.2c0,0.4,0,0.9-0.1,1.3
			s-0.2,0.9-0.4,1.3s-0.4,0.8-0.6,1.1s-0.5,0.6-0.8,0.9c-0.3,0.3-0.6,0.5-0.9,0.6s-0.7,0.2-1.1,0.2s-0.8-0.1-1.1-0.2
			c-0.3-0.2-0.6-0.4-0.8-0.7l-0.4,3.5L333.5,250.8L333.5,250.8z M338.5,241c-0.3,0-0.5,0.1-0.8,0.2c-0.3,0.2-0.5,0.4-0.8,0.7
			c-0.2,0.3-0.5,0.6-0.7,1s-0.4,0.8-0.5,1.3l-0.3,2.1c0.2,0.3,0.4,0.5,0.7,0.6s0.6,0.2,0.9,0.2s0.5-0.1,0.8-0.2
			c0.3-0.1,0.5-0.3,0.7-0.5s0.4-0.4,0.5-0.7c0.2-0.3,0.3-0.6,0.4-0.9s0.2-0.6,0.3-1c0.1-0.4,0.1-0.7,0.1-1c0-0.6-0.1-1.1-0.3-1.4
			S338.9,241,338.5,241z"/>
		<path id="XMLID_1618_" class="st0" d="M342.1,248.1l1-8.1h0.7c0.3,0,0.5,0.2,0.5,0.5l-0.1,1.6c0.4-0.7,0.9-1.3,1.5-1.6
			c0.5-0.4,1.1-0.5,1.7-0.5s1.1,0.2,1.4,0.6c0.3,0.4,0.5,1,0.5,1.8c0,0.1,0,0.2,0,0.3s0,0.2,0,0.4l-0.6,5.2h-1.4l0.6-5.2
			c0-0.1,0-0.2,0-0.3s0-0.2,0-0.3c0-0.4-0.1-0.8-0.2-1c-0.2-0.2-0.4-0.3-0.8-0.3c-0.3,0-0.5,0.1-0.8,0.2s-0.5,0.3-0.8,0.6
			s-0.5,0.6-0.7,0.9s-0.4,0.8-0.5,1.2l-0.5,4.1L342.1,248.1L342.1,248.1z"/>
		<path id="XMLID_1614_" class="st0" d="M356.5,242.2c0,0.3,0,0.5-0.1,0.7s-0.1,0.4-0.2,0.6s-0.2,0.4-0.3,0.5
			c-0.1,0.2-0.2,0.3-0.3,0.5s-0.2,0.3-0.2,0.5s-0.1,0.3-0.1,0.5s0.1,0.4,0.2,0.6s0.2,0.4,0.4,0.6c0.1,0.2,0.3,0.4,0.4,0.6
			s0.2,0.5,0.2,0.8c0,0.4-0.1,0.7-0.3,1.1s-0.4,0.6-0.8,0.9c-0.3,0.3-0.7,0.5-1.2,0.6c-0.5,0.2-1,0.2-1.6,0.2c-0.5,0-0.9,0-1.3-0.1
			s-0.7-0.2-1-0.4s-0.5-0.4-0.6-0.6c-0.1-0.2-0.2-0.5-0.2-0.8c0-0.4,0.1-0.8,0.3-1.1c0.2-0.3,0.5-0.6,0.9-0.8s0.8-0.3,1.2-0.4
			c0.5-0.1,0.9-0.1,1.4-0.1c0.2,0,0.4,0,0.6,0s0.4,0,0.6,0.1c0-0.1-0.1-0.2-0.1-0.3s0-0.2,0-0.4s0-0.3,0.1-0.5s0.1-0.4,0.3-0.6
			c-0.2,0.1-0.4,0.2-0.7,0.3c-0.3,0.1-0.5,0.1-0.9,0.1c-0.3,0-0.6-0.1-0.9-0.2s-0.5-0.3-0.7-0.4c-0.2-0.2-0.4-0.4-0.5-0.7
			s-0.2-0.6-0.2-1s0.1-0.8,0.2-1.1c0.1-0.4,0.3-0.7,0.6-1c0.3-0.3,0.6-0.5,1-0.7s0.9-0.3,1.4-0.3c0.6,0,1.1,0.1,1.5,0.4h2.2
			l-0.1,0.5c0,0.1,0,0.2-0.1,0.2s-0.1,0.1-0.2,0.1l-1,0.2c0,0.1,0.1,0.3,0.1,0.4C356.5,241.9,356.5,242.1,356.5,242.2z M355,248.3
			c0-0.1,0-0.3,0-0.4s-0.1-0.2-0.1-0.3c-0.3,0-0.6-0.1-0.8-0.1s-0.5,0-0.7,0c-0.4,0-0.8,0-1.1,0.1c-0.3,0.1-0.6,0.2-0.8,0.3
			s-0.4,0.3-0.5,0.4c-0.1,0.2-0.2,0.3-0.2,0.5c0,0.4,0.2,0.7,0.5,0.9s0.8,0.3,1.4,0.3c0.4,0,0.7,0,1-0.1s0.5-0.2,0.7-0.4
			s0.4-0.3,0.5-0.5C354.9,248.7,355,248.5,355,248.3z M353.4,244.4c0.3,0,0.5-0.1,0.8-0.2c0.2-0.1,0.4-0.3,0.6-0.5s0.3-0.4,0.3-0.7
			c0.1-0.3,0.1-0.5,0.1-0.8c0-0.5-0.1-0.8-0.4-1.1s-0.6-0.4-1-0.4c-0.3,0-0.5,0.1-0.8,0.2c-0.3,0.1-0.4,0.3-0.6,0.5
			s-0.3,0.4-0.3,0.7c-0.1,0.3-0.1,0.5-0.1,0.8c0,0.5,0.1,0.8,0.3,1.1C352.7,244.3,353,244.4,353.4,244.4z"/>
		<path id="XMLID_1611_" class="st0" d="M284.4,261.6l-1,8.1H282l1-8.1H284.4L284.4,261.6z M284.9,259.1c0,0.1,0,0.3-0.1,0.4
			s-0.1,0.2-0.2,0.3c-0.1,0.1-0.2,0.2-0.3,0.2c-0.1,0.1-0.2,0.1-0.4,0.1c-0.1,0-0.2,0-0.4-0.1c-0.1-0.1-0.2-0.1-0.3-0.2
			s-0.2-0.2-0.2-0.3c-0.1-0.1-0.1-0.2-0.1-0.4c0-0.2,0-0.3,0.1-0.4s0.1-0.2,0.2-0.3s0.2-0.2,0.3-0.2c0.1,0,0.2-0.1,0.4-0.1
			c0.1,0,0.2,0,0.4,0.1c0.2,0.1,0.2,0.1,0.3,0.2c0.1,0.1,0.2,0.2,0.2,0.3C284.9,258.8,284.9,258.9,284.9,259.1z"/>
		<path id="XMLID_1504_" class="st0" d="M285.7,269.7l1-8.1h0.7c0.3,0,0.5,0.2,0.5,0.5l-0.1,1.4c0.4-0.7,0.8-1.2,1.3-1.5
			s1-0.5,1.5-0.5s1,0.2,1.2,0.6c0.3,0.4,0.4,0.9,0.4,1.6c0.4-0.7,0.9-1.3,1.4-1.6c0.5-0.4,1-0.5,1.6-0.5s1,0.2,1.3,0.6
			s0.4,0.9,0.4,1.7c0,0.1,0,0.2,0,0.4s0,0.3,0,0.4l-0.6,5.2h-1.4l0.6-5.2c0-0.3,0-0.5,0-0.7c0-0.4-0.1-0.7-0.2-0.9
			c-0.1-0.2-0.4-0.3-0.7-0.3c-0.2,0-0.5,0.1-0.7,0.2s-0.5,0.3-0.7,0.5s-0.4,0.5-0.6,0.8s-0.3,0.7-0.5,1.1l-0.5,4.4h-1.4l0.6-5.2
			c0-0.1,0-0.3,0-0.4s0-0.2,0-0.4c0-0.4-0.1-0.7-0.2-0.8c-0.1-0.2-0.3-0.3-0.7-0.3c-0.3,0-0.5,0.1-0.7,0.2s-0.5,0.3-0.7,0.6
			c-0.2,0.3-0.4,0.5-0.6,0.9c-0.2,0.3-0.3,0.7-0.5,1.2l-0.5,4.2h-1.2L285.7,269.7L285.7,269.7z"/>
		<path id="XMLID_1501_" class="st0" d="M304.2,269.7h-0.7c-0.2,0-0.3,0-0.4-0.1s-0.1-0.2-0.1-0.4l0.1-1.6c-0.2,0.3-0.4,0.6-0.6,0.9
			s-0.5,0.5-0.7,0.7s-0.5,0.3-0.8,0.4s-0.6,0.2-0.8,0.2c-0.3,0-0.6-0.1-0.9-0.2s-0.5-0.3-0.7-0.6c-0.2-0.2-0.3-0.5-0.4-0.9
			s-0.2-0.8-0.2-1.2c0-0.5,0.1-0.9,0.2-1.4s0.3-0.9,0.5-1.3s0.5-0.8,0.8-1.1s0.7-0.6,1-0.9c0.4-0.2,0.8-0.4,1.2-0.6
			c0.4-0.1,0.9-0.2,1.4-0.2c0.3,0,0.7,0,1,0.1s0.7,0.2,1,0.3L304.2,269.7z M300.7,268.6c0.3,0,0.5-0.1,0.8-0.2
			c0.3-0.2,0.5-0.4,0.7-0.7c0.2-0.3,0.4-0.6,0.6-1s0.4-0.8,0.5-1.3l0.3-2.7c-0.1-0.1-0.2-0.1-0.3-0.1s-0.2,0-0.3,0
			c-0.3,0-0.6,0.1-0.9,0.2s-0.6,0.2-0.8,0.4c-0.3,0.2-0.5,0.4-0.7,0.7c-0.2,0.3-0.4,0.5-0.5,0.8s-0.3,0.6-0.4,1
			c-0.1,0.3-0.1,0.7-0.1,1.1C299.5,268,299.9,268.6,300.7,268.6z"/>
		<path id="XMLID_1497_" class="st0" d="M312.3,263.8c0,0.3,0,0.5-0.1,0.7s-0.1,0.4-0.2,0.6s-0.2,0.4-0.3,0.5
			c-0.1,0.2-0.2,0.3-0.3,0.5c-0.1,0.2-0.2,0.3-0.2,0.5s-0.1,0.3-0.1,0.5s0.1,0.4,0.2,0.6s0.2,0.4,0.4,0.6c0.1,0.2,0.3,0.4,0.4,0.6
			s0.2,0.5,0.2,0.8c0,0.4-0.1,0.7-0.3,1.1c-0.2,0.4-0.4,0.6-0.8,0.9c-0.3,0.3-0.7,0.5-1.2,0.6c-0.5,0.2-1,0.2-1.6,0.2
			c-0.5,0-0.9,0-1.3-0.1s-0.7-0.2-1-0.4c-0.3-0.2-0.5-0.4-0.6-0.6s-0.2-0.5-0.2-0.8c0-0.4,0.1-0.8,0.3-1.1c0.2-0.3,0.5-0.6,0.9-0.8
			s0.8-0.3,1.2-0.4c0.5-0.1,0.9-0.1,1.4-0.1c0.2,0,0.4,0,0.6,0s0.4,0,0.6,0.1c0-0.1-0.1-0.2-0.1-0.3s0-0.2,0-0.4
			c0-0.2,0-0.3,0.1-0.5s0.1-0.4,0.3-0.6c-0.2,0.1-0.4,0.2-0.7,0.3c-0.3,0.1-0.5,0.1-0.9,0.1c-0.3,0-0.6-0.1-0.9-0.2
			s-0.5-0.3-0.7-0.4c-0.2-0.2-0.4-0.4-0.5-0.7c-0.1-0.3-0.2-0.6-0.2-1s0.1-0.8,0.2-1.1c0.1-0.4,0.3-0.7,0.6-1s0.6-0.5,1-0.7
			s0.9-0.3,1.4-0.3c0.6,0,1.1,0.1,1.5,0.4h2.2l-0.1,0.5c0,0.1,0,0.2-0.1,0.2s-0.1,0.1-0.2,0.1l-1,0.2c0,0.1,0.1,0.3,0.1,0.4
			C312.3,263.5,312.3,263.7,312.3,263.8z M310.8,269.9c0-0.1,0-0.3,0-0.4s-0.1-0.2-0.1-0.3c-0.3,0-0.6-0.1-0.8-0.1
			c-0.2,0-0.5,0-0.7,0c-0.4,0-0.8,0-1.1,0.1s-0.6,0.2-0.8,0.3c-0.2,0.1-0.4,0.3-0.5,0.4c-0.1,0.2-0.2,0.3-0.2,0.5
			c0,0.4,0.2,0.7,0.5,0.9c0.3,0.2,0.8,0.3,1.4,0.3c0.4,0,0.7,0,1-0.1s0.5-0.2,0.7-0.4c0.2-0.2,0.4-0.3,0.5-0.5
			C310.8,270.3,310.8,270.1,310.8,269.9z M309.2,266c0.3,0,0.5-0.1,0.8-0.2c0.2-0.1,0.4-0.3,0.6-0.5s0.3-0.4,0.3-0.7
			c0.1-0.3,0.1-0.5,0.1-0.8c0-0.5-0.1-0.8-0.4-1.1s-0.6-0.4-1-0.4c-0.3,0-0.5,0.1-0.8,0.2s-0.4,0.3-0.6,0.5s-0.3,0.4-0.3,0.7
			c-0.1,0.3-0.1,0.5-0.1,0.8c0,0.5,0.1,0.8,0.3,1.1C308.5,265.9,308.8,266,309.2,266z"/>
		<path id="XMLID_1494_" class="st0" d="M320.3,263.3c0,0.4-0.1,0.7-0.2,1s-0.4,0.6-0.8,0.8c-0.4,0.2-0.9,0.4-1.6,0.6
			s-1.5,0.3-2.6,0.4c0,0.1,0,0.1,0,0.2s0,0.1,0,0.2c0,0.7,0.2,1.3,0.5,1.6c0.3,0.4,0.8,0.6,1.4,0.6c0.3,0,0.5,0,0.7-0.1
			s0.4-0.1,0.5-0.2c0.2-0.1,0.3-0.2,0.4-0.3c0.1-0.1,0.2-0.2,0.3-0.3s0.2-0.1,0.3-0.2c0.1-0.1,0.2-0.1,0.3-0.1s0.2,0,0.3,0.1
			l0.4,0.4c-0.3,0.3-0.5,0.5-0.8,0.7s-0.5,0.4-0.8,0.5s-0.6,0.2-0.9,0.3c-0.3,0.1-0.6,0.1-1,0.1c-0.5,0-0.9-0.1-1.2-0.2
			s-0.7-0.4-0.9-0.7c-0.3-0.3-0.5-0.6-0.6-1s-0.2-0.9-0.2-1.4c0-0.4,0-0.8,0.1-1.2c0.1-0.4,0.2-0.8,0.4-1.2c0.2-0.4,0.4-0.7,0.6-1
			s0.5-0.6,0.8-0.8c0.3-0.2,0.7-0.4,1-0.5c0.4-0.1,0.8-0.2,1.2-0.2c0.4,0,0.8,0.1,1.1,0.2c0.3,0.1,0.5,0.3,0.7,0.4
			c0.2,0.2,0.3,0.4,0.4,0.6C320.2,262.9,320.3,263.1,320.3,263.3z M317.8,262.5c-0.3,0-0.6,0.1-0.9,0.2s-0.5,0.3-0.8,0.6
			c-0.3,0.3-0.4,0.5-0.6,0.9c-0.2,0.3-0.3,0.7-0.4,1.1c0.8-0.1,1.5-0.2,2-0.3c0.5-0.1,0.9-0.3,1.1-0.4c0.3-0.2,0.4-0.3,0.5-0.5
			s0.1-0.4,0.1-0.6c0-0.1,0-0.2-0.1-0.3c0-0.1-0.1-0.2-0.2-0.3c-0.1-0.1-0.2-0.2-0.4-0.2C318.2,262.5,318,262.5,317.8,262.5z"/>
		<path id="XMLID_1492_" class="st0" d="M326.3,258.1c0.4,0,0.9,0.1,1.2,0.2c0.3,0.1,0.7,0.3,1,0.5s0.5,0.5,0.6,0.9
			c0.2,0.3,0.2,0.7,0.2,1.2s-0.1,0.9-0.2,1.3c-0.2,0.4-0.4,0.8-0.6,1.1c-0.3,0.4-0.6,0.7-0.9,1s-0.7,0.7-1.1,1l-3.4,3.1
			c0.2-0.1,0.4-0.1,0.7-0.1s0.4,0,0.6,0h3.9c0.1,0,0.2,0,0.3,0.1c0.1,0.1,0.1,0.2,0.1,0.3c0,0.1,0,0.1,0,0.2s0,0.2,0,0.2l-0.1,0.4
			H321l0.1-0.5c0-0.1,0-0.2,0.1-0.3c0.1-0.1,0.1-0.2,0.2-0.3l4.1-3.7c0.4-0.3,0.7-0.7,1-1s0.6-0.6,0.8-0.9c0.2-0.3,0.4-0.6,0.5-0.9
			s0.2-0.7,0.2-1s0-0.5-0.1-0.8s-0.2-0.4-0.4-0.5s-0.4-0.3-0.6-0.3c-0.2-0.1-0.5-0.1-0.7-0.1c-0.6,0-1.1,0.2-1.5,0.5
			s-0.7,0.7-0.9,1.3c-0.1,0.2-0.1,0.3-0.2,0.3c-0.1,0.1-0.2,0.1-0.3,0.1h-0.1h-0.1l-0.7-0.1c0.1-0.5,0.3-1,0.6-1.4s0.6-0.7,0.9-1
			s0.8-0.5,1.2-0.6C325.3,258.2,325.8,258.1,326.3,258.1z"/>
		<path id="XMLID_1490_" class="st0" d="M330.2,268.8c0-0.1,0-0.3,0.1-0.4s0.1-0.2,0.2-0.3c0.1-0.1,0.2-0.2,0.3-0.2
			c0.1-0.1,0.3-0.1,0.4-0.1s0.3,0,0.4,0.1s0.2,0.1,0.3,0.2c0.1,0.1,0.2,0.2,0.2,0.3c0.1,0.1,0.1,0.3,0.1,0.4s0,0.3-0.1,0.4
			s-0.1,0.2-0.2,0.3c-0.1,0.1-0.2,0.2-0.3,0.2s-0.2,0.1-0.4,0.1c-0.1,0-0.3,0-0.4-0.1s-0.2-0.1-0.3-0.2c-0.1-0.1-0.2-0.2-0.2-0.3
			C330.2,269.1,330.2,269,330.2,268.8z"/>
		<path id="XMLID_1487_" class="st0" d="M333.5,272.4l1.3-10.9h0.7c0.3,0,0.5,0.2,0.5,0.5l-0.1,1.7c0.2-0.4,0.4-0.7,0.7-1
			c0.2-0.3,0.5-0.5,0.8-0.7s0.5-0.4,0.8-0.5s0.6-0.2,0.9-0.2c0.7,0,1.2,0.2,1.6,0.8c0.4,0.5,0.6,1.2,0.6,2.2c0,0.4,0,0.9-0.1,1.3
			s-0.2,0.9-0.4,1.3s-0.4,0.8-0.6,1.1c-0.2,0.3-0.5,0.6-0.8,0.9s-0.6,0.5-0.9,0.6s-0.7,0.2-1.1,0.2s-0.8-0.1-1.1-0.2
			c-0.3-0.2-0.6-0.4-0.8-0.7l-0.4,3.5h-1.6V272.4L333.5,272.4z M338.5,262.6c-0.3,0-0.5,0.1-0.8,0.2c-0.3,0.2-0.5,0.4-0.8,0.7
			c-0.2,0.3-0.5,0.6-0.7,1s-0.4,0.8-0.5,1.3l-0.3,2.1c0.2,0.3,0.4,0.5,0.7,0.6s0.6,0.2,0.9,0.2s0.5-0.1,0.8-0.2s0.5-0.3,0.7-0.5
			s0.4-0.4,0.5-0.7c0.2-0.3,0.3-0.6,0.4-0.9s0.2-0.6,0.3-1c0.1-0.4,0.1-0.7,0.1-1c0-0.6-0.1-1.1-0.3-1.4S338.9,262.6,338.5,262.6z"
			/>
		<path id="XMLID_1485_" class="st0" d="M342.1,269.7l1-8.1h0.7c0.3,0,0.5,0.2,0.5,0.5l-0.1,1.6c0.4-0.7,0.9-1.3,1.5-1.6
			c0.5-0.4,1.1-0.5,1.7-0.5s1.1,0.2,1.4,0.6s0.5,1,0.5,1.8c0,0.1,0,0.2,0,0.3c0,0.1,0,0.2,0,0.4l-0.6,5.2h-1.4l0.6-5.2
			c0-0.1,0-0.2,0-0.3s0-0.2,0-0.3c0-0.4-0.1-0.8-0.2-1c-0.2-0.2-0.4-0.3-0.8-0.3c-0.3,0-0.5,0.1-0.8,0.2s-0.5,0.3-0.8,0.6
			c-0.3,0.3-0.5,0.6-0.7,0.9s-0.4,0.8-0.5,1.2l-0.5,4.1h-1.5L342.1,269.7L342.1,269.7z"/>
		<path id="XMLID_1481_" class="st0" d="M356.5,263.8c0,0.3,0,0.5-0.1,0.7s-0.1,0.4-0.2,0.6s-0.2,0.4-0.3,0.5
			c-0.1,0.2-0.2,0.3-0.3,0.5s-0.2,0.3-0.2,0.5s-0.1,0.3-0.1,0.5s0.1,0.4,0.2,0.6s0.2,0.4,0.4,0.6c0.1,0.2,0.3,0.4,0.4,0.6
			s0.2,0.5,0.2,0.8c0,0.4-0.1,0.7-0.3,1.1s-0.4,0.6-0.8,0.9c-0.3,0.3-0.7,0.5-1.2,0.6c-0.5,0.2-1,0.2-1.6,0.2c-0.5,0-0.9,0-1.3-0.1
			s-0.7-0.2-1-0.4c-0.3-0.2-0.5-0.4-0.6-0.6s-0.2-0.5-0.2-0.8c0-0.4,0.1-0.8,0.3-1.1c0.2-0.3,0.5-0.6,0.9-0.8
			c0.4-0.2,0.8-0.3,1.2-0.4c0.5-0.1,0.9-0.1,1.4-0.1c0.2,0,0.4,0,0.6,0s0.4,0,0.6,0.1c0-0.1-0.1-0.2-0.1-0.3s0-0.2,0-0.4
			c0-0.2,0-0.3,0.1-0.5s0.1-0.4,0.3-0.6c-0.2,0.1-0.4,0.2-0.7,0.3c-0.3,0.1-0.5,0.1-0.9,0.1c-0.3,0-0.6-0.1-0.9-0.2
			s-0.5-0.3-0.7-0.4c-0.2-0.2-0.4-0.4-0.5-0.7c-0.1-0.3-0.2-0.6-0.2-1s0.1-0.8,0.2-1.1c0.1-0.4,0.3-0.7,0.6-1c0.3-0.3,0.6-0.5,1-0.7
			s0.9-0.3,1.4-0.3c0.6,0,1.1,0.1,1.5,0.4h2.2l-0.1,0.5c0,0.1,0,0.2-0.1,0.2s-0.1,0.1-0.2,0.1l-1,0.2c0,0.1,0.1,0.3,0.1,0.4
			C356.5,263.5,356.5,263.7,356.5,263.8z M355,269.9c0-0.1,0-0.3,0-0.4s-0.1-0.2-0.1-0.3c-0.3,0-0.6-0.1-0.8-0.1s-0.5,0-0.7,0
			c-0.4,0-0.8,0-1.1,0.1c-0.3,0.1-0.6,0.2-0.8,0.3s-0.4,0.3-0.5,0.4c-0.1,0.2-0.2,0.3-0.2,0.5c0,0.4,0.2,0.7,0.5,0.9
			c0.3,0.2,0.8,0.3,1.4,0.3c0.4,0,0.7,0,1-0.1s0.5-0.2,0.7-0.4c0.2-0.2,0.4-0.3,0.5-0.5C354.9,270.3,355,270.1,355,269.9z
			 M353.4,266c0.3,0,0.5-0.1,0.8-0.2c0.2-0.1,0.4-0.3,0.6-0.5s0.3-0.4,0.3-0.7c0.1-0.3,0.1-0.5,0.1-0.8c0-0.5-0.1-0.8-0.4-1.1
			s-0.6-0.4-1-0.4c-0.3,0-0.5,0.1-0.8,0.2s-0.4,0.3-0.6,0.5s-0.3,0.4-0.3,0.7c-0.1,0.3-0.1,0.5-0.1,0.8c0,0.5,0.1,0.8,0.3,1.1
			C352.7,265.9,353,266,353.4,266z"/>
	</g>
</g>
<polygon id="XMLID_332_" class="st15" points="509.9,143 437.8,107 509.9,70.9 582,107 "/>
<polygon id="XMLID_331_" class="st2" points="509.9,179.1 437.8,143 437.8,107 509.9,143 "/>
<polygon id="XMLID_330_" class="st16" points="509.9,179.1 582,143 582,107 509.9,143 "/>
<polygon id="XMLID_329_" class="st15" points="509.9,359 437.8,323 509.9,286.9 582,323 "/>
<polygon id="XMLID_328_" class="st2" points="509.9,286.9 582,323 582,359 509.9,323 "/>
<polygon id="XMLID_327_" class="st16" points="509.9,286.9 437.8,323 437.8,359 509.9,323 "/>
<polygon id="XMLID_326_" class="st2" points="509.9,395.1 437.8,359 437.8,323 509.9,359 "/>
<polygon id="XMLID_325_" class="st16" points="509.9,395.1 582,359 582,323 509.9,359 "/>
<g id="XMLID_293_">
	<g id="XMLID_190_">
		<line id="XMLID_197_" class="st17" x1="580.8" y1="142.9" x2="580.8" y2="144.9"/>
		<line id="XMLID_192_" class="st18" x1="580.8" y1="147.9" x2="580.8" y2="319.9"/>
		<line id="XMLID_191_" class="st17" x1="580.8" y1="321.9" x2="580.8" y2="322.9"/>
	</g>
</g>
<path id="XMLID_290_" class="st15" d="M509.9,286.9L437.8,323l72.1,36.1L582,323L509.9,286.9z M453.8,323l56-28l56,28l-56,28
	L453.8,323z"/>
<g id="XMLID_509_">
	<g id="XMLID_1114_">
		<path id="XMLID_1160_" class="st2" d="M478.3,203.9h-0.7c-0.2,0-0.3,0-0.4-0.1s-0.1-0.2-0.1-0.4l0.1-1.6c-0.2,0.3-0.4,0.6-0.6,0.9
			s-0.5,0.5-0.7,0.7s-0.5,0.3-0.8,0.4s-0.6,0.2-0.8,0.2c-0.3,0-0.6-0.1-0.9-0.2s-0.5-0.3-0.7-0.6c-0.2-0.2-0.3-0.5-0.4-0.9
			s-0.2-0.8-0.2-1.2c0-0.5,0.1-0.9,0.2-1.4s0.3-0.9,0.5-1.3c0.2-0.4,0.5-0.8,0.8-1.1s0.7-0.6,1-0.9c0.4-0.2,0.8-0.4,1.2-0.6
			c0.4-0.1,0.9-0.2,1.4-0.2c0.3,0,0.7,0,1,0.1s0.7,0.2,1,0.3L478.3,203.9z M474.8,202.8c0.3,0,0.5-0.1,0.8-0.2
			c0.3-0.2,0.5-0.4,0.7-0.7s0.4-0.6,0.6-1s0.4-0.8,0.5-1.3l0.3-2.7c-0.1-0.1-0.2-0.1-0.3-0.1c-0.1,0-0.2,0-0.3,0
			c-0.3,0-0.6,0.1-0.9,0.2s-0.6,0.2-0.8,0.4c-0.3,0.2-0.5,0.4-0.7,0.7s-0.4,0.5-0.5,0.8c-0.2,0.3-0.3,0.6-0.4,1
			c-0.1,0.3-0.1,0.7-0.1,1.1C473.5,202.2,474,202.8,474.8,202.8z"/>
		<path id="XMLID_1157_" class="st2" d="M480,206.6l1.3-10.9h0.7c0.3,0,0.5,0.2,0.5,0.5l-0.1,1.7c0.2-0.4,0.4-0.7,0.7-1
			c0.2-0.3,0.5-0.5,0.8-0.7s0.5-0.4,0.8-0.5s0.6-0.2,0.9-0.2c0.7,0,1.2,0.3,1.6,0.8s0.6,1.2,0.6,2.2c0,0.4,0,0.9-0.1,1.3
			c-0.1,0.4-0.2,0.9-0.4,1.3s-0.4,0.8-0.6,1.1s-0.5,0.6-0.8,0.9s-0.6,0.5-0.9,0.6s-0.7,0.2-1.1,0.2s-0.8-0.1-1.1-0.2
			c-0.3-0.2-0.6-0.4-0.8-0.7l-0.4,3.5L480,206.6L480,206.6z M485,196.8c-0.3,0-0.5,0.1-0.8,0.2s-0.5,0.4-0.8,0.7
			c-0.2,0.3-0.5,0.6-0.7,1s-0.4,0.8-0.5,1.3l-0.3,2.1c0.2,0.3,0.4,0.5,0.7,0.6c0.3,0.1,0.6,0.2,0.9,0.2s0.5-0.1,0.8-0.2
			s0.5-0.3,0.7-0.5s0.4-0.4,0.5-0.7s0.3-0.6,0.4-0.9s0.2-0.6,0.3-1s0.1-0.7,0.1-1c0-0.6-0.1-1.1-0.3-1.4S485.4,196.8,485,196.8z"/>
		<path id="XMLID_1154_" class="st2" d="M488.3,206.6l1.3-10.9h0.7c0.3,0,0.5,0.2,0.5,0.5l-0.1,1.7c0.2-0.4,0.4-0.7,0.7-1
			c0.2-0.3,0.5-0.5,0.8-0.7s0.5-0.4,0.8-0.5s0.6-0.2,0.9-0.2c0.7,0,1.2,0.3,1.6,0.8s0.6,1.2,0.6,2.2c0,0.4,0,0.9-0.1,1.3
			c-0.1,0.4-0.2,0.9-0.4,1.3s-0.4,0.8-0.6,1.1s-0.5,0.6-0.8,0.9s-0.6,0.5-0.9,0.6s-0.7,0.2-1.1,0.2s-0.8-0.1-1.1-0.2
			c-0.3-0.2-0.6-0.4-0.8-0.7l-0.4,3.5L488.3,206.6L488.3,206.6z M493.3,196.8c-0.3,0-0.5,0.1-0.8,0.2s-0.5,0.4-0.8,0.7
			c-0.2,0.3-0.5,0.6-0.7,1s-0.4,0.8-0.5,1.3l-0.3,2.1c0.2,0.3,0.4,0.5,0.7,0.6c0.3,0.1,0.6,0.2,0.9,0.2s0.5-0.1,0.8-0.2
			s0.5-0.3,0.7-0.5s0.4-0.4,0.5-0.7s0.3-0.6,0.4-0.9s0.2-0.6,0.3-1s0.1-0.7,0.1-1c0-0.6-0.1-1.1-0.3-1.4S493.7,196.8,493.3,196.8z"
			/>
		<path id="XMLID_1152_" class="st2" d="M497.1,204.1c-0.1,0.2-0.2,0.3-0.4,0.4c-0.2,0.1-0.3,0.1-0.4,0.1h-0.6l5.8-11.8
			c0.1-0.2,0.2-0.3,0.3-0.4s0.3-0.1,0.5-0.1h0.6L497.1,204.1z"/>
		<path id="XMLID_1149_" class="st2" d="M472,228.2l1.3-10.9h0.7c0.3,0,0.5,0.2,0.5,0.5l-0.1,1.7c0.2-0.4,0.4-0.7,0.7-1
			c0.2-0.3,0.5-0.5,0.8-0.7s0.5-0.4,0.8-0.5s0.6-0.2,0.9-0.2c0.7,0,1.2,0.3,1.6,0.8s0.6,1.2,0.6,2.2c0,0.4,0,0.9-0.1,1.3
			s-0.2,0.9-0.4,1.3c-0.2,0.4-0.4,0.8-0.6,1.1s-0.5,0.6-0.8,0.9s-0.6,0.5-0.9,0.6s-0.7,0.2-1.1,0.2s-0.8-0.1-1.1-0.2
			c-0.3-0.2-0.6-0.4-0.8-0.7l-0.4,3.5L472,228.2L472,228.2z M476.9,218.4c-0.3,0-0.5,0.1-0.8,0.2s-0.5,0.4-0.8,0.7
			c-0.2,0.3-0.5,0.6-0.7,1s-0.4,0.8-0.5,1.3l-0.3,2.1c0.2,0.3,0.4,0.5,0.7,0.6c0.3,0.1,0.6,0.2,0.9,0.2s0.5-0.1,0.8-0.2
			s0.5-0.3,0.7-0.5s0.4-0.4,0.5-0.7s0.3-0.6,0.4-0.9s0.2-0.6,0.3-1s0.1-0.7,0.1-1c0-0.6-0.1-1.1-0.3-1.4
			C477.7,218.6,477.3,218.4,476.9,218.4z"/>
		<path id="XMLID_1147_" class="st2" d="M482.9,217.4l-0.6,5.2c0,0.1,0,0.2,0,0.3s0,0.2,0,0.3c0,0.4,0.1,0.8,0.2,1
			c0.2,0.2,0.4,0.3,0.8,0.3c0.2,0,0.5-0.1,0.8-0.2s0.5-0.3,0.8-0.6c0.2-0.2,0.5-0.5,0.7-0.9s0.4-0.7,0.5-1.2l0.5-4.2h1.4l-1,8.1
			h-0.7c-0.2,0-0.3,0-0.4-0.1s-0.1-0.2-0.1-0.3V225c0-0.1,0-0.2,0-0.3s0-0.2,0-0.3s0-0.1,0-0.1l0.1-0.6c-0.4,0.7-0.9,1.2-1.4,1.6
			s-1.1,0.5-1.6,0.5c-0.6,0-1.1-0.2-1.4-0.6s-0.5-1-0.5-1.8c0-0.1,0-0.2,0-0.3s0-0.2,0-0.4l0.6-5.2L482.9,217.4L482.9,217.4z"/>
		<path id="XMLID_1144_" class="st2" d="M489.1,225.5l1.4-11.8h1.4l-0.7,5.7c0.2-0.3,0.4-0.6,0.7-0.9c0.2-0.3,0.5-0.5,0.7-0.7
			c0.3-0.2,0.5-0.3,0.8-0.4s0.6-0.2,0.8-0.2c0.7,0,1.2,0.3,1.6,0.8s0.6,1.2,0.6,2.2c0,0.4,0,0.9-0.1,1.3s-0.2,0.9-0.4,1.3
			c-0.2,0.4-0.4,0.8-0.6,1.1s-0.5,0.6-0.8,0.9s-0.6,0.5-0.9,0.6s-0.7,0.2-1.1,0.2s-0.8-0.1-1.2-0.3c-0.3-0.2-0.6-0.4-0.9-0.8
			l-0.1,0.5c0,0.1-0.1,0.2-0.2,0.3s-0.2,0.1-0.3,0.1L489.1,225.5L489.1,225.5z M493.7,218.4c-0.3,0-0.5,0.1-0.8,0.2
			c-0.3,0.2-0.5,0.4-0.8,0.7c-0.2,0.3-0.5,0.6-0.7,1s-0.4,0.8-0.6,1.3l-0.3,2.1c0.2,0.3,0.4,0.5,0.7,0.6c0.3,0.1,0.6,0.2,0.9,0.2
			s0.5-0.1,0.8-0.2c0.2-0.1,0.5-0.3,0.7-0.5s0.4-0.4,0.5-0.7s0.3-0.6,0.4-0.9s0.2-0.6,0.3-1c0.1-0.3,0.1-0.7,0.1-1
			c0-0.6-0.1-1.1-0.3-1.4C494.4,218.6,494.1,218.4,493.7,218.4z"/>
		<path id="XMLID_1142_" class="st2" d="M497.5,225.5l1.4-11.8h1.4l-1.4,11.8H497.5z"/>
		<path id="XMLID_1139_" class="st2" d="M503.8,217.4l-1,8.1h-1.4l1-8.1H503.8z M504.3,214.9c0,0.1,0,0.3-0.1,0.4s-0.1,0.2-0.2,0.3
			s-0.2,0.2-0.3,0.2s-0.2,0.1-0.4,0.1c-0.1,0-0.2,0-0.4-0.1c-0.1-0.1-0.2-0.1-0.3-0.2c-0.1-0.1-0.2-0.2-0.2-0.3
			c-0.1-0.1-0.1-0.2-0.1-0.4s0-0.3,0.1-0.4s0.1-0.2,0.2-0.3s0.2-0.2,0.3-0.2c0.1-0.1,0.2-0.1,0.4-0.1c0.1,0,0.2,0,0.4,0.1
			c0.1,0.1,0.2,0.1,0.3,0.2c0.1,0.1,0.2,0.2,0.2,0.3C504.3,214.6,504.3,214.7,504.3,214.9z"/>
		<path id="XMLID_1137_" class="st2" d="M510.3,224.8c-0.2,0.2-0.5,0.4-0.7,0.5s-0.5,0.2-0.8,0.3c-0.3,0-0.6,0.1-0.9,0.1
			c-0.5,0-0.9-0.1-1.2-0.2s-0.7-0.4-0.9-0.7c-0.2-0.3-0.4-0.6-0.6-1s-0.2-0.9-0.2-1.3c0-0.7,0.1-1.3,0.3-1.9
			c0.2-0.6,0.5-1.1,0.9-1.6s0.8-0.8,1.3-1.1s1.1-0.4,1.7-0.4c0.5,0,1,0.1,1.3,0.3c0.4,0.2,0.7,0.5,1,0.8l-0.4,0.5l-0.1,0.1
			c0,0-0.1,0-0.2,0s-0.1,0-0.2-0.1s-0.2-0.1-0.3-0.2c-0.1-0.1-0.3-0.2-0.4-0.2c-0.2-0.1-0.4-0.1-0.7-0.1c-0.4,0-0.7,0.1-1,0.3
			s-0.6,0.5-0.9,0.8c-0.2,0.3-0.4,0.8-0.6,1.2c-0.1,0.5-0.2,1-0.2,1.5c0,0.3,0,0.6,0.1,0.9s0.2,0.5,0.3,0.7s0.3,0.3,0.5,0.4
			s0.5,0.2,0.8,0.2c0.2,0,0.5,0,0.6-0.1s0.4-0.1,0.5-0.2s0.3-0.2,0.4-0.2s0.2-0.2,0.3-0.2c0.1-0.1,0.2-0.1,0.2-0.2s0.1-0.1,0.2-0.1
			s0.2,0,0.3,0.1l0.4,0.4C510.8,224.3,510.5,224.6,510.3,224.8z"/>
		<path id="XMLID_1135_" class="st2" d="M512.2,225.7c-0.1,0.2-0.2,0.3-0.4,0.4c-0.2,0.1-0.3,0.1-0.4,0.1h-0.6l5.8-11.8
			c0.1-0.2,0.2-0.3,0.3-0.4s0.3-0.1,0.5-0.1h0.6L512.2,225.7z"/>
		<path id="XMLID_1133_" class="st0" d="M493.1,249l-0.6,5.2c0,0.1,0,0.2,0,0.3s0,0.2,0,0.3c0,0.4,0.1,0.8,0.2,1
			c0.2,0.2,0.4,0.3,0.8,0.3c0.2,0,0.5-0.1,0.8-0.2s0.5-0.3,0.8-0.6c0.2-0.2,0.5-0.5,0.7-0.9c0.2-0.3,0.4-0.7,0.5-1.2l0.5-4.2h1.4
			l-1,8.1h-0.7c-0.2,0-0.3,0-0.4-0.1s-0.1-0.2-0.1-0.3v-0.1c0-0.1,0-0.2,0-0.3c0-0.1,0-0.2,0-0.3s0-0.1,0-0.1l0.1-0.6
			c-0.4,0.7-0.9,1.2-1.4,1.6s-1.1,0.5-1.6,0.5c-0.6,0-1.1-0.2-1.4-0.6s-0.5-1-0.5-1.8c0-0.1,0-0.2,0-0.3s0-0.2,0-0.4l0.6-5.2
			L493.1,249L493.1,249L493.1,249z"/>
		<path id="XMLID_1130_" class="st0" d="M498.9,259.8l1.3-10.9h0.7c0.3,0,0.5,0.2,0.5,0.5l-0.1,1.7c0.2-0.4,0.4-0.7,0.7-1
			c0.2-0.3,0.5-0.5,0.8-0.7s0.5-0.4,0.8-0.5s0.6-0.2,0.9-0.2c0.7,0,1.2,0.2,1.6,0.8c0.4,0.5,0.6,1.2,0.6,2.2c0,0.4,0,0.9-0.1,1.3
			s-0.2,0.9-0.4,1.3c-0.2,0.4-0.4,0.8-0.6,1.1s-0.5,0.6-0.8,0.9s-0.6,0.5-0.9,0.6s-0.7,0.2-1.1,0.2s-0.8-0.1-1.1-0.2
			c-0.3-0.2-0.6-0.4-0.8-0.7l-0.4,3.5L498.9,259.8L498.9,259.8z M503.9,250c-0.3,0-0.5,0.1-0.8,0.2c-0.3,0.2-0.5,0.4-0.8,0.7
			c-0.2,0.3-0.5,0.6-0.7,1s-0.4,0.8-0.5,1.3l-0.3,2.1c0.2,0.3,0.4,0.5,0.7,0.6c0.3,0.1,0.6,0.2,0.9,0.2s0.5-0.1,0.8-0.2
			s0.5-0.3,0.7-0.5s0.4-0.4,0.5-0.7c0.2-0.3,0.3-0.6,0.4-0.9s0.2-0.6,0.3-1s0.1-0.7,0.1-1c0-0.6-0.1-1.1-0.3-1.4
			S504.3,250,503.9,250z"/>
		<path id="XMLID_1128_" class="st0" d="M507.7,257.1l1.4-11.8h1.4l-1.4,11.8H507.7z"/>
		<path id="XMLID_1125_" class="st0" d="M514.2,257.2c-0.4,0-0.8-0.1-1.2-0.2s-0.7-0.4-1-0.7c-0.3-0.3-0.5-0.6-0.6-1.1
			s-0.2-0.9-0.2-1.4c0-0.7,0.1-1.3,0.3-1.9c0.2-0.6,0.5-1.1,0.9-1.6c0.4-0.5,0.8-0.8,1.3-1.1s1-0.4,1.6-0.4c0.4,0,0.8,0.1,1.2,0.2
			s0.7,0.4,1,0.7s0.5,0.6,0.6,1.1c0.1,0.4,0.2,0.9,0.2,1.4c0,0.7-0.1,1.3-0.3,1.9c-0.2,0.6-0.5,1.1-0.9,1.6s-0.8,0.8-1.3,1.1
			S514.8,257.2,514.2,257.2z M514.3,256.1c0.4,0,0.7-0.1,1.1-0.3c0.3-0.2,0.6-0.5,0.8-0.9s0.4-0.8,0.5-1.2c0.1-0.5,0.2-0.9,0.2-1.5
			c0-0.7-0.1-1.3-0.4-1.7c-0.3-0.4-0.7-0.6-1.3-0.6c-0.4,0-0.8,0.1-1.1,0.3s-0.6,0.5-0.8,0.8c-0.2,0.4-0.4,0.8-0.5,1.2
			c-0.1,0.5-0.2,0.9-0.2,1.5c0,0.7,0.1,1.3,0.4,1.7C513.4,255.9,513.8,256.1,514.3,256.1z"/>
		<path id="XMLID_1122_" class="st0" d="M525.3,257.1h-0.7c-0.2,0-0.3,0-0.4-0.1s-0.1-0.2-0.1-0.4l0.1-1.6c-0.2,0.3-0.4,0.6-0.6,0.9
			c-0.2,0.3-0.5,0.5-0.7,0.7s-0.5,0.3-0.8,0.4s-0.6,0.2-0.8,0.2c-0.3,0-0.6-0.1-0.9-0.2s-0.5-0.3-0.7-0.6c-0.2-0.2-0.3-0.5-0.4-0.9
			c-0.1-0.4-0.2-0.8-0.2-1.2c0-0.5,0.1-0.9,0.2-1.4c0.1-0.5,0.3-0.9,0.5-1.3c0.2-0.4,0.5-0.8,0.8-1.1s0.7-0.6,1-0.9
			c0.4-0.2,0.8-0.4,1.2-0.6c0.4-0.1,0.9-0.2,1.4-0.2c0.3,0,0.7,0,1,0.1s0.7,0.2,1,0.3L525.3,257.1z M521.8,256
			c0.3,0,0.5-0.1,0.8-0.2c0.3-0.2,0.5-0.4,0.7-0.7s0.4-0.6,0.6-1s0.4-0.8,0.5-1.3l0.3-2.7c-0.1-0.1-0.2-0.1-0.3-0.1s-0.2,0-0.3,0
			c-0.3,0-0.6,0.1-0.9,0.2c-0.3,0.1-0.6,0.2-0.8,0.4c-0.3,0.2-0.5,0.4-0.7,0.7s-0.4,0.5-0.5,0.8s-0.3,0.6-0.4,1
			c-0.1,0.3-0.1,0.7-0.1,1.1C520.6,255.4,521,256,521.8,256z"/>
		<path id="XMLID_1119_" class="st0" d="M532.9,257.1c-0.2,0-0.3,0-0.4-0.1c-0.1-0.1-0.1-0.2-0.1-0.4l0.2-1.7
			c-0.2,0.3-0.4,0.7-0.7,0.9c-0.2,0.3-0.5,0.5-0.8,0.7s-0.5,0.4-0.8,0.5s-0.6,0.2-0.9,0.2c-0.7,0-1.2-0.3-1.6-0.8s-0.6-1.2-0.6-2.2
			c0-0.4,0-0.9,0.1-1.3s0.2-0.9,0.4-1.3c0.2-0.4,0.4-0.8,0.6-1.1s0.5-0.6,0.8-0.9s0.6-0.4,0.9-0.6c0.3-0.1,0.7-0.2,1.1-0.2
			s0.8,0.1,1.1,0.2c0.3,0.2,0.6,0.4,0.8,0.7l0.6-4.5h1.4l-1.5,11.8L532.9,257.1L532.9,257.1z M530,256.1c0.3,0,0.5-0.1,0.8-0.2
			c0.3-0.2,0.5-0.4,0.8-0.7c0.2-0.3,0.5-0.6,0.7-1s0.4-0.8,0.5-1.3l0.3-2.1c-0.2-0.3-0.4-0.5-0.7-0.6s-0.6-0.2-0.9-0.2
			c-0.4,0-0.8,0.1-1.1,0.4c-0.3,0.2-0.6,0.6-0.9,1c-0.2,0.4-0.4,0.8-0.5,1.3s-0.2,1-0.2,1.4c0,0.6,0.1,1.1,0.3,1.5
			C529.3,255.9,529.6,256.1,530,256.1z"/>
		<path id="XMLID_1117_" class="st0" d="M541.1,250.3c0,0.1-0.1,0.1-0.1,0.1s-0.1,0-0.2,0s-0.2,0-0.2-0.1s-0.2-0.1-0.3-0.2
			c-0.1-0.1-0.3-0.1-0.5-0.2s-0.4-0.1-0.7-0.1c-0.2,0-0.5,0-0.7,0.1s-0.4,0.2-0.5,0.3s-0.3,0.3-0.3,0.4c-0.1,0.2-0.1,0.3-0.1,0.5
			c0,0.3,0.1,0.5,0.2,0.6c0.2,0.1,0.4,0.3,0.6,0.4s0.5,0.2,0.8,0.3s0.6,0.2,0.8,0.4s0.5,0.4,0.6,0.6c0.2,0.2,0.2,0.6,0.2,0.9
			c0,0.4-0.1,0.7-0.2,1.1c-0.1,0.4-0.4,0.6-0.6,0.9c-0.3,0.3-0.6,0.5-1,0.6c-0.4,0.2-0.8,0.2-1.3,0.2s-1-0.1-1.4-0.3
			c-0.4-0.2-0.7-0.4-1-0.7l0.4-0.5c0-0.1,0.1-0.1,0.2-0.2s0.1-0.1,0.2-0.1s0.2,0,0.3,0.1s0.2,0.2,0.3,0.3s0.3,0.2,0.5,0.3
			c0.2,0.1,0.4,0.1,0.7,0.1s0.5,0,0.7-0.1s0.4-0.2,0.5-0.3s0.3-0.3,0.3-0.5c0.1-0.2,0.1-0.4,0.1-0.6c0-0.3-0.1-0.5-0.2-0.6
			c-0.2-0.2-0.4-0.3-0.6-0.4s-0.5-0.2-0.8-0.3s-0.6-0.2-0.8-0.4c-0.3-0.1-0.5-0.3-0.6-0.6c-0.2-0.2-0.2-0.5-0.2-0.9
			c0-0.3,0.1-0.7,0.2-1c0.1-0.3,0.3-0.6,0.6-0.8s0.6-0.4,0.9-0.6c0.3-0.2,0.8-0.2,1.2-0.2c0.5,0,0.9,0.1,1.3,0.2
			c0.4,0.2,0.7,0.4,1,0.7L541.1,250.3z"/>
		<path id="XMLID_1115_" class="st0" d="M542.3,257.3c-0.1,0.2-0.2,0.3-0.4,0.4s-0.3,0.1-0.4,0.1h-0.6l5.8-11.8
			c0.1-0.2,0.2-0.3,0.3-0.4s0.3-0.1,0.5-0.1h0.6L542.3,257.3z"/>
	</g>
</g>
<g id="XMLID_122_">
	<g id="XMLID_176_">
		<line id="XMLID_178_" class="st19" x1="438.8" y1="231.9" x2="438.8" y2="145.9"/>
		<line id="XMLID_177_" class="st20" x1="438.8" y1="144.9" x2="438.8" y2="142.9"/>
	</g>
</g>
<g id="XMLID_319_">
	<g id="XMLID_200_">
		<line id="XMLID_218_" class="st20" x1="438.8" y1="322.9" x2="438.8" y2="321.9"/>
		<line id="XMLID_217_" class="st19" x1="438.8" y1="317.9" x2="438.8" y2="272.9"/>
	</g>
</g>
</svg>
