<?xml version="1.0" encoding="utf-8"?>
<!-- Generator: Adobe Illustrator 19.1.0, SVG Export Plug-In . SVG Version: 6.00 Build 0)  -->
<svg version="1.1" id="Layer_1" xmlns="http://www.w3.org/2000/svg" xmlns:xlink="http://www.w3.org/1999/xlink" x="0px" y="0px"
	 viewBox="0 0 173.6 115.2" enable-background="new 0 0 173.6 115.2" xml:space="preserve">
<g>
	<polygon fill="#4E5E66" points="173.6,20.2 11.9,115.2 0,95 161.7,0 	"/>
	<g>
		<path fill="#D1DEE7" d="M52.1,81c0.1,0,0.2-0.1,0.2,0l0.9,0.3c-0.1,0.6-0.3,1.1-0.6,1.5s-0.8,0.9-1.4,1.2
			c-0.6,0.3-1.1,0.5-1.7,0.6s-1.1,0-1.6-0.1c-0.5-0.2-1-0.4-1.4-0.8s-0.8-0.8-1.2-1.4c-0.3-0.6-0.5-1.1-0.6-1.7
			c-0.1-0.6-0.1-1.1,0.1-1.7c0.1-0.5,0.4-1,0.7-1.5c0.4-0.5,0.8-0.9,1.4-1.2c0.6-0.3,1.1-0.5,1.6-0.6c0.5-0.1,1,0,1.5,0.1l-0.1,0.9
			c0,0.1,0,0.1,0,0.2s-0.1,0.1-0.2,0.2c-0.1,0-0.2,0.1-0.3,0c-0.1,0-0.3,0-0.4,0c-0.2,0-0.4,0-0.6,0.1s-0.5,0.2-0.8,0.3
			c-0.4,0.2-0.6,0.5-0.9,0.8c-0.2,0.3-0.4,0.6-0.5,1c-0.1,0.4-0.1,0.7,0,1.1c0.1,0.4,0.2,0.8,0.5,1.2c0.2,0.4,0.5,0.8,0.8,1
			c0.3,0.3,0.6,0.4,1,0.5c0.3,0.1,0.7,0.1,1,0.1s0.7-0.2,1-0.3c0.2-0.1,0.4-0.2,0.5-0.3c0.1-0.1,0.3-0.2,0.4-0.3s0.2-0.2,0.3-0.4
			s0.1-0.3,0.2-0.5c0-0.1,0-0.1,0.1-0.1C52,81,52,81,52.1,81z"/>
		<path fill="#D1DEE7" d="M60.6,73.3c0.3,0.5,0.5,1.1,0.6,1.7s0.1,1.1-0.1,1.7c-0.1,0.5-0.4,1-0.7,1.5s-0.8,0.9-1.4,1.2
			c-0.6,0.3-1.1,0.5-1.7,0.6c-0.6,0.1-1.1,0.1-1.7-0.1c-0.5-0.1-1-0.4-1.5-0.8c-0.5-0.4-0.8-0.8-1.2-1.4c-0.3-0.5-0.5-1.1-0.6-1.7
			c-0.1-0.6-0.1-1.1,0.1-1.7c0.1-0.5,0.4-1,0.7-1.5c0.4-0.5,0.8-0.9,1.4-1.2c0.6-0.3,1.1-0.5,1.7-0.6c0.6-0.1,1.1,0,1.7,0.1
			c0.5,0.1,1,0.4,1.5,0.8S60.3,72.8,60.6,73.3z M59.2,74.1c-0.2-0.4-0.5-0.7-0.8-1c-0.3-0.3-0.6-0.4-1-0.6c-0.3-0.1-0.7-0.1-1-0.1
			c-0.4,0.1-0.7,0.2-1.1,0.4c-0.4,0.2-0.7,0.5-0.9,0.8c-0.2,0.3-0.4,0.6-0.4,1c-0.1,0.3-0.1,0.7,0,1.1c0.1,0.4,0.2,0.8,0.5,1.2
			c0.2,0.4,0.5,0.7,0.8,1c0.3,0.3,0.6,0.4,1,0.5c0.3,0.1,0.7,0.1,1.1,0.1s0.7-0.2,1.1-0.4s0.7-0.5,0.9-0.8c0.2-0.3,0.4-0.6,0.4-1
			c0.1-0.3,0.1-0.7,0-1.1S59.4,74.6,59.2,74.1z"/>
		<path fill="#D1DEE7" d="M66.9,70.9c0.1,0.1,0.2,0.2,0.4,0.3c0-0.2,0-0.3-0.1-0.5c0-0.2,0-0.3,0-0.4l-0.2-5.4c0-0.1,0-0.1,0-0.2
			c0,0,0-0.1,0.1-0.1c0,0,0.1-0.1,0.1-0.1c0,0,0.1-0.1,0.2-0.1l1.1-0.6l4.4,7.5l-1.2,0.7l-2.8-4.8c-0.1-0.1-0.1-0.2-0.2-0.3
			c-0.1-0.1-0.1-0.2-0.2-0.3l0.2,5.6c0,0.1,0,0.2-0.1,0.3c-0.1,0.1-0.1,0.2-0.2,0.3L68,72.7c-0.1,0.1-0.2,0.1-0.3,0.1
			s-0.2,0-0.3-0.1l-4.8-2.9c0.1,0.1,0.2,0.2,0.2,0.3c0.1,0.1,0.1,0.2,0.2,0.3l2.8,4.8L64.6,76l-4.4-7.5l1.1-0.6
			c0.1,0,0.1-0.1,0.2-0.1c0,0,0.1,0,0.1,0s0.1,0,0.1,0c0.1,0,0.1,0,0.2,0.1l4.7,2.8C66.7,70.7,66.8,70.8,66.9,70.9z"/>
		<path fill="#D1DEE7" d="M76.5,69l-1.4,0.8l-4.4-7.5l1.4-0.8L76.5,69z"/>
		<path fill="#D1DEE7" d="M75.4,59.6c0,0,0.1,0,0.1,0c0,0,0.1,0,0.1,0c0,0,0.1,0,0.2,0.1l6.9,2.7c-0.1-0.1-0.2-0.2-0.2-0.3
			c-0.1-0.1-0.1-0.2-0.2-0.3l-2.7-4.5l1.2-0.7l4.4,7.5l-0.7,0.4c-0.1,0.1-0.2,0.1-0.3,0.1c-0.1,0-0.2,0-0.3-0.1L77,61.6
			c0.1,0.1,0.1,0.2,0.2,0.3c0.1,0.1,0.1,0.2,0.2,0.3l2.7,4.6l-1.2,0.7l-4.4-7.5l0.7-0.4C75.3,59.6,75.4,59.6,75.4,59.6z"/>
		<path fill="#D1DEE7" d="M90.3,59.5c0.3-0.2,0.6-0.4,0.8-0.6c0.2-0.2,0.4-0.4,0.5-0.6l-0.8-1.4l-0.9,0.6c-0.1,0.1-0.2,0.1-0.3,0
			c-0.1,0-0.1-0.1-0.2-0.1L89,56.6l2.5-1.5l1.8,3c-0.1,0.2-0.2,0.5-0.4,0.7c-0.1,0.2-0.3,0.4-0.5,0.6c-0.2,0.2-0.4,0.4-0.7,0.6
			c-0.2,0.2-0.5,0.4-0.8,0.6c-0.5,0.3-1.1,0.5-1.7,0.6c-0.6,0.1-1.1,0-1.7-0.1c-0.5-0.1-1-0.4-1.5-0.8c-0.5-0.4-0.9-0.8-1.2-1.4
			c-0.3-0.6-0.5-1.1-0.6-1.7c-0.1-0.6-0.1-1.1,0.1-1.7c0.1-0.5,0.4-1,0.8-1.5c0.4-0.5,0.9-0.9,1.4-1.2c0.6-0.4,1.2-0.6,1.7-0.7
			c0.6-0.1,1.1-0.1,1.6,0l0,0.9c0,0.2-0.1,0.3-0.2,0.4c-0.1,0-0.2,0.1-0.3,0.1c-0.1,0-0.3,0-0.5,0c-0.2,0-0.3,0-0.5,0.1
			c-0.2,0-0.3,0.1-0.5,0.2c-0.2,0.1-0.4,0.2-0.6,0.3c-0.4,0.2-0.7,0.5-0.9,0.8c-0.2,0.3-0.4,0.6-0.4,1c-0.1,0.4-0.1,0.7,0,1.1
			s0.2,0.8,0.5,1.2c0.3,0.4,0.5,0.8,0.9,1c0.3,0.3,0.7,0.4,1,0.6c0.4,0.1,0.7,0.1,1.1,0.1C89.6,59.8,89.9,59.7,90.3,59.5z"/>
		<path fill="#D1DEE7" d="M98.8,47.6c0,0.1,0,0.2,0,0.2c0,0.1-0.1,0.1-0.2,0.2c-0.1,0-0.2,0.1-0.3,0.1c-0.1,0-0.3,0-0.4,0
			c-0.2,0-0.3,0-0.5,0.1s-0.4,0.1-0.6,0.2c-0.2,0.1-0.3,0.2-0.5,0.4c-0.1,0.1-0.2,0.3-0.2,0.4c0,0.1-0.1,0.3,0,0.4
			c0,0.1,0.1,0.3,0.2,0.4c0.1,0.2,0.2,0.3,0.4,0.4c0.2,0.1,0.4,0.1,0.6,0.1c0.2,0,0.4,0,0.7-0.1s0.5-0.1,0.8-0.2
			c0.3-0.1,0.5-0.1,0.8-0.1c0.3,0,0.5,0,0.8,0c0.2,0.1,0.5,0.2,0.7,0.3c0.2,0.2,0.4,0.4,0.6,0.7c0.2,0.3,0.3,0.7,0.4,1.1
			c0.1,0.4,0,0.7-0.1,1.1c-0.1,0.4-0.3,0.7-0.5,1c-0.2,0.3-0.6,0.6-1,0.8c-0.2,0.1-0.5,0.3-0.7,0.3c-0.3,0.1-0.5,0.2-0.8,0.2
			c-0.3,0-0.5,0.1-0.8,0c-0.3,0-0.5,0-0.7-0.1l0-0.9c0-0.1,0-0.1,0.1-0.2s0.1-0.1,0.1-0.2c0.1-0.1,0.2-0.1,0.3-0.1
			c0.1,0,0.3,0,0.5,0c0.2,0,0.4,0,0.6,0s0.5-0.1,0.7-0.3c0.4-0.2,0.6-0.5,0.8-0.8c0.1-0.3,0.1-0.6-0.2-1c-0.1-0.2-0.3-0.3-0.4-0.4
			c-0.2-0.1-0.4-0.1-0.6-0.1c-0.2,0-0.4,0-0.7,0.1c-0.2,0.1-0.5,0.1-0.7,0.2c-0.3,0.1-0.5,0.1-0.8,0.1s-0.5,0-0.8-0.1
			c-0.3-0.1-0.5-0.2-0.7-0.4c-0.2-0.2-0.5-0.4-0.7-0.8c-0.2-0.3-0.3-0.6-0.3-0.9c0-0.3,0-0.6,0.1-1c0.1-0.3,0.3-0.6,0.5-0.9
			c0.2-0.3,0.5-0.6,0.9-0.8c0.4-0.3,0.9-0.4,1.3-0.5c0.5-0.1,0.9-0.1,1.3,0L98.8,47.6z"/>
		<path fill="#D1DEE7" d="M109.6,44.4c0.3,0.5,0.5,1.1,0.6,1.7c0.1,0.6,0.1,1.1-0.1,1.7c-0.1,0.5-0.4,1-0.7,1.5
			c-0.4,0.5-0.8,0.9-1.4,1.2c-0.6,0.3-1.1,0.5-1.7,0.6c-0.6,0.1-1.1,0.1-1.7-0.1c-0.5-0.1-1-0.4-1.5-0.8s-0.8-0.8-1.2-1.4
			c-0.3-0.5-0.5-1.1-0.6-1.7c-0.1-0.6-0.1-1.1,0.1-1.7c0.1-0.5,0.4-1,0.7-1.5c0.4-0.5,0.8-0.9,1.4-1.2s1.1-0.5,1.7-0.6
			c0.6-0.1,1.1,0,1.7,0.1s1,0.4,1.5,0.8S109.3,43.9,109.6,44.4z M108.2,45.3c-0.2-0.4-0.5-0.7-0.8-1c-0.3-0.3-0.6-0.4-1-0.6
			c-0.3-0.1-0.7-0.1-1-0.1c-0.4,0-0.7,0.2-1.1,0.4s-0.7,0.5-0.9,0.8c-0.2,0.3-0.4,0.6-0.4,1s-0.1,0.7,0,1.1c0.1,0.4,0.2,0.8,0.5,1.2
			c0.2,0.4,0.5,0.7,0.8,1c0.3,0.3,0.6,0.4,1,0.5s0.7,0.1,1.1,0.1c0.4-0.1,0.7-0.2,1.1-0.4s0.7-0.5,0.9-0.8c0.2-0.3,0.4-0.6,0.4-1
			c0.1-0.3,0.1-0.7,0-1.1S108.4,45.7,108.2,45.3z"/>
		<path fill="#D1DEE7" d="M118.6,39.1c0.3,0.5,0.5,1.1,0.6,1.7c0.1,0.6,0.1,1.1-0.1,1.7c-0.1,0.5-0.4,1-0.7,1.5
			c-0.4,0.5-0.8,0.9-1.4,1.2c-0.6,0.3-1.1,0.5-1.7,0.6c-0.6,0.1-1.1,0.1-1.7-0.1c-0.5-0.1-1-0.4-1.5-0.8c-0.5-0.4-0.8-0.8-1.2-1.4
			s-0.5-1.1-0.6-1.7c-0.1-0.6-0.1-1.1,0.1-1.7c0.1-0.5,0.4-1,0.7-1.5s0.8-0.9,1.4-1.2c0.6-0.3,1.1-0.5,1.7-0.6
			c0.6-0.1,1.1,0,1.7,0.1c0.5,0.1,1,0.4,1.5,0.8C117.9,38.1,118.3,38.6,118.6,39.1z M117.2,40c-0.2-0.4-0.5-0.7-0.8-1
			c-0.3-0.3-0.6-0.4-1-0.6s-0.7-0.1-1.1-0.1c-0.4,0.1-0.7,0.2-1.1,0.4c-0.4,0.2-0.7,0.5-0.9,0.8c-0.2,0.3-0.4,0.6-0.4,1
			c-0.1,0.4-0.1,0.7,0,1.1c0.1,0.4,0.2,0.8,0.5,1.2s0.5,0.7,0.8,1c0.3,0.3,0.6,0.4,1,0.5c0.3,0.1,0.7,0.1,1.1,0.1
			c0.4-0.1,0.7-0.2,1.1-0.4s0.7-0.5,0.9-0.8c0.2-0.3,0.4-0.6,0.4-1c0.1-0.3,0.1-0.7,0-1.1C117.6,40.8,117.4,40.4,117.2,40z"/>
		<path fill="#D1DEE7" d="M119.1,33.8c0,0,0.1,0,0.1,0s0.1,0,0.1,0c0,0,0.1,0,0.2,0.1l6.9,2.7c-0.1-0.1-0.2-0.2-0.2-0.3
			c-0.1-0.1-0.1-0.2-0.2-0.3l-2.7-4.5l1.2-0.7l4.4,7.5l-0.7,0.4c-0.1,0.1-0.2,0.1-0.3,0.1c-0.1,0-0.2,0-0.3-0.1l-6.8-2.7
			c0.1,0.1,0.1,0.2,0.2,0.3c0.1,0.1,0.1,0.2,0.2,0.3l2.7,4.6l-1.2,0.7l-4.4-7.5l0.7-0.4C119,33.9,119.1,33.8,119.1,33.8z"/>
	</g>
	<path fill="#304149" d="M11.9,115.2L11.9,115.2l9.7,0c-1.1-1.3-2.2-2.5-3.2-3.9L11.9,115.2z"/>
	<path fill="#304149" d="M161.7,0L161.7,0l-10.1,0c1.2,1.3,2.3,2.6,3.3,4L161.7,0z"/>
</g>
</svg>
